<?xml version="1.0" standalone="no"?>
<!DOCTYPE svg PUBLIC "-//W3C//DTD SVG 20010904//EN"
 "http://www.w3.org/TR/2001/REC-SVG-20010904/DTD/svg10.dtd">
<svg version="1.0" xmlns="http://www.w3.org/2000/svg"
 width="260.000000pt" height="260.000000pt" viewBox="0 0 260.000000 260.000000"
 preserveAspectRatio="xMidYMid meet">
<metadata>
Created by potrace 1.11, written by Peter Selinger 2001-2013
</metadata>
<g transform="translate(0.000000,260.000000) scale(0.100000,-0.100000)"
fill="#000000" stroke="none">
<path d="M1183 2457 c-50 -23 -105 -56 -122 -72 -36 -34 -141 -168 -141 -178
0 -9 -70 -160 -114 -247 -30 -58 -48 -106 -51 -135 -1 -5 -8 -23 -17 -40 -38
-74 -55 -256 -28 -310 8 -16 34 -40 58 -53 27 -15 42 -30 42 -43 0 -10 -4 -19
-9 -19 -11 0 -135 -98 -179 -140 -27 -27 -32 -39 -32 -79 0 -53 16 -75 63 -86
28 -7 35 -14 88 -95 16 -25 40 -60 54 -78 13 -19 38 -71 55 -115 17 -45 40
-94 50 -109 11 -15 29 -51 40 -80 19 -50 80 -305 95 -395 10 -64 66 -101 98
-65 15 16 36 100 35 142 0 41 15 169 24 198 5 19 10 109 10 200 0 156 1 165
15 137 27 -53 64 -85 99 -85 17 0 37 7 44 15 22 26 35 16 53 -37 12 -37 17
-83 16 -153 -1 -73 3 -113 16 -150 12 -34 19 -84 20 -152 1 -66 6 -108 15
-118 17 -21 59 -19 67 2 4 10 14 28 23 40 10 12 30 69 45 125 26 99 85 265
112 318 7 14 13 30 13 37 0 6 18 34 40 62 22 28 40 57 40 65 0 7 9 44 21 82
15 49 36 86 77 137 77 93 91 118 98 163 8 60 -18 118 -86 191 -33 35 -60 69
-60 76 0 7 17 31 38 52 21 22 41 48 45 58 11 30 -20 156 -57 232 -19 38 -40
92 -46 119 -6 26 -17 61 -25 76 -8 15 -23 61 -34 101 -36 133 -166 335 -236
367 -12 6 -40 25 -60 44 -37 32 -42 33 -129 35 -88 2 -94 1 -183 -40z m217
-57 c19 -11 58 -32 85 -46 61 -31 114 -94 160 -191 32 -67 75 -217 75 -263 0
-25 -29 -26 -72 -4 -49 25 -104 12 -202 -48 -87 -54 -105 -75 -98 -116 3 -20
8 -23 30 -17 15 3 36 17 47 30 22 26 75 55 100 55 9 0 30 7 48 17 18 9 53 17
79 17 l47 1 4 -80 c2 -44 2 -134 1 -201 -2 -108 -5 -126 -28 -172 -14 -28 -26
-67 -26 -86 0 -33 -11 -65 -49 -144 -24 -52 -115 -140 -164 -162 -46 -20 -57
-35 -57 -73 0 -22 -36 -67 -54 -67 -12 0 -48 49 -67 92 -6 15 -30 39 -53 54
-74 48 -186 183 -186 223 0 13 -7 32 -15 41 -8 9 -25 45 -38 80 -23 62 -23 71
-14 205 5 77 11 142 14 145 3 3 10 -4 17 -15 36 -64 99 -89 154 -62 18 9 25 8
33 -3 9 -13 11 -13 16 -1 3 7 15 23 26 34 18 18 19 23 6 46 -19 34 -95 60
-180 61 l-65 0 -21 43 c-43 88 -39 183 12 307 8 19 19 54 25 77 7 29 29 62 67
103 52 56 70 68 188 121 11 4 36 10 55 12 19 2 42 5 50 5 8 1 31 -7 50 -18z
m381 -642 c27 -31 59 -105 58 -131 -1 -15 -5 -10 -13 15 -6 21 -20 46 -30 55
-18 18 -18 15 -13 -99 6 -129 -7 -162 -18 -45 -9 108 -14 227 -8 227 3 0 14
-10 24 -22z m-906 -15 c-7 -20 -31 -104 -49 -170 -6 -24 -16 -43 -23 -43 -24
0 -14 64 22 137 19 40 35 77 35 83 0 5 5 10 11 10 7 0 8 -7 4 -17z m265 -48
c17 -20 7 -29 -17 -17 -10 6 -29 15 -43 20 -24 10 -23 11 11 11 21 1 42 -5 49
-14z m-236 -147 c-10 -45 -20 -68 -30 -68 -18 0 -18 2 6 78 11 35 20 76 21 90
l1 27 9 -29 c5 -20 3 -52 -7 -98z m962 17 c-4 -14 -11 -23 -16 -20 -6 3 -5 16
2 30 14 31 23 25 14 -10z m-67 -235 c7 0 37 -24 67 -53 69 -69 72 -99 15 -145
-29 -23 -41 -41 -46 -70 -3 -21 -27 -78 -52 -127 -25 -50 -53 -104 -62 -122
-20 -41 -32 -41 -51 0 -9 19 -29 39 -50 48 -19 9 -44 26 -54 38 -12 13 -31 21
-53 21 l-33 0 41 38 c82 73 162 200 200 317 11 33 22 66 25 74 4 11 8 11 22
-3 10 -9 24 -16 31 -16z m-891 -69 c23 -70 117 -208 194 -283 38 -37 67 -72
63 -77 -3 -5 -27 -17 -53 -25 -39 -13 -91 -46 -168 -108 -8 -6 -30 30 -72 117
-47 95 -75 140 -118 185 l-57 60 37 45 c21 25 50 52 66 60 16 8 37 29 47 45
24 41 43 34 61 -19z m564 -468 c4 -17 23 -55 41 -86 31 -50 34 -66 40 -154 5
-85 3 -107 -17 -165 l-23 -66 -16 76 c-9 43 -18 122 -20 177 -4 71 -11 118
-27 161 -23 60 -22 100 2 92 7 -3 16 -18 20 -35z m86 18 c22 -11 46 -35 60
-60 23 -41 23 -42 6 -86 -19 -50 -34 -59 -34 -20 0 32 -19 79 -54 129 -40 60
-37 67 22 37z m-412 -135 c-3 -34 -11 -95 -16 -136 -6 -41 -13 -106 -16 -145
l-6 -70 -15 35 c-36 83 -18 261 39 384 17 39 22 15 14 -68z m-85 3 c-12 -34
-21 -68 -21 -76 0 -7 -3 -13 -8 -13 -9 0 -42 74 -42 94 0 17 83 81 88 67 2 -5
-6 -37 -17 -72z"/>
<path d="M984 1876 c-79 -35 -46 -61 86 -69 115 -7 130 -15 160 -82 18 -41 37
-162 43 -272 l3 -61 -33 5 c-32 5 -34 4 -37 -29 -1 -7 10 -15 23 -18 27 -6 66
-54 40 -49 -8 1 -45 -1 -82 -5 -62 -8 -68 -10 -65 -30 2 -13 18 -28 46 -42 37
-18 41 -22 28 -33 -14 -12 -14 -15 1 -37 17 -27 60 -32 92 -12 15 9 34 9 82 0
35 -6 64 -10 66 -9 1 2 6 17 9 34 5 25 2 32 -14 37 -30 10 -187 10 -203 1 -8
-5 -6 1 4 12 10 12 29 24 43 27 15 4 24 14 24 26 0 31 18 33 43 4 20 -23 33
-27 89 -31 58 -3 68 -1 77 15 7 14 6 24 -3 38 -12 16 -26 18 -93 16 -79 -2
-80 2 -9 28 27 10 27 12 13 33 -8 12 -27 23 -43 25 l-29 3 -3 157 c-4 166 -7
179 -59 239 -20 22 -54 41 -112 62 -92 34 -139 38 -187 17z"/>
<path d="M1475 1760 c-61 -33 -71 -48 -66 -98 1 -18 85 -52 127 -52 30 0 44 9
90 57 30 31 54 60 54 63 0 49 -134 68 -205 30z m70 -51 c-43 -20 -65 -24 -65
-11 0 19 27 32 65 31 l40 -1 -40 -19z"/>
<path d="M1282 1121 c-8 -5 -12 -17 -10 -27 4 -24 80 -37 105 -19 25 18 9 45
-26 45 -16 0 -35 2 -43 5 -7 3 -19 1 -26 -4z"/>
<path d="M1281 581 c-26 -26 -27 -60 0 -110 24 -47 61 -61 90 -35 23 21 25 67
4 84 -8 7 -19 27 -23 44 -10 38 -42 46 -71 17z"/>
<path d="M1262 267 c-31 -33 -29 -65 6 -77 15 -6 35 -15 44 -20 61 -35 76 11
27 78 -35 48 -47 51 -77 19z"/>
</g>
</svg>
