<?xml version="1.0" standalone="no"?>
<!DOCTYPE svg PUBLIC "-//W3C//DTD SVG 20010904//EN"
 "http://www.w3.org/TR/2001/REC-SVG-20010904/DTD/svg10.dtd">
<svg version="1.0" xmlns="http://www.w3.org/2000/svg"
 width="1001.000000pt" height="1001.000000pt" viewBox="0 0 1001.000000 1001.000000"
 preserveAspectRatio="xMidYMid meet">
<metadata>
Created by potrace 1.11, written by Peter Selinger 2001-2013
</metadata>
<g transform="translate(0.000000,1001.000000) scale(0.100000,-0.100000)"
fill="#000000" stroke="none">
<path d="M5217 8824 c-4 -4 -69 -6 -146 -6 -167 2 -219 -11 -356 -89 -49 -28
-139 -74 -200 -104 -134 -65 -221 -128 -345 -254 -97 -98 -246 -287 -312 -396
-20 -34 -62 -124 -94 -200 -68 -168 -89 -212 -137 -290 -20 -33 -52 -105 -71
-160 -19 -55 -75 -179 -123 -275 -90 -177 -153 -341 -153 -394 0 -16 -20 -71
-45 -122 -59 -120 -79 -180 -110 -328 -21 -98 -25 -143 -23 -241 2 -90 -2
-139 -16 -195 -17 -71 -18 -79 -2 -140 20 -76 64 -176 101 -224 17 -23 59 -50
131 -85 78 -39 110 -61 125 -84 35 -59 22 -85 -82 -155 -25 -17 -79 -58 -120
-93 -41 -34 -128 -103 -194 -152 -231 -174 -318 -290 -318 -425 0 -130 56
-219 159 -257 168 -61 203 -93 300 -274 52 -96 86 -144 142 -204 63 -66 83
-96 137 -210 34 -72 88 -202 118 -287 85 -238 95 -260 151 -330 68 -83 64 -75
131 -274 75 -225 148 -526 240 -982 41 -207 83 -390 91 -407 66 -128 180 -182
265 -124 75 51 105 155 120 416 13 231 41 483 79 710 25 156 30 212 30 361 0
96 5 214 11 260 8 70 7 100 -7 175 -21 113 -24 283 -5 348 l14 48 59 -121 c78
-158 134 -219 232 -249 38 -12 77 -21 87 -21 31 0 89 34 158 94 l65 56 14 -33
c22 -52 80 -257 91 -322 14 -83 17 -186 7 -350 -10 -172 5 -283 63 -468 56
-180 63 -237 59 -529 -3 -286 2 -325 57 -378 26 -25 45 -34 82 -37 42 -4 53
-1 80 21 17 14 38 43 46 63 8 21 25 46 36 55 48 41 129 241 176 438 15 63 38
158 51 210 14 52 32 129 40 170 9 45 37 119 69 186 30 60 74 177 99 260 29 93
53 155 65 164 11 8 35 64 56 125 45 137 68 176 165 284 42 48 84 101 93 118 9
17 23 78 31 135 17 121 93 350 149 450 44 79 206 296 289 388 65 72 129 191
153 285 35 136 8 317 -66 441 -19 32 -95 122 -170 199 -166 171 -219 238 -219
274 0 40 45 103 153 217 110 117 121 141 120 274 -2 152 -53 341 -141 517
-116 231 -182 398 -212 535 -16 73 -46 176 -68 228 -56 135 -88 240 -112 359
-25 126 -49 185 -127 321 -33 58 -88 161 -121 230 -62 127 -90 166 -266 377
-119 142 -127 149 -241 218 -49 29 -124 84 -165 120 -94 84 -133 109 -200 129
-53 16 -210 22 -223 10z m95 -296 c29 -14 98 -55 151 -92 54 -36 126 -79 160
-95 87 -39 172 -107 240 -190 91 -111 217 -316 263 -426 22 -55 53 -123 67
-152 25 -47 85 -286 138 -542 31 -153 25 -201 -32 -225 -27 -11 -40 -9 -112
16 -45 16 -105 42 -134 58 -131 74 -233 44 -578 -171 -228 -142 -261 -169
-293 -237 -20 -45 -24 -64 -19 -114 3 -33 10 -65 16 -71 18 -18 104 -13 147 9
27 14 50 39 75 80 33 56 41 62 145 116 74 39 142 65 213 83 58 14 143 42 189
61 81 33 88 35 167 28 55 -4 94 -2 119 6 21 6 40 9 44 5 4 -3 10 -99 14 -213
4 -114 12 -274 17 -357 29 -421 1 -741 -75 -872 -79 -135 -87 -158 -94 -288
-6 -102 -12 -132 -39 -196 -17 -41 -40 -108 -52 -149 -24 -88 -67 -168 -148
-278 -154 -207 -282 -322 -460 -412 -142 -71 -181 -119 -181 -223 0 -66 -24
-118 -84 -184 -37 -41 -54 -53 -77 -53 -49 0 -106 70 -188 229 -39 77 -84 155
-99 172 -14 18 -70 60 -122 94 -53 34 -112 76 -132 94 -54 47 -338 384 -375
445 -18 30 -43 94 -57 145 -15 59 -40 119 -69 170 -63 107 -163 360 -178 446
-17 100 -5 432 22 572 15 82 19 132 14 208 -6 122 7 170 45 170 21 0 33 -14
72 -79 51 -87 125 -167 174 -191 25 -12 38 -13 64 -4 24 9 49 9 99 -1 62 -12
70 -11 142 14 41 14 88 26 103 26 40 0 155 123 156 166 0 39 -45 109 -101 158
-36 31 -50 37 -78 34 -25 -3 -40 1 -56 18 -46 46 -180 58 -435 40 -148 -10
-149 -10 -179 89 -11 35 -34 91 -51 125 -44 88 -83 287 -77 395 6 102 82 391
143 541 25 62 56 152 69 200 58 217 150 350 370 534 44 37 102 82 129 100 52
35 260 130 284 130 8 0 39 14 69 31 51 29 60 31 122 26 36 -3 86 -2 111 3 73
14 162 5 222 -22z m-1666 -1565 c-11 -11 -17 4 -9 23 7 18 8 18 11 1 2 -10 1
-21 -2 -24z m4 -339 c0 -36 -17 -37 -23 -1 -3 17 -8 41 -12 52 -6 18 -4 17 14
-4 12 -13 21 -34 21 -47z m-49 -130 c12 -15 11 -16 -11 -9 -35 10 -49 25 -23
25 11 0 27 -7 34 -16z m2910 -31 c12 -21 46 -63 74 -93 65 -69 75 -88 118
-230 41 -133 51 -183 42 -210 -17 -53 -58 13 -74 118 -20 123 -29 152 -51 152
-10 0 -27 13 -37 30 -9 17 -21 30 -25 30 -4 0 -13 -19 -19 -42 -15 -55 3 -423
26 -518 9 -36 18 -90 21 -120 l6 -55 -45 -22 -45 -22 -6 127 c-3 70 -12 188
-18 262 -7 74 -13 205 -14 290 0 85 -4 197 -9 248 -8 89 -7 92 13 92 13 0 28
-14 43 -37z m-2721 11 c0 -8 -4 -12 -10 -9 -5 3 -10 10 -10 16 0 5 5 9 10 9 6
0 10 -7 10 -16z m-133 -98 c-3 -30 -19 -82 -36 -117 -22 -46 -32 -86 -37 -139
-4 -52 -20 -112 -50 -194 -25 -65 -48 -147 -53 -182 -11 -78 -15 -84 -51 -84
-39 0 -53 27 -56 110 -3 89 27 176 130 375 78 150 95 189 110 258 5 19 13 27
28 27 19 0 20 -4 15 -54z m333 -45 c0 -12 -20 -25 -27 -18 -7 7 6 27 18 27 5
0 9 -4 9 -9z m460 -79 c19 -9 50 -37 68 -62 33 -43 34 -44 13 -54 -15 -6 -32
-4 -58 7 -21 9 -69 26 -108 38 -69 21 -137 51 -164 73 -37 29 187 28 249 -2z
m-670 -238 c0 -148 -19 -274 -60 -406 -11 -35 -20 -75 -20 -90 0 -26 -2 -27
-32 -21 -43 8 -68 30 -68 60 0 13 13 54 29 92 47 110 86 271 111 455 11 80 14
88 26 71 10 -14 14 -56 14 -161z m-149 -61 c-9 -16 -10 -15 -11 8 0 14 3 29 8
33 12 12 14 -22 3 -41z m3178 -202 c-12 -31 -24 -58 -26 -60 -2 -3 -16 8 -33
24 -29 28 -29 28 -12 54 17 24 34 61 63 136 12 29 13 28 21 -34 8 -56 6 -72
-13 -120z m-3373 -348 c-11 -11 -19 6 -11 24 8 17 8 17 12 0 3 -10 2 -21 -1
-24z m124 17 c0 -15 -26 -23 -41 -14 -9 5 -7 10 7 15 27 11 34 10 34 -1z m195
-1 c11 -17 0 -20 -21 -4 -17 13 -17 14 -2 15 9 0 20 -5 23 -11z m-165 -279 c0
-5 -6 -10 -14 -10 -8 0 -18 5 -21 10 -3 6 3 10 14 10 12 0 21 -4 21 -10z
m2899 -54 c19 -19 58 -43 90 -55 62 -22 166 -106 302 -241 88 -88 129 -161
129 -230 0 -63 -29 -103 -115 -163 -38 -26 -82 -59 -96 -73 -35 -34 -65 -103
-84 -196 -9 -40 -25 -102 -37 -138 -30 -95 -147 -334 -229 -472 -40 -66 -85
-151 -100 -189 -41 -100 -47 -109 -74 -109 -28 0 -51 30 -92 120 -33 74 -68
107 -157 152 -35 17 -92 60 -132 99 -39 38 -84 73 -99 79 -15 6 -72 9 -126 8
-54 -2 -101 0 -104 4 -12 11 4 27 106 108 205 162 376 387 533 700 88 176 166
392 186 515 12 73 31 115 53 115 7 0 28 -15 46 -34z m-2639 -12 c0 -8 -4 -14
-10 -14 -5 0 -10 9 -10 21 0 11 5 17 10 14 6 -3 10 -13 10 -21z m-146 -136 c8
-13 35 -72 59 -133 52 -130 106 -239 193 -390 78 -136 106 -176 221 -312 50
-59 116 -137 145 -173 30 -36 98 -98 151 -138 108 -81 138 -122 121 -169 -12
-34 -57 -56 -178 -88 -144 -37 -250 -102 -441 -270 -92 -80 -125 -105 -141
-105 -17 0 -43 51 -85 170 -48 138 -225 486 -317 625 -80 120 -238 313 -306
373 -20 17 -36 36 -36 42 0 18 169 227 225 278 29 27 80 64 112 82 78 44 111
76 138 136 12 28 33 61 46 72 30 29 74 29 93 0z m-680 -293 c-6 -15 -35 -35
-50 -35 -4 0 3 11 16 25 26 28 42 33 34 10z m0 -334 c3 -5 -3 -20 -14 -32 -15
-19 -19 -21 -20 -7 0 37 21 61 34 39z m308 -363 c-14 -14 -17 -11 -26 27 l-7
30 22 -22 c18 -18 21 -25 11 -35z m-2 -73 c0 -8 -6 -15 -14 -15 -17 0 -28 14
-19 24 12 12 33 6 33 -9z m90 -53 c0 -13 -12 -22 -22 -16 -10 6 -1 24 13 24 5
0 9 -4 9 -8z m1353 -239 c4 -3 -2 -13 -14 -21 -23 -16 -34 -10 -26 13 7 15 28
20 40 8z m117 -18 c0 -2 -9 -9 -20 -15 -23 -12 -64 -4 -55 11 6 9 75 13 75 4z
m30 -116 c0 -11 -4 -17 -10 -14 -5 3 -10 13 -10 21 0 8 5 14 10 14 6 0 10 -9
10 -21z m606 -57 c20 -13 33 -49 45 -123 14 -93 32 -134 106 -245 116 -172
133 -226 133 -427 0 -74 8 -169 21 -250 19 -113 20 -137 9 -186 -12 -52 -135
-410 -145 -420 -8 -7 -23 46 -66 230 l-42 184 -3 243 c-4 314 -17 395 -125
746 -42 137 -46 165 -28 199 27 52 63 71 95 49z m290 -42 c112 -52 155 -97
220 -236 30 -62 54 -119 54 -128 0 -21 -62 -190 -96 -261 -26 -57 -27 -57 -40
-34 -19 34 -32 83 -44 169 -17 123 -36 173 -110 284 -84 127 -106 170 -116
220 l-7 39 29 -7 c16 -4 66 -25 110 -46z m-1267 -244 c10 -117 -3 -252 -39
-406 -22 -93 -34 -177 -40 -270 -6 -101 -14 -149 -30 -190 -31 -78 -40 -145
-41 -311 -1 -81 -5 -152 -9 -159 -13 -21 -30 23 -30 77 0 41 -6 57 -41 103
-41 55 -41 55 -33 115 5 33 8 86 7 118 -11 361 1 462 84 707 63 186 92 257
124 302 19 27 23 28 32 13 5 -9 12 -54 16 -99z m-249 -25 c-6 -32 -22 -91 -35
-131 -13 -40 -36 -118 -49 -174 -13 -55 -34 -123 -46 -151 l-22 -50 -43 86
c-56 111 -85 197 -85 253 0 41 5 51 53 101 29 30 89 77 137 105 99 58 107 54
90 -39z m-190 44 c10 -13 9 -15 -8 -15 -15 0 -20 5 -16 15 4 8 7 15 9 15 1 0
8 -7 15 -15z m-30 -657 c0 -10 -7 -18 -15 -18 -16 0 -19 17 -9 45 5 13 8 14
15 3 5 -7 9 -21 9 -30z m480 -349 c0 -5 -10 -9 -21 -9 -18 0 -19 2 -9 15 12
15 30 12 30 -6z m1260 -614 c-27 -33 -41 -5 -18 38 l11 22 10 -22 c7 -16 6
-27 -3 -38z m-1376 -271 c18 -7 12 -24 -10 -24 -8 0 -14 7 -14 15 0 17 2 18
24 9z"/>
<path d="M4164 6840 c-144 -22 -284 -94 -284 -147 0 -23 60 -82 96 -93 20 -7
127 -13 267 -14 249 -3 312 -12 389 -53 58 -32 79 -61 165 -237 l68 -139 6
-141 c4 -78 17 -195 28 -261 13 -73 25 -197 30 -316 5 -108 12 -202 15 -208
10 -16 -23 -14 -74 4 -97 34 -161 6 -164 -72 -1 -32 3 -39 28 -52 17 -7 49
-16 73 -19 46 -5 49 -8 134 -120 38 -51 43 -54 77 -50 21 3 45 8 54 12 13 6
22 -2 38 -34 30 -58 86 -117 123 -129 32 -11 166 -28 300 -38 52 -4 73 -2 93
11 34 23 64 74 64 110 0 32 -33 92 -59 105 -10 6 -110 6 -251 0 -237 -9 -272
-5 -240 25 8 7 40 22 70 31 30 10 65 24 76 32 13 8 32 11 48 7 30 -7 53 8 67
44 11 29 -8 78 -46 112 -23 22 -36 25 -111 27 -46 1 -89 5 -95 9 -8 5 -9 29
-3 88 5 45 8 113 7 151 -11 746 -11 743 -69 858 -28 56 -122 175 -205 258 -52
53 -66 60 -235 126 -284 112 -365 131 -480 113z"/>
<path d="M5810 6489 c-19 -5 -58 -11 -87 -13 -64 -6 -219 -78 -281 -131 -69
-60 -114 -173 -91 -232 36 -96 211 -173 395 -173 125 0 180 29 267 139 28 36
82 99 119 139 64 67 68 75 68 118 0 65 -41 105 -136 133 -81 23 -204 33 -254
20z m205 -120 c10 -15 -1 -22 -24 -14 -12 3 -19 11 -16 16 8 12 32 11 40 -2z
m-87 -41 c-9 -26 -91 -78 -153 -97 -69 -22 -215 -39 -215 -26 0 5 11 23 25 41
37 48 104 76 204 84 138 11 143 11 139 -2z"/>
<path d="M4750 4925 c-36 -8 -111 -18 -168 -23 -115 -11 -152 -28 -152 -68 0
-71 63 -124 209 -178 l99 -37 55 55 c39 39 66 58 98 66 81 20 114 36 126 60
20 39 -4 80 -66 112 -60 31 -98 34 -201 13z"/>
<path d="M4875 4643 c-104 -14 -196 -57 -220 -103 -13 -25 -12 -30 14 -71 48
-74 74 -92 141 -97 54 -4 65 -1 127 34 66 38 70 39 163 38 95 -1 174 -17 261
-50 25 -10 53 -15 62 -11 48 18 71 167 31 207 -35 36 -434 72 -579 53z"/>
<path d="M4975 4346 c-63 -27 -81 -86 -42 -132 25 -29 27 -29 118 -26 74 2 96
-1 110 -14 24 -21 71 -6 116 38 40 39 42 70 6 98 -23 18 -37 21 -83 17 -37 -3
-74 2 -115 14 -71 22 -71 22 -110 5z"/>
<path d="M5005 2616 c-156 -72 -165 -238 -24 -457 36 -56 69 -72 154 -73 80
-1 112 20 141 95 38 96 40 87 -35 202 -54 83 -71 119 -76 159 -9 60 -40 98
-82 98 -15 0 -51 -11 -78 -24z"/>
<path d="M4919 1591 c-62 -45 -93 -83 -107 -133 -21 -75 16 -129 99 -147 27
-6 87 -31 134 -56 95 -50 141 -57 170 -25 46 50 -22 225 -130 338 -73 75 -91
77 -166 23z"/>
</g>
</svg>
