<?xml version="1.0" encoding="utf-8"?>
<!-- Generator: Adobe Illustrator 23.0.0, SVG Export Plug-In . SVG Version: 6.00 Build 0)  -->
<svg version="1.1" id="Layer_1" xmlns="http://www.w3.org/2000/svg" xmlns:xlink="http://www.w3.org/1999/xlink" x="0px" y="0px"
	 viewBox="0 0 20 20" style="enable-background:new 0 0 20 20;" xml:space="preserve">
<style type="text/css">
	.st0{fill-rule:evenodd;clip-rule:evenodd;fill:#07AE79;}
	.st1{fill:#FFFFFF;}
	.st2{fill-rule:evenodd;clip-rule:evenodd;fill:#0788FC;}
	.st3{fill-rule:evenodd;clip-rule:evenodd;fill:#737373;}
	.st4{clip-path:url(#SVGID_2_);fill:#231F20;}
	.st5{clip-path:url(#SVGID_4_);enable-background:new    ;}
	.st6{clip-path:url(#SVGID_6_);}
	.st7{clip-path:url(#SVGID_8_);}
	.st8{clip-path:url(#SVGID_10_);fill:#231F20;}
	.st9{clip-path:url(#SVGID_12_);fill:#231F20;}
	.st10{clip-path:url(#SVGID_14_);enable-background:new    ;}
	.st11{clip-path:url(#SVGID_16_);}
	.st12{clip-path:url(#SVGID_18_);}
	.st13{clip-path:url(#SVGID_20_);fill:#231F20;}
	.st14{clip-path:url(#SVGID_22_);fill:none;stroke:#FFFFFF;stroke-miterlimit:10;}
</style>
<g>
	<defs>
		<path id="SVGID_13_" d="M1.1,0C0.49,0,0,0.49,0,1.1V18.9C0,19.51,0.49,20,1.1,20h9.58v-7.74H8.08V9.24h2.61V7.01
			c0-2.58,1.58-3.99,3.88-3.99c1.1,0,2.05,0.08,2.33,0.12v2.7l-1.6,0c-1.25,0-1.49,0.6-1.49,1.47v1.93h2.99l-0.39,3.02h-2.6V20h5.1
			c0.61,0,1.1-0.49,1.1-1.1V1.1C20,0.49,19.51,0,18.9,0H1.1z"/>
	</defs>
	<clipPath id="SVGID_2_">
		<use xlink:href="#SVGID_13_"  style="overflow:visible;"/>
	</clipPath>
	<g style="clip-path:url(#SVGID_2_);enable-background:new    ;">
		<g>
			<defs>
				<rect id="SVGID_15_" x="-10.5" y="-10.5" width="41" height="41"/>
			</defs>
			<clipPath id="SVGID_4_">
				<use xlink:href="#SVGID_15_"  style="overflow:visible;"/>
			</clipPath>
			<g style="clip-path:url(#SVGID_4_);">
				<defs>
					<rect id="SVGID_17_" x="-5" y="-5" width="30" height="30"/>
				</defs>
				<clipPath id="SVGID_6_">
					<use xlink:href="#SVGID_17_"  style="overflow:visible;"/>
				</clipPath>
				<g class="st6">
					<defs>
						<rect id="SVGID_19_" x="-0.5" y="-0.5" width="21" height="21"/>
					</defs>
					<clipPath id="SVGID_8_">
						<use xlink:href="#SVGID_19_"  style="overflow:visible;"/>
					</clipPath>
					<rect x="-10" y="-10" style="clip-path:url(#SVGID_8_);fill:#231F20;" width="40" height="40"/>
				</g>
			</g>
			<g style="clip-path:url(#SVGID_4_);">
				<defs>
					<rect id="SVGID_21_" x="-0.5" y="-0.5" width="21" height="21"/>
				</defs>
				<clipPath id="SVGID_10_">
					<use xlink:href="#SVGID_21_"  style="overflow:visible;"/>
				</clipPath>
				
					<rect x="-5" y="-5" style="clip-path:url(#SVGID_10_);fill:none;stroke:#FFFFFF;stroke-miterlimit:10;" width="30" height="30"/>
			</g>
		</g>
	</g>
</g>
</svg>
