<?xml version="1.0" encoding="utf-8"?>
<!-- Generator: Adobe Illustrator 23.0.0, SVG Export Plug-In . SVG Version: 6.00 Build 0)  -->
<svg version="1.1" xmlns="http://www.w3.org/2000/svg" xmlns:xlink="http://www.w3.org/1999/xlink" x="0px" y="0px"
	 viewBox="0 0 47.2 71.4" style="enable-background:new 0 0 47.2 71.4;" xml:space="preserve">
<style type="text/css">
	.st0{clip-path:url(#SVGID_2_);}
	.st1{clip-path:url(#SVGID_4_);fill:#26AD24;}
	.st2{fill:#FFFFFF;}
	.st3{fill:#07AE79;}
	.st4{fill:#979797;}
	.st5{fill:#FFFFFF;stroke:#000000;stroke-width:2;stroke-miterlimit:10;}
	.st6{clip-path:url(#SVGID_6_);}
	.st7{clip-path:url(#SVGID_8_);enable-background:new    ;}
	.st8{clip-path:url(#SVGID_10_);}
	.st9{clip-path:url(#SVGID_12_);}
	.st10{clip-path:url(#SVGID_14_);}
	.st11{clip-path:url(#SVGID_16_);}
	.st12{clip-path:url(#SVGID_18_);}
	.st13{clip-path:url(#SVGID_20_);}
	.st14{clip-path:url(#SVGID_22_);}
	.st15{clip-path:url(#SVGID_24_);}
	.st16{clip-path:url(#SVGID_26_);}
	.st17{clip-path:url(#SVGID_28_);}
	.st18{clip-path:url(#SVGID_30_);}
	.st19{clip-path:url(#SVGID_32_);}
	.st20{clip-path:url(#SVGID_34_);}
	.st21{clip-path:url(#SVGID_36_);}
	.st22{clip-path:url(#SVGID_38_);}
	.st23{clip-path:url(#SVGID_40_);}
	.st24{clip-path:url(#SVGID_42_);}
	.st25{clip-path:url(#SVGID_44_);}
	.st26{clip-path:url(#SVGID_46_);enable-background:new    ;}
	.st27{clip-path:url(#SVGID_48_);}
	.st28{clip-path:url(#SVGID_50_);}
	.st29{clip-path:url(#SVGID_52_);}
	.st30{clip-path:url(#SVGID_54_);}
	.st31{clip-path:url(#SVGID_56_);}
	.st32{clip-path:url(#SVGID_58_);}
	.st33{clip-path:url(#SVGID_60_);}
	.st34{clip-path:url(#SVGID_62_);}
	.st35{clip-path:url(#SVGID_64_);}
	.st36{clip-path:url(#SVGID_66_);}
	.st37{clip-path:url(#SVGID_68_);}
	.st38{clip-path:url(#SVGID_70_);}
	.st39{clip-path:url(#SVGID_72_);}
	.st40{clip-path:url(#SVGID_74_);}
	.st41{clip-path:url(#SVGID_76_);}
	.st42{clip-path:url(#SVGID_78_);}
	.st43{clip-path:url(#SVGID_80_);}
	.st44{clip-path:url(#SVGID_82_);}
	.st45{clip-path:url(#SVGID_84_);enable-background:new    ;}
	.st46{clip-path:url(#SVGID_86_);}
	.st47{clip-path:url(#SVGID_88_);}
	.st48{clip-path:url(#SVGID_90_);}
	.st49{clip-path:url(#SVGID_92_);}
	.st50{clip-path:url(#SVGID_94_);}
	.st51{clip-path:url(#SVGID_96_);}
	.st52{clip-path:url(#SVGID_98_);}
	.st53{clip-path:url(#SVGID_100_);}
	.st54{clip-path:url(#SVGID_102_);}
	.st55{clip-path:url(#SVGID_104_);}
	.st56{clip-path:url(#SVGID_106_);}
	.st57{clip-path:url(#SVGID_108_);}
	.st58{clip-path:url(#SVGID_110_);}
	.st59{clip-path:url(#SVGID_112_);}
	.st60{clip-path:url(#SVGID_114_);}
	.st61{clip-path:url(#SVGID_116_);}
	.st62{clip-path:url(#SVGID_118_);}
	.st63{clip-path:url(#SVGID_120_);}
	.st64{clip-path:url(#SVGID_122_);enable-background:new    ;}
	.st65{clip-path:url(#SVGID_124_);}
	.st66{clip-path:url(#SVGID_126_);}
	.st67{clip-path:url(#SVGID_128_);}
	.st68{clip-path:url(#SVGID_130_);}
	.st69{clip-path:url(#SVGID_132_);}
	.st70{clip-path:url(#SVGID_134_);}
	.st71{clip-path:url(#SVGID_136_);}
	.st72{clip-path:url(#SVGID_138_);}
	.st73{clip-path:url(#SVGID_140_);}
	.st74{clip-path:url(#SVGID_142_);}
	.st75{clip-path:url(#SVGID_144_);}
	.st76{clip-path:url(#SVGID_146_);}
	.st77{clip-path:url(#SVGID_148_);}
	.st78{clip-path:url(#SVGID_150_);}
	.st79{clip-path:url(#SVGID_152_);}
	.st80{clip-path:url(#SVGID_154_);}
	.st81{clip-path:url(#SVGID_156_);}
	.st82{fill:#D3D3D3;}
	.st83{fill:none;stroke:#0A9365;stroke-width:0.5;stroke-miterlimit:10;}
	.st84{fill:none;stroke:#BCBCBC;stroke-width:0.5;stroke-miterlimit:10;}
	.st85{clip-path:url(#SVGID_158_);}
	.st86{clip-path:url(#SVGID_160_);enable-background:new    ;}
	.st87{clip-path:url(#SVGID_162_);}
	.st88{clip-path:url(#SVGID_164_);}
	.st89{clip-path:url(#SVGID_166_);}
	.st90{clip-path:url(#SVGID_168_);}
	.st91{clip-path:url(#SVGID_170_);}
	.st92{clip-path:url(#SVGID_172_);}
	.st93{clip-path:url(#SVGID_174_);}
	.st94{clip-path:url(#SVGID_176_);}
	.st95{clip-path:url(#SVGID_178_);}
	.st96{clip-path:url(#SVGID_180_);}
	.st97{clip-path:url(#SVGID_182_);}
	.st98{clip-path:url(#SVGID_184_);}
	.st99{clip-path:url(#SVGID_186_);}
	.st100{clip-path:url(#SVGID_188_);}
	.st101{clip-path:url(#SVGID_190_);}
	.st102{clip-path:url(#SVGID_194_);}
	.st103{clip-path:url(#SVGID_199_);}
	.st104{fill-rule:evenodd;clip-rule:evenodd;fill:#FFFFFF;}
	.st105{clip-path:url(#SVGID_200_);}
	.st106{clip-path:url(#SVGID_202_);}
	.st107{clip-path:url(#SVGID_203_);}
	.st108{clip-path:url(#SVGID_204_);}
	.st109{clip-path:url(#SVGID_205_);}
	.st110{clip-path:url(#SVGID_206_);}
	.st111{clip-path:url(#SVGID_208_);}
	.st112{clip-path:url(#SVGID_210_);fill:#07AE79;}
	.st113{clip-path:url(#SVGID_212_);}
	.st114{clip-path:url(#SVGID_214_);fill:#0A9365;}
	.st115{clip-path:url(#SVGID_216_);}
	.st116{clip-path:url(#SVGID_218_);enable-background:new    ;}
	.st117{clip-path:url(#SVGID_220_);}
	.st118{clip-path:url(#SVGID_222_);}
	.st119{clip-path:url(#SVGID_224_);}
	.st120{clip-path:url(#SVGID_226_);}
	.st121{clip-path:url(#SVGID_228_);enable-background:new    ;}
	.st122{clip-path:url(#SVGID_230_);}
	.st123{clip-path:url(#SVGID_232_);}
	.st124{clip-path:url(#SVGID_234_);}
	.st125{clip-path:url(#SVGID_236_);}
	.st126{clip-path:url(#SVGID_238_);enable-background:new    ;}
	.st127{clip-path:url(#SVGID_240_);}
	.st128{clip-path:url(#SVGID_242_);}
	.st129{clip-path:url(#SVGID_244_);}
	.st130{clip-path:url(#SVGID_246_);}
	.st131{clip-path:url(#SVGID_248_);enable-background:new    ;}
	.st132{clip-path:url(#SVGID_250_);}
	.st133{clip-path:url(#SVGID_252_);}
	.st134{clip-path:url(#SVGID_254_);}
	.st135{clip-path:url(#SVGID_256_);}
	.st136{clip-path:url(#SVGID_258_);enable-background:new    ;}
	.st137{clip-path:url(#SVGID_260_);}
	.st138{clip-path:url(#SVGID_262_);}
	.st139{clip-path:url(#SVGID_264_);}
	.st140{clip-path:url(#SVGID_266_);}
	.st141{clip-path:url(#SVGID_268_);enable-background:new    ;}
	.st142{clip-path:url(#SVGID_270_);}
	.st143{clip-path:url(#SVGID_272_);}
	.st144{clip-path:url(#SVGID_274_);}
	.st145{clip-path:url(#SVGID_276_);}
	.st146{clip-path:url(#SVGID_278_);enable-background:new    ;}
	.st147{clip-path:url(#SVGID_280_);}
	.st148{clip-path:url(#SVGID_282_);}
	.st149{clip-path:url(#SVGID_284_);}
	.st150{clip-path:url(#SVGID_286_);}
	.st151{clip-path:url(#SVGID_288_);enable-background:new    ;}
	.st152{clip-path:url(#SVGID_290_);}
	.st153{clip-path:url(#SVGID_292_);}
	.st154{clip-path:url(#SVGID_294_);}
	.st155{fill:#FFFFFF;stroke:#000000;stroke-miterlimit:10;}
	.st156{clip-path:url(#SVGID_296_);}
	.st157{clip-path:url(#SVGID_298_);enable-background:new    ;}
	.st158{clip-path:url(#SVGID_300_);}
	.st159{clip-path:url(#SVGID_302_);}
	.st160{clip-path:url(#SVGID_304_);}
	.st161{clip-path:url(#SVGID_306_);}
	.st162{clip-path:url(#SVGID_308_);}
	.st163{clip-path:url(#SVGID_310_);}
	.st164{clip-path:url(#SVGID_312_);}
	.st165{clip-path:url(#SVGID_314_);}
	.st166{clip-path:url(#SVGID_316_);}
	.st167{clip-path:url(#SVGID_318_);}
	.st168{clip-path:url(#SVGID_320_);}
	.st169{clip-path:url(#SVGID_322_);}
	.st170{clip-path:url(#SVGID_324_);}
	.st171{clip-path:url(#SVGID_326_);}
	.st172{clip-path:url(#SVGID_328_);}
	.st173{clip-path:url(#SVGID_330_);}
	.st174{clip-path:url(#SVGID_332_);}
	.st175{fill:#0A9365;}
	.st176{clip-path:url(#SVGID_334_);}
	.st177{clip-path:url(#SVGID_336_);enable-background:new    ;}
	.st178{clip-path:url(#SVGID_338_);}
	.st179{clip-path:url(#SVGID_340_);}
	.st180{clip-path:url(#SVGID_342_);}
	.st181{clip-path:url(#SVGID_344_);}
	.st182{clip-path:url(#SVGID_346_);}
	.st183{clip-path:url(#SVGID_348_);}
	.st184{clip-path:url(#SVGID_350_);}
	.st185{clip-path:url(#SVGID_352_);}
	.st186{clip-path:url(#SVGID_354_);}
	.st187{clip-path:url(#SVGID_356_);}
	.st188{clip-path:url(#SVGID_358_);}
	.st189{clip-path:url(#SVGID_360_);}
	.st190{clip-path:url(#SVGID_362_);}
	.st191{clip-path:url(#SVGID_364_);}
	.st192{clip-path:url(#SVGID_366_);}
	.st193{clip-path:url(#SVGID_368_);}
	.st194{clip-path:url(#SVGID_370_);}
	.st195{clip-path:url(#SVGID_372_);}
	.st196{clip-path:url(#SVGID_374_);fill:#FFFFFF;}
	.st197{clip-path:url(#SVGID_376_);}
	.st198{clip-path:url(#SVGID_378_);fill:#979797;}
	.st199{clip-path:url(#SVGID_380_);}
	.st200{clip-path:url(#SVGID_382_);fill:#FFFFFF;}
	.st201{clip-path:url(#SVGID_384_);}
	.st202{clip-path:url(#SVGID_386_);fill:#07AE79;}
	.st203{clip-path:url(#SVGID_390_);}
	.st204{clip-path:url(#SVGID_392_);enable-background:new    ;}
	.st205{clip-path:url(#SVGID_394_);}
	.st206{clip-path:url(#SVGID_396_);}
	.st207{clip-path:url(#SVGID_398_);}
	.st208{clip-path:url(#SVGID_400_);}
	.st209{clip-path:url(#SVGID_402_);enable-background:new    ;}
	.st210{clip-path:url(#SVGID_404_);}
	.st211{clip-path:url(#SVGID_406_);}
	.st212{clip-path:url(#SVGID_408_);}
	.st213{clip-path:url(#SVGID_410_);}
	.st214{clip-path:url(#SVGID_412_);enable-background:new    ;}
	.st215{clip-path:url(#SVGID_414_);}
	.st216{clip-path:url(#SVGID_416_);}
	.st217{clip-path:url(#SVGID_418_);}
	.st218{clip-path:url(#SVGID_420_);}
	.st219{clip-path:url(#SVGID_422_);enable-background:new    ;}
	.st220{clip-path:url(#SVGID_424_);}
	.st221{clip-path:url(#SVGID_426_);}
	.st222{clip-path:url(#SVGID_428_);}
	.st223{clip-path:url(#SVGID_430_);}
	.st224{clip-path:url(#SVGID_432_);enable-background:new    ;}
	.st225{clip-path:url(#SVGID_434_);}
	.st226{clip-path:url(#SVGID_436_);}
	.st227{clip-path:url(#SVGID_438_);}
	.st228{clip-path:url(#SVGID_440_);}
	.st229{clip-path:url(#SVGID_442_);enable-background:new    ;}
	.st230{clip-path:url(#SVGID_444_);}
	.st231{clip-path:url(#SVGID_446_);}
	.st232{clip-path:url(#SVGID_448_);}
	.st233{clip-path:url(#SVGID_450_);}
	.st234{clip-path:url(#SVGID_452_);enable-background:new    ;}
	.st235{clip-path:url(#SVGID_454_);}
	.st236{clip-path:url(#SVGID_456_);}
	.st237{clip-path:url(#SVGID_458_);}
	.st238{clip-path:url(#SVGID_460_);}
	.st239{clip-path:url(#SVGID_462_);enable-background:new    ;}
	.st240{clip-path:url(#SVGID_464_);}
	.st241{clip-path:url(#SVGID_466_);}
	.st242{clip-path:url(#SVGID_468_);}
	.st243{clip-path:url(#SVGID_472_);}
	.st244{clip-path:url(#SVGID_474_);enable-background:new    ;}
	.st245{clip-path:url(#SVGID_476_);}
	.st246{clip-path:url(#SVGID_478_);}
	.st247{clip-path:url(#SVGID_480_);}
	.st248{clip-path:url(#SVGID_482_);}
	.st249{clip-path:url(#SVGID_484_);}
	.st250{clip-path:url(#SVGID_486_);}
	.st251{clip-path:url(#SVGID_488_);}
	.st252{clip-path:url(#SVGID_490_);}
	.st253{clip-path:url(#SVGID_492_);}
	.st254{clip-path:url(#SVGID_494_);}
	.st255{clip-path:url(#SVGID_496_);}
	.st256{clip-path:url(#SVGID_498_);}
	.st257{clip-path:url(#SVGID_500_);}
	.st258{clip-path:url(#SVGID_502_);}
	.st259{clip-path:url(#SVGID_504_);}
	.st260{clip-path:url(#SVGID_506_);}
	.st261{clip-path:url(#SVGID_508_);}
	.st262{clip-path:url(#SVGID_510_);}
	.st263{clip-path:url(#SVGID_512_);enable-background:new    ;}
	.st264{clip-path:url(#SVGID_514_);}
	.st265{clip-path:url(#SVGID_516_);}
	.st266{clip-path:url(#SVGID_518_);}
	.st267{clip-path:url(#SVGID_520_);}
	.st268{clip-path:url(#SVGID_522_);}
	.st269{clip-path:url(#SVGID_524_);}
	.st270{clip-path:url(#SVGID_526_);}
	.st271{clip-path:url(#SVGID_528_);}
	.st272{clip-path:url(#SVGID_530_);}
	.st273{clip-path:url(#SVGID_532_);}
	.st274{clip-path:url(#SVGID_534_);}
	.st275{clip-path:url(#SVGID_536_);}
	.st276{clip-path:url(#SVGID_538_);}
	.st277{clip-path:url(#SVGID_540_);}
	.st278{clip-path:url(#SVGID_542_);}
	.st279{clip-path:url(#SVGID_544_);}
	.st280{clip-path:url(#SVGID_546_);}
	.st281{fill:#FFFFFF;stroke:#979797;stroke-width:0.25;stroke-miterlimit:10;}
	.st282{clip-path:url(#SVGID_548_);}
	.st283{clip-path:url(#SVGID_550_);enable-background:new    ;}
	.st284{clip-path:url(#SVGID_552_);}
	.st285{clip-path:url(#SVGID_554_);}
	.st286{clip-path:url(#SVGID_556_);}
	.st287{clip-path:url(#SVGID_558_);}
	.st288{clip-path:url(#SVGID_560_);}
	.st289{clip-path:url(#SVGID_562_);}
	.st290{clip-path:url(#SVGID_564_);}
	.st291{clip-path:url(#SVGID_566_);}
	.st292{clip-path:url(#SVGID_568_);}
	.st293{clip-path:url(#SVGID_570_);}
	.st294{clip-path:url(#SVGID_572_);}
	.st295{clip-path:url(#SVGID_574_);}
	.st296{clip-path:url(#SVGID_576_);}
	.st297{clip-path:url(#SVGID_578_);}
	.st298{clip-path:url(#SVGID_580_);}
	.st299{clip-path:url(#SVGID_582_);}
	.st300{clip-path:url(#SVGID_584_);}
	.st301{clip-path:url(#SVGID_586_);}
	.st302{clip-path:url(#SVGID_588_);enable-background:new    ;}
	.st303{clip-path:url(#SVGID_590_);}
	.st304{clip-path:url(#SVGID_592_);}
	.st305{clip-path:url(#SVGID_594_);}
	.st306{clip-path:url(#SVGID_596_);}
	.st307{clip-path:url(#SVGID_598_);}
	.st308{clip-path:url(#SVGID_600_);}
	.st309{clip-path:url(#SVGID_602_);}
	.st310{clip-path:url(#SVGID_604_);}
	.st311{clip-path:url(#SVGID_606_);}
	.st312{clip-path:url(#SVGID_608_);}
	.st313{clip-path:url(#SVGID_610_);}
	.st314{clip-path:url(#SVGID_612_);}
	.st315{clip-path:url(#SVGID_614_);}
	.st316{clip-path:url(#SVGID_616_);}
	.st317{clip-path:url(#SVGID_618_);}
	.st318{clip-path:url(#SVGID_620_);}
	.st319{clip-path:url(#SVGID_622_);}
	.st320{clip-path:url(#SVGID_624_);}
	.st321{clip-path:url(#SVGID_626_);enable-background:new    ;}
	.st322{clip-path:url(#SVGID_628_);}
	.st323{clip-path:url(#SVGID_630_);}
	.st324{clip-path:url(#SVGID_632_);}
	.st325{clip-path:url(#SVGID_634_);}
	.st326{clip-path:url(#SVGID_636_);}
	.st327{clip-path:url(#SVGID_638_);}
	.st328{clip-path:url(#SVGID_640_);}
	.st329{clip-path:url(#SVGID_642_);}
	.st330{clip-path:url(#SVGID_644_);}
	.st331{clip-path:url(#SVGID_646_);}
	.st332{clip-path:url(#SVGID_648_);}
	.st333{clip-path:url(#SVGID_650_);}
	.st334{clip-path:url(#SVGID_652_);}
	.st335{clip-path:url(#SVGID_654_);}
	.st336{clip-path:url(#SVGID_656_);}
	.st337{clip-path:url(#SVGID_658_);}
	.st338{clip-path:url(#SVGID_660_);}
	.st339{clip-path:url(#SVGID_662_);}
	.st340{clip-path:url(#SVGID_664_);enable-background:new    ;}
	.st341{clip-path:url(#SVGID_666_);}
	.st342{clip-path:url(#SVGID_668_);}
	.st343{clip-path:url(#SVGID_670_);}
	.st344{clip-path:url(#SVGID_672_);}
	.st345{clip-path:url(#SVGID_674_);}
	.st346{clip-path:url(#SVGID_676_);}
	.st347{clip-path:url(#SVGID_678_);}
	.st348{clip-path:url(#SVGID_680_);}
	.st349{clip-path:url(#SVGID_682_);}
	.st350{clip-path:url(#SVGID_684_);}
	.st351{clip-path:url(#SVGID_686_);}
	.st352{clip-path:url(#SVGID_688_);}
	.st353{clip-path:url(#SVGID_690_);}
	.st354{clip-path:url(#SVGID_692_);}
	.st355{clip-path:url(#SVGID_694_);}
	.st356{clip-path:url(#SVGID_696_);}
	.st357{clip-path:url(#SVGID_698_);}
	.st358{clip-path:url(#SVGID_700_);}
	.st359{clip-path:url(#SVGID_702_);enable-background:new    ;}
	.st360{clip-path:url(#SVGID_704_);}
	.st361{clip-path:url(#SVGID_706_);}
	.st362{clip-path:url(#SVGID_708_);}
	.st363{clip-path:url(#SVGID_710_);}
	.st364{clip-path:url(#SVGID_712_);}
	.st365{clip-path:url(#SVGID_714_);}
	.st366{clip-path:url(#SVGID_716_);}
	.st367{clip-path:url(#SVGID_718_);}
	.st368{clip-path:url(#SVGID_720_);}
	.st369{clip-path:url(#SVGID_722_);}
	.st370{clip-path:url(#SVGID_724_);}
	.st371{clip-path:url(#SVGID_726_);}
	.st372{clip-path:url(#SVGID_728_);}
	.st373{clip-path:url(#SVGID_730_);}
	.st374{clip-path:url(#SVGID_732_);}
	.st375{clip-path:url(#SVGID_734_);}
	.st376{clip-path:url(#SVGID_736_);}
	.st377{clip-path:url(#SVGID_738_);}
	.st378{clip-path:url(#SVGID_740_);enable-background:new    ;}
	.st379{clip-path:url(#SVGID_742_);}
	.st380{clip-path:url(#SVGID_744_);}
	.st381{clip-path:url(#SVGID_746_);}
	.st382{clip-path:url(#SVGID_748_);}
	.st383{clip-path:url(#SVGID_750_);}
	.st384{clip-path:url(#SVGID_752_);}
	.st385{clip-path:url(#SVGID_754_);}
	.st386{clip-path:url(#SVGID_756_);}
	.st387{clip-path:url(#SVGID_758_);}
	.st388{clip-path:url(#SVGID_760_);}
	.st389{clip-path:url(#SVGID_762_);}
	.st390{clip-path:url(#SVGID_764_);}
	.st391{clip-path:url(#SVGID_766_);}
	.st392{clip-path:url(#SVGID_768_);}
	.st393{clip-path:url(#SVGID_770_);}
	.st394{clip-path:url(#SVGID_772_);}
	.st395{clip-path:url(#SVGID_774_);}
	.st396{clip-path:url(#SVGID_776_);}
	.st397{clip-path:url(#SVGID_778_);enable-background:new    ;}
	.st398{clip-path:url(#SVGID_780_);}
	.st399{clip-path:url(#SVGID_782_);}
	.st400{clip-path:url(#SVGID_784_);}
	.st401{clip-path:url(#SVGID_786_);}
	.st402{clip-path:url(#SVGID_788_);}
	.st403{clip-path:url(#SVGID_790_);}
	.st404{clip-path:url(#SVGID_792_);}
	.st405{clip-path:url(#SVGID_794_);}
	.st406{clip-path:url(#SVGID_796_);}
	.st407{clip-path:url(#SVGID_798_);}
	.st408{clip-path:url(#SVGID_800_);}
	.st409{clip-path:url(#SVGID_802_);}
	.st410{clip-path:url(#SVGID_804_);}
	.st411{clip-path:url(#SVGID_806_);}
	.st412{clip-path:url(#SVGID_808_);}
	.st413{clip-path:url(#SVGID_810_);}
	.st414{clip-path:url(#SVGID_812_);}
	.st415{clip-path:url(#SVGID_814_);}
	.st416{clip-path:url(#SVGID_816_);enable-background:new    ;}
	.st417{clip-path:url(#SVGID_818_);}
	.st418{clip-path:url(#SVGID_820_);}
	.st419{clip-path:url(#SVGID_822_);}
	.st420{clip-path:url(#SVGID_824_);}
	.st421{clip-path:url(#SVGID_826_);}
	.st422{clip-path:url(#SVGID_828_);}
	.st423{clip-path:url(#SVGID_830_);}
	.st424{clip-path:url(#SVGID_832_);}
	.st425{clip-path:url(#SVGID_834_);}
	.st426{clip-path:url(#SVGID_836_);}
	.st427{clip-path:url(#SVGID_838_);}
	.st428{clip-path:url(#SVGID_840_);}
	.st429{clip-path:url(#SVGID_842_);}
	.st430{clip-path:url(#SVGID_844_);}
	.st431{clip-path:url(#SVGID_846_);}
	.st432{clip-path:url(#SVGID_848_);}
	.st433{clip-path:url(#SVGID_850_);}
	.st434{clip-path:url(#SVGID_852_);}
	.st435{clip-path:url(#SVGID_854_);enable-background:new    ;}
	.st436{clip-path:url(#SVGID_856_);}
	.st437{clip-path:url(#SVGID_858_);}
	.st438{clip-path:url(#SVGID_860_);}
	.st439{clip-path:url(#SVGID_862_);}
	.st440{clip-path:url(#SVGID_864_);}
	.st441{clip-path:url(#SVGID_866_);}
	.st442{clip-path:url(#SVGID_868_);}
	.st443{clip-path:url(#SVGID_870_);}
	.st444{clip-path:url(#SVGID_872_);}
	.st445{clip-path:url(#SVGID_874_);}
	.st446{clip-path:url(#SVGID_876_);}
	.st447{clip-path:url(#SVGID_878_);}
	.st448{clip-path:url(#SVGID_880_);}
	.st449{clip-path:url(#SVGID_882_);}
	.st450{clip-path:url(#SVGID_884_);}
	.st451{clip-path:url(#SVGID_886_);}
	.st452{clip-path:url(#SVGID_888_);}
	.st453{clip-path:url(#SVGID_890_);}
	.st454{clip-path:url(#SVGID_892_);enable-background:new    ;}
	.st455{clip-path:url(#SVGID_894_);}
	.st456{clip-path:url(#SVGID_896_);}
	.st457{clip-path:url(#SVGID_898_);}
	.st458{clip-path:url(#SVGID_900_);}
	.st459{clip-path:url(#SVGID_902_);}
	.st460{clip-path:url(#SVGID_904_);}
	.st461{clip-path:url(#SVGID_906_);}
	.st462{clip-path:url(#SVGID_908_);}
	.st463{clip-path:url(#SVGID_910_);}
	.st464{clip-path:url(#SVGID_912_);}
	.st465{clip-path:url(#SVGID_914_);}
	.st466{clip-path:url(#SVGID_916_);}
	.st467{clip-path:url(#SVGID_918_);}
	.st468{clip-path:url(#SVGID_920_);}
	.st469{clip-path:url(#SVGID_922_);}
	.st470{clip-path:url(#SVGID_924_);}
	.st471{clip-path:url(#SVGID_926_);}
	.st472{clip-path:url(#SVGID_928_);}
	.st473{clip-path:url(#SVGID_930_);enable-background:new    ;}
	.st474{clip-path:url(#SVGID_932_);}
	.st475{clip-path:url(#SVGID_934_);}
	.st476{clip-path:url(#SVGID_936_);}
	.st477{clip-path:url(#SVGID_938_);}
	.st478{clip-path:url(#SVGID_940_);}
	.st479{clip-path:url(#SVGID_942_);}
	.st480{clip-path:url(#SVGID_944_);}
	.st481{clip-path:url(#SVGID_946_);}
	.st482{clip-path:url(#SVGID_948_);}
	.st483{clip-path:url(#SVGID_950_);}
	.st484{clip-path:url(#SVGID_952_);}
	.st485{clip-path:url(#SVGID_954_);}
	.st486{clip-path:url(#SVGID_956_);}
	.st487{clip-path:url(#SVGID_958_);}
	.st488{clip-path:url(#SVGID_960_);}
	.st489{clip-path:url(#SVGID_962_);}
	.st490{clip-path:url(#SVGID_964_);}
	.st491{fill-rule:evenodd;clip-rule:evenodd;fill:none;}
	.st492{fill:none;stroke:#000000;stroke-width:0.5;stroke-miterlimit:10;}
	.st493{fill:none;stroke:#000000;stroke-width:2;stroke-miterlimit:10;}
	.st494{clip-path:url(#SVGID_966_);}
	.st495{clip-path:url(#SVGID_968_);fill:#FFFFFF;stroke:#979797;stroke-width:0.25;stroke-miterlimit:10;}
	.st496{fill:none;stroke:#979797;stroke-width:0.25;stroke-miterlimit:10;}
	.st497{clip-path:url(#SVGID_970_);}
	.st498{clip-path:url(#SVGID_972_);fill:#949494;}
	.st499{clip-path:url(#SVGID_974_);}
	.st500{clip-path:url(#SVGID_976_);fill:#949494;}
	.st501{clip-path:url(#SVGID_978_);}
	.st502{clip-path:url(#SVGID_980_);fill:#949494;}
	.st503{clip-path:url(#SVGID_982_);}
	.st504{clip-path:url(#SVGID_984_);fill:#949494;}
	.st505{clip-path:url(#SVGID_986_);}
	.st506{clip-path:url(#SVGID_988_);fill:#08A674;}
	.st507{fill:#FFFFFF;stroke:#07AE79;stroke-width:2;stroke-miterlimit:10;}
	.st508{clip-path:url(#SVGID_990_);}
	.st509{clip-path:url(#SVGID_992_);fill:#FFFFFF;}
	.st510{clip-path:url(#SVGID_994_);}
	.st511{clip-path:url(#SVGID_996_);fill:#979797;}
	.st512{clip-path:url(#SVGID_1000_);}
	.st513{clip-path:url(#SVGID_1002_);fill:#FFFFFF;}
	.st514{clip-path:url(#SVGID_1004_);}
	.st515{clip-path:url(#SVGID_1006_);fill:#07AE79;}
	.st516{fill:none;}
	.st517{clip-path:url(#SVGID_1010_);}
	.st518{clip-path:url(#SVGID_1012_);fill:#FFFFFF;stroke:#000000;stroke-width:2;stroke-miterlimit:10;}
	.st519{clip-path:url(#SVGID_1014_);}
	.st520{clip-path:url(#SVGID_1016_);enable-background:new    ;}
	.st521{clip-path:url(#SVGID_1018_);}
	.st522{clip-path:url(#SVGID_1020_);}
	.st523{clip-path:url(#SVGID_1022_);}
	.st524{clip-path:url(#SVGID_1024_);}
	.st525{clip-path:url(#SVGID_1026_);enable-background:new    ;}
	.st526{clip-path:url(#SVGID_1028_);}
	.st527{clip-path:url(#SVGID_1030_);}
	.st528{clip-path:url(#SVGID_1032_);}
	.st529{clip-path:url(#SVGID_1034_);}
	.st530{clip-path:url(#SVGID_1036_);enable-background:new    ;}
	.st531{clip-path:url(#SVGID_1038_);}
	.st532{clip-path:url(#SVGID_1040_);}
	.st533{clip-path:url(#SVGID_1042_);}
	.st534{clip-path:url(#SVGID_1044_);}
	.st535{clip-path:url(#SVGID_1046_);enable-background:new    ;}
	.st536{clip-path:url(#SVGID_1048_);}
	.st537{clip-path:url(#SVGID_1050_);}
	.st538{clip-path:url(#SVGID_1052_);}
	.st539{clip-path:url(#SVGID_1054_);}
	.st540{clip-path:url(#SVGID_1056_);enable-background:new    ;}
	.st541{clip-path:url(#SVGID_1058_);}
	.st542{clip-path:url(#SVGID_1060_);}
	.st543{clip-path:url(#SVGID_1062_);}
	.st544{clip-path:url(#SVGID_1064_);}
	.st545{clip-path:url(#SVGID_1066_);enable-background:new    ;}
	.st546{clip-path:url(#SVGID_1068_);}
	.st547{clip-path:url(#SVGID_1070_);}
	.st548{clip-path:url(#SVGID_1072_);}
	.st549{clip-path:url(#SVGID_1074_);}
	.st550{clip-path:url(#SVGID_1076_);enable-background:new    ;}
	.st551{clip-path:url(#SVGID_1078_);}
	.st552{clip-path:url(#SVGID_1080_);}
	.st553{clip-path:url(#SVGID_1082_);}
	.st554{clip-path:url(#SVGID_1084_);}
	.st555{clip-path:url(#SVGID_1086_);enable-background:new    ;}
	.st556{clip-path:url(#SVGID_1088_);}
	.st557{clip-path:url(#SVGID_1090_);}
	.st558{clip-path:url(#SVGID_1092_);}
	.st559{clip-path:url(#SVGID_1094_);}
	.st560{clip-path:url(#SVGID_1096_);enable-background:new    ;}
	.st561{clip-path:url(#SVGID_1098_);}
	.st562{clip-path:url(#SVGID_1100_);}
	.st563{opacity:0.33;clip-path:url(#SVGID_1102_);}
	.st564{fill:none;stroke:#36892F;stroke-miterlimit:10;}
	.st565{clip-path:url(#SVGID_1104_);}
	.st566{clip-path:url(#SVGID_1106_);fill:#26AD24;}
	.st567{opacity:0.33;}
	.st568{clip-path:url(#SVGID_1108_);}
	.st569{clip-path:url(#SVGID_1110_);}
</style>
<g id="Layer_1">
</g>
<g id="Layer_2">
	<g>
		<defs>
			<path id="SVGID_1_" d="M96.2,23.9C97.5,11.3,85.9,1,73.3,1c-12.7,0-23.7,9.6-22.9,22.9c0.4,6.1,2.9,9.5,6.3,15.8L73,71.4
				l15.6-29.7C92.5,35.1,95.5,30.5,96.2,23.9"/>
		</defs>
		<clipPath id="SVGID_2_">
			<use xlink:href="#SVGID_1_"  style="overflow:visible;"/>
		</clipPath>
		<g class="st0">
			<defs>
				<rect id="SVGID_3_" x="50.3" y="1" width="46" height="71"/>
			</defs>
			<clipPath id="SVGID_4_">
				<use xlink:href="#SVGID_3_"  style="overflow:visible;"/>
			</clipPath>
			<rect x="45.3" y="-4" class="st1" width="55.9" height="80.3"/>
		</g>
	</g>
	<rect x="-427" y="-1138.9" class="st516" width="1024" height="1789"/>
	<g>
		<g>
			<defs>
				<path id="SVGID_1009_" d="M151.1,29.5c0,12.6-10.2,22.7-22.7,22.7S105.7,42,105.7,29.5c0-12.6,10.2-22.7,22.7-22.7
					S151.1,16.9,151.1,29.5"/>
			</defs>
			<use xlink:href="#SVGID_1009_"  style="overflow:visible;fill:#FFFFFF;"/>
			<clipPath id="SVGID_6_">
				<use xlink:href="#SVGID_1009_"  style="overflow:visible;"/>
			</clipPath>
			<g class="st6">
				<defs>
					<rect id="SVGID_1011_" x="-497.9" y="-1138.9" width="1024" height="1789"/>
				</defs>
				<use xlink:href="#SVGID_1011_"  style="overflow:visible;fill:#FFFFFF;"/>
				<clipPath id="SVGID_8_">
					<use xlink:href="#SVGID_1011_"  style="overflow:visible;"/>
				</clipPath>
				<use xlink:href="#SVGID_1011_"  style="overflow:visible;fill:none;stroke:#000000;stroke-width:2;stroke-miterlimit:10;"/>
			</g>
			<use xlink:href="#SVGID_1009_"  style="overflow:visible;fill:none;stroke:#000000;stroke-width:2;stroke-miterlimit:10;"/>
		</g>
		<g>
			<g>
				<defs>
					<path id="SVGID_1013_" d="M125.1,48.4c0.1,0.1,0.2,0.1,0.3,0.1c-0.1,0-0.2,0.1-0.3,0.1V48.4z M132.3,46.8
						c0.1,0.2,0.1,0.3-0.1,0.4C132.1,47.1,132.2,47,132.3,46.8z M125.6,44.1c0.1-0.1,0.1-0.1,0.2-0.2c0,0,0,0,0,0
						c0,0.1,0,0.1-0.1,0.2C125.7,44.1,125.7,44.1,125.6,44.1z M123.2,42.4c0-0.1,0-0.2,0-0.4c0.1,0.1,0.2,0.2,0.1,0.4
						C123.3,42.4,123.3,42.4,123.2,42.4z M132.9,41.8C132.9,41.8,132.9,41.8,132.9,41.8c0.1,0.1,0.1,0.1,0.1,0.2l0.1,0
						c-0.1,0-0.1,0.1-0.2,0.1C132.9,42,132.9,41.9,132.9,41.8z M123.5,38.9c0.1,0.1,0.1,0.1,0.2,0.2h-0.3
						C123.4,39,123.5,39,123.5,38.9z M123.6,41.5c0-0.2-0.1-0.4-0.3-0.6c-0.1-0.1-0.1-0.2-0.1-0.3c0-0.1-0.1-0.2-0.1-0.3
						c0-0.1-0.1-0.2-0.1-0.4c0-0.1,0.1-0.2,0.2-0.3c0.3-0.2,0.6-0.5,1-0.7c0.1-0.1,0.2-0.1,0.4-0.2c0,0.1,0,0.1,0,0.2
						c0,0.3-0.1,0.5-0.2,0.8c-0.1,0.2-0.2,0.4-0.2,0.6c0,0.1,0,0.2-0.1,0.2c-0.1,0.4-0.3,0.7-0.3,1.1c0,0,0,0.1-0.1,0.2
						C123.7,41.7,123.6,41.6,123.6,41.5z M124.9,45.5c0.1-0.1,0-0.3-0.1-0.3c-0.2-0.1-0.3-0.4-0.3-0.6c0,0,0-0.1,0-0.1
						c0.1-0.2,0.1-0.4,0.1-0.6c0-0.1,0-0.2,0-0.3c-0.1-0.3-0.2-0.6-0.1-0.9c0.1-0.2,0-0.4,0-0.6c0-0.2,0.1-0.3,0.1-0.5
						c0-0.1,0.1-0.3,0.1-0.4c0-0.3,0.1-0.6,0.2-0.9c0-0.1,0.1-0.2,0.2-0.3c-0.1-0.2,0-0.3,0.1-0.5c0.1-0.1,0.2-0.2,0.2-0.3
						c0-0.2,0.1-0.4,0.3-0.5c0,0.1,0.1,0.1,0.1,0.2c0,0.2,0,0.4,0,0.5c0,0.3,0,0.5,0,0.8c0,0.3,0,0.6-0.2,0.9
						c-0.1,0.1-0.1,0.3-0.1,0.5c0,0.3,0,0.5-0.1,0.8c-0.1,0.2,0,0.5,0,0.8c0,0.1,0,0.2-0.1,0.3c-0.2,0.2-0.2,0.5-0.2,0.8
						c0,0.3,0,0.5,0,0.8c0,0.1,0,0.2-0.1,0.3c0.1,0.2,0.1,0.4,0,0.6C124.8,45.7,124.8,45.6,124.9,45.5z M132.8,40.5
						c0.1-0.3-0.1-0.6-0.1-0.9c0-0.1-0.1-0.1-0.1-0.2c-0.1-0.1-0.1-0.2-0.1-0.3c-0.1-0.1-0.1-0.2-0.2-0.3c-0.2-0.2-0.3-0.4-0.5-0.6
						c-0.1-0.1-0.1-0.3-0.2-0.4c0-0.1,0-0.2,0-0.3c0.3,0.1,0.7,0.2,1,0.4c0.1,0,0.2,0.1,0.3,0.2c0.2,0.2,0.4,0.4,0.5,0.6
						c0.2,0.3,0.4,0.6,0.4,0.9c0,0,0,0.1,0,0.1l0,0c-0.1,0.1-0.1,0.3-0.2,0.4c0,0.1-0.1,0.2-0.2,0.3c-0.1,0.2-0.1,0.4-0.2,0.5
						c0,0.1-0.1,0.1-0.1,0.2C132.9,41.1,133,40.8,132.8,40.5z M131.6,45.7c-0.1-0.3-0.1-0.7-0.2-1c0,0,0-0.1,0-0.1
						c-0.2-0.4-0.2-0.9-0.2-1.3c0-0.2,0-0.4,0-0.5c0-0.4,0-0.7,0-1.1c0-0.3,0-0.7-0.1-1c0-0.1-0.1-0.2-0.1-0.4
						c-0.1-0.5-0.3-1-0.5-1.5c-0.1-0.2-0.1-0.4-0.2-0.6c0-0.2,0.1-0.4,0.4-0.6c0.3,0,0.3,0.1,0.3,0.3c0.1,0.4,0.1,0.7,0.3,1.1
						c0.1,0.1,0.1,0.2,0.2,0.3c0.1,0.1,0.2,0.3,0.3,0.4c0.2,0.3,0.3,0.6,0.5,0.8c0,0.1,0,0.2,0,0.3c0,0.1,0,0.3,0,0.4
						c0,0.1,0,0.1,0,0.2c0,0.4-0.1,0.7,0,1c0,0.1,0,0.2,0,0.2c0,0.4,0.1,0.7,0.1,1.1c0,0.1,0,0.2-0.1,0.2c-0.2,0.3-0.3,0.7-0.4,1
						c-0.1,0.3-0.2,0.6-0.2,0.9c0,0.1,0,0.1-0.1,0.2c0,0,0,0-0.1,0C131.6,45.9,131.6,45.8,131.6,45.7z M127.6,37.4
						c0-0.1,0.1-0.1,0.1-0.2c0,0.1,0,0.2,0.1,0.4C127.7,37.5,127.6,37.4,127.6,37.4z M127.2,36.9v-0.1c0.1,0,0.3,0,0.4,0
						c-0.1,0.1-0.1,0.2-0.2,0.2C127.3,36.9,127.2,36.9,127.2,36.9z M126.7,36.7c0.1,0,0.2,0,0.3,0c0,0,0,0,0,0
						c-0.1,0.1-0.2,0.1-0.3,0.2C126.7,36.8,126.7,36.8,126.7,36.7z M119.8,35.5c0.1,0,0.1-0.1,0.2-0.1c0,0.1-0.1,0.2-0.1,0.3
						C119.9,35.6,119.9,35.6,119.8,35.5z M119.4,35.3C119.4,35.3,119.4,35.2,119.4,35.3c0-0.1,0.1-0.1,0.1-0.1c0,0,0.1,0.1,0.1,0.1
						c0,0,0,0,0,0.1C119.5,35.3,119.4,35.3,119.4,35.3z M119.5,34.9c0-0.1-0.1-0.2-0.1-0.4c0.1,0.1,0.2,0.1,0.2,0.2
						C119.6,34.8,119.6,34.9,119.5,34.9C119.5,34.9,119.5,34.9,119.5,34.9z M117.9,33c0,0,0.1,0.1,0.1,0.1c-0.1,0.1-0.1,0.2-0.2,0.3
						C117.8,33.2,117.8,33.2,117.9,33z M118,31.3C118,31.3,118,31.3,118,31.3c0,0.1-0.1,0.2-0.1,0.3c-0.1,0-0.1,0-0.2,0.1
						C117.8,31.5,117.9,31.3,118,31.3z M121.8,38.2c-0.1-0.3-0.2-0.5-0.3-0.7c-0.2-0.3-0.3-0.6-0.5-0.9c-0.3-0.5-0.5-1-0.8-1.5
						c-0.2-0.4-0.5-0.7-0.8-1c-0.2-0.2-0.3-0.4-0.5-0.6c-0.2-0.2-0.4-0.4-0.6-0.6c0.2-0.3,0.5-0.6,0.7-0.9c0-0.1,0.1-0.1,0.1-0.2
						c0.1-0.1,0.2-0.2,0.3-0.3c0.3-0.3,0.6-0.4,1-0.6c0.2-0.1,0.3-0.2,0.3-0.4c0.1-0.2,0.2-0.3,0.3-0.5c0.1-0.2,0.5-0.1,0.6,0.1
						c0.1,0.2,0.1,0.5,0.2,0.8c0.1,0.2,0.2,0.4,0.3,0.6c0.3,0.5,0.6,1,0.9,1.4c0.1,0.1,0.1,0.2,0.1,0.3c0.2,0.3,0.5,0.7,0.8,1
						c0.2,0.2,0.4,0.4,0.5,0.6c0.2,0.3,0.4,0.5,0.7,0.8c0.3,0.2,0.6,0.4,0.8,0.7c0.1,0.1,0.1,0.2,0.1,0.4c0,0.1-0.1,0.2-0.3,0.2
						c-0.2,0.1-0.5,0.2-0.7,0.2c-0.5,0.1-0.8,0.4-1.2,0.6c-0.4,0.2-0.8,0.6-1.2,0.9c0,0-0.1,0.1-0.1,0.1c-0.2,0-0.3,0.2-0.4,0.3
						c0,0,0,0-0.1,0.1C122,38.7,121.8,38.4,121.8,38.2z M122.1,29.3c0-0.1,0-0.1,0-0.2c0,0,0,0,0,0c0,0,0.1,0.1,0.1,0.1
						C122.3,29.2,122.2,29.3,122.1,29.3L122.1,29.3z M131,36.2c0-0.1,0.1-0.2,0.2-0.2c0.3-0.1,0.5-0.3,0.7-0.5
						c0.3-0.3,0.6-0.5,0.8-0.9c0.2-0.3,0.5-0.5,0.6-0.8c0.1-0.2,0.3-0.3,0.4-0.5c0.1-0.2,0.2-0.3,0.3-0.5c0.1-0.2,0.2-0.5,0.3-0.7
						c0.1-0.2,0.3-0.4,0.3-0.6c0.1-0.3,0.4-0.7,0.4-1.1c0-0.1,0-0.1,0-0.2c0.2-0.3,0.3-0.7,0.3-1.1c0-0.1,0-0.2,0.2-0.3
						c0.1,0.1,0.1,0.1,0.2,0.2c0.2,0.2,0.4,0.3,0.6,0.4c0.2,0,0.4,0.2,0.5,0.3c0.2,0.2,0.3,0.4,0.6,0.5c0.1,0,0.1,0.1,0.2,0.1
						c0.3,0.3,0.6,0.6,0.7,1.1c0.1,0.1,0.1,0.3,0.1,0.5c0,0.2-0.1,0.4-0.4,0.5c-0.4,0.2-0.8,0.5-1,0.9c-0.1,0.1-0.1,0.2-0.1,0.4
						c0,0.2-0.1,0.4-0.1,0.6c0,0.2-0.1,0.4-0.2,0.5c0,0.1-0.1,0.1-0.1,0.2c0,0.1-0.1,0.1-0.1,0.2c-0.1,0.4-0.4,0.6-0.5,1
						c-0.1,0.2-0.2,0.4-0.3,0.6c0,0-0.1,0.1-0.1,0.1c-0.1,0.3-0.3,0.5-0.4,0.8c-0.1,0.2-0.2,0.3-0.2,0.5c-0.1,0.2-0.2,0.3-0.4,0.1
						c0,0-0.1,0-0.1-0.1c-0.1-0.2-0.2-0.5-0.4-0.7c-0.2-0.2-0.3-0.4-0.6-0.5c-0.4-0.1-0.7-0.4-0.9-0.6c-0.3-0.3-0.6-0.4-1-0.3
						c-0.1,0-0.2,0-0.2,0C131.2,36.3,131.1,36.3,131,36.2z M120.7,28.8c0.1,0,0.3,0,0.3,0.2c0,0,0,0-0.1,0
						C120.8,29,120.7,29,120.7,28.8z M120.5,27.6C120.5,27.6,120.5,27.5,120.5,27.6c0.1-0.1,0.2-0.1,0.3-0.1c0,0,0,0,0,0.1
						c0,0,0,0.1-0.1,0.1C120.6,27.6,120.6,27.6,120.5,27.6z M121.5,27.5c0.2,0,0.2,0,0.2,0.2C121.7,27.6,121.6,27.5,121.5,27.5z
						 M120,27.6c0-0.1,0.1-0.1,0.1-0.2C120.2,27.5,120.2,27.5,120,27.6C120,27.6,120,27.6,120,27.6z M137,25.9
						c0.2-0.3,0.4-0.6,0.4-1c0.2,0.2,0,0.5,0.2,0.6c-0.1,0.3-0.2,0.5-0.3,0.7C137.2,26.1,137.1,26,137,25.9z M121.2,24.5
						c-0.1,0.2-0.1,0.3-0.1,0.5C121,24.8,121,24.7,121.2,24.5z M120.8,26.8c0.1-0.2,0.2-0.4,0.2-0.6c0,0,0-0.1,0-0.1
						c0.2-0.2,0.2-0.4,0.3-0.7c0-0.1,0-0.2,0-0.3c0.2-0.5,0.2-1.1,0.3-1.6c0.1,0.1,0.2,0.2,0.2,0.4c0,0.1,0,0.3,0,0.4
						c0,0.1,0,0.3,0.1,0.4c0,0,0,0.1,0,0.2c0,0.2-0.1,0.5-0.1,0.7c0,0.2-0.1,0.4-0.1,0.6c0,0.1,0,0.1-0.1,0.2
						c-0.1,0.2-0.1,0.4-0.2,0.5c0,0.1,0,0.1,0.1,0.2C121,27.1,120.9,27.1,120.8,26.8z M124,23.3C124,23.3,124,23.3,124,23.3
						c0.1-0.1,0.1-0.1,0.2-0.1c0.4,0,0.7,0.1,1.1,0.1c0.1,0,0.1,0,0.2,0.1c0.1,0.2,0.2,0.3,0.4,0.5c-0.2,0.1-0.4,0.1-0.6-0.1
						c-0.2-0.1-0.3-0.2-0.5-0.1C124.5,23.6,124.2,23.4,124,23.3z M122.7,23c0-0.1,0.1-0.1,0.1-0.2c0,0,0,0,0.1,0c0,0,0,0.1,0,0.1
						C122.9,23.1,122.8,23.1,122.7,23C122.8,23.1,122.8,23,122.7,23z M119.7,26c0-0.1,0.1-0.1,0.1-0.2c0-0.1-0.1-0.1-0.1-0.2
						c0-0.1,0-0.2,0-0.3c0.1-0.2,0.2-0.4,0.3-0.7c0.1-0.3,0.3-0.6,0.4-0.9c0,0,0.1-0.1,0.1-0.1c0.1-0.4,0.3-0.6,0.4-0.9
						c0-0.1,0-0.2,0-0.3c0.1,0,0.1,0,0.2,0c0.1,0.3-0.1,0.5,0,0.8c-0.3,0.1-0.3,0.4-0.3,0.6c0,0.3-0.1,0.6-0.2,0.9
						c-0.2,0.4-0.4,0.8-0.4,1.3c0,0.1-0.1,0.2-0.1,0.3c-0.1,0-0.1,0-0.1,0C119.9,26.3,119.8,26.2,119.7,26z M121.7,22.2
						c0.1,0,0.1-0.1,0.2-0.1c0,0.1,0,0.1,0,0.2C121.9,22.3,121.8,22.2,121.7,22.2z M135.8,26.5c0-0.1,0-0.3,0-0.4c0-0.3-0.1-0.7,0-1
						c0-0.1,0-0.1,0-0.2c-0.1-0.3-0.1-0.6-0.1-0.9c0-0.1,0-0.2,0-0.4c0-0.1,0.1-0.3,0.1-0.4c-0.3-0.3-0.1-0.7-0.2-1.1
						c0.1,0,0.1,0,0.2,0c0.1,0.1,0.2,0.3,0.3,0.4c0.1,0.2,0.2,0.4,0.4,0.5c0.1,0,0.1,0.1,0.2,0.2c0.1,0.3,0.1,0.6,0.3,0.8
						c0.2,0.3,0.2,0.7,0.2,1c0,0,0,0,0,0.1c-0.2-0.1-0.2-0.2-0.2-0.3c-0.1-0.4-0.2-0.8-0.3-1.2c-0.1,0-0.2,0-0.2,0
						c-0.1-0.1-0.1-0.2-0.2-0.3c-0.1,0.1-0.1,0.2-0.1,0.3c0,0.1,0,0.3,0,0.4c0,0,0,0,0,0.1c0.1,0.5-0.1,0.9,0.1,1.4
						c0,0.4,0.1,0.7,0.1,1c0,0.2,0.1,0.3,0.1,0.5c-0.2,0.1-0.3,0.1-0.5,0.2C135.8,26.9,135.8,26.7,135.8,26.5z M120.7,22.1
						c0.1-0.1,0.2-0.1,0.4,0.1C120.9,22.2,120.8,22.2,120.7,22.1z M121.1,21.5c-0.1-0.1-0.1-0.2-0.2-0.3c0,0,0.1,0,0.1,0
						C121.1,21.2,121.2,21.3,121.1,21.5c0.2,0.1,0.1,0.2,0,0.2C121.1,21.6,121.1,21.5,121.1,21.5z M121.1,19.8
						c0-0.1,0.1-0.1,0.1-0.2c0,0,0.1,0.1,0.1,0.1C121.2,19.7,121.2,19.8,121.1,19.8C121.1,19.8,121.1,19.8,121.1,19.8z M129.5,11.9
						c0.1,0,0.1,0,0.2-0.1c0,0.1,0.1,0.1,0.1,0.2c0.1,0.1,0.2,0.1,0.3,0.2c0.3,0.1,0.3,0.1,0.4,0.2c0.2,0.1,0.3,0.2,0.5,0.3
						c0.2,0.1,0.4,0.2,0.6,0.2c0.3,0.1,0.5,0.3,0.7,0.5c0.3,0.3,0.5,0.6,0.8,0.9c0.1,0.2,0.2,0.3,0.3,0.5c0.1,0.1,0.2,0.3,0.3,0.4
						c0.2,0.2,0.3,0.5,0.3,0.8c0,0.1,0.1,0.3,0.2,0.4c0.2,0.3,0.3,0.6,0.4,0.9c0,0.4,0.2,0.7,0.3,1c0,0.2,0.1,0.4,0.1,0.5
						c0.1,0.3,0.1,0.5,0.2,0.8c0,0.1,0.1,0.3,0.1,0.4c0,0.2-0.1,0.4-0.3,0.4c0,0-0.1,0-0.1,0c-0.2-0.1-0.4-0.2-0.6-0.3
						c0,0-0.1,0-0.1,0c-0.3,0-0.3,0-0.4-0.2c-0.3-0.1-0.6-0.2-0.8-0.1c0,0-0.1,0-0.1,0c-0.3,0.2-0.7,0.1-1,0.4c-0.6,0.2-1,0.7-1.6,1
						c-0.3,0.1-0.6,0.4-0.8,0.6c-0.2,0.2-0.2,0.5-0.2,0.7c0,0.1,0,0.2,0,0.4c0.1,0,0.1,0.1,0.2,0c0.1,0,0.3,0,0.4-0.1
						c0.2-0.1,0.4-0.2,0.4-0.4c0.1-0.3,0.3-0.5,0.6-0.5c0.2-0.1,0.4-0.2,0.5-0.3c0.1-0.1,0.2-0.1,0.3-0.1c0.4,0,0.7-0.1,1.1-0.3
						c0.1,0,0.1,0,0.2-0.1c0.1-0.1,0.2-0.1,0.3-0.2c0.2-0.1,0.3-0.2,0.5-0.1c0.3,0.1,0.7,0.2,1-0.1c0,0.1,0.1,0.1,0.1,0.2
						c0,0.4,0,0.8,0,1.2c0,0.4,0,0.7,0.1,1.1c0,0,0,0.1,0,0.2c-0.1,0.3,0,0.5,0,0.8c0,0.3,0,0.7,0,1c0,0,0,0,0,0.1
						c0.1,0.5-0.1,1.1-0.1,1.6c0,0.2-0.1,0.5-0.1,0.7c-0.1,0.5-0.4,0.9-0.6,1.3c0,0.1-0.1,0.2-0.1,0.3c0,0.2,0,0.4,0,0.7
						c0,0.3-0.1,0.6-0.2,0.8c-0.2,0.3-0.3,0.7-0.4,1.1c0,0.1-0.2,0.3-0.2,0.4c0,0.1-0.1,0.1-0.1,0.2c-0.1,0.3-0.4,0.6-0.6,0.9
						c-0.1,0.1-0.2,0.3-0.3,0.4c-0.2,0.2-0.4,0.3-0.6,0.5c0,0-0.1,0.1-0.1,0.1c-0.2,0.3-0.5,0.4-0.8,0.5c-0.2,0.1-0.4,0.2-0.6,0.3
						c-0.3,0.1-0.4,0.3-0.5,0.5c0,0.1-0.1,0.2,0,0.3c0.1,0.4-0.1,0.7-0.4,0.9c-0.1,0.1-0.2,0.3-0.4,0.4c-0.2,0.1-0.2,0.1-0.3-0.1
						c-0.1-0.1-0.1-0.2-0.2-0.3c-0.3-0.3-0.4-0.6-0.6-1c-0.1-0.2-0.2-0.3-0.2-0.5c0-0.1-0.1-0.1-0.1-0.2c-0.2-0.2-0.4-0.3-0.7-0.4
						c-0.3-0.2-0.6-0.4-0.8-0.6c-0.2-0.2-0.3-0.3-0.5-0.5c-0.2-0.3-0.5-0.5-0.7-0.8c-0.2-0.3-0.5-0.5-0.7-0.8
						c-0.1-0.1-0.2-0.3-0.2-0.4c0-0.2,0-0.3,0-0.5c0-0.2-0.1-0.4-0.3-0.6c-0.1-0.1-0.2-0.2-0.2-0.3c-0.2-0.3-0.2-0.7-0.4-1
						c-0.1-0.1-0.1-0.2-0.1-0.2c-0.1-0.3-0.2-0.6-0.3-0.9c0-0.4,0.1-0.7,0.1-1.1c0-0.4,0-0.8,0-1.2c0-0.1,0-0.1,0-0.2
						c0-0.1,0.1-0.2,0.1-0.3c0-0.4,0.2-0.8,0.1-1.2c0-0.2-0.1-0.4,0-0.6c0-0.1,0.1-0.2,0.2-0.1c0.1,0,0.1,0.1,0.2,0.1
						c0.1,0.2,0.2,0.3,0.3,0.5c0.2,0.3,0.5,0.5,0.7,0.8c0.1,0.1,0.2,0.1,0.3,0.1c0,0,0.1,0,0.2-0.1c0.1,0,0.1,0,0.2-0.1
						c0,0,0.1,0.1,0.1,0.1h0.6c0-0.1,0.1-0.1,0.2-0.2c0.1,0,0.2-0.1,0.3-0.1c0.1,0,0.2,0,0.3,0.1c0,0.1,0.1,0.1,0.1,0.2
						c0.3-0.1,0.3-0.3,0.3-0.5c0.1-0.1,0.3-0.2,0.5-0.3c0.1-0.2-0.1-0.4-0.2-0.6c0-0.1-0.1-0.2-0.1-0.3c-0.1-0.1-0.1-0.2-0.2-0.2
						c-0.2,0-0.3,0-0.4-0.1c0,0-0.1,0-0.1,0c0,0,0,0.1-0.1,0.1c0-0.2-0.2-0.4-0.4-0.3c-0.3,0-0.6,0-0.8-0.1c-0.1,0-0.1,0-0.2,0
						c-0.4,0-0.8,0-1.3,0c-0.1,0-0.2,0-0.2,0c-0.1,0-0.3,0-0.3-0.2c0-0.3-0.2-0.6-0.4-0.9c-0.1-0.1-0.2-0.3-0.2-0.4
						c0-0.3-0.1-0.5-0.1-0.8c0-0.2-0.1-0.4-0.1-0.6c-0.1-0.1-0.1-0.3,0-0.4c0.1-0.1,0.1-0.3,0.1-0.5c0-0.1,0.1-0.3,0.1-0.4
						c0.1-0.5,0.3-0.9,0.4-1.4c0.1-0.3,0.2-0.5,0.3-0.8c0-0.1,0.1-0.2,0.1-0.3c0-0.2,0-0.5,0.2-0.7c0.1-0.2,0.1-0.4,0.2-0.5
						c0.1-0.2,0.2-0.3,0.3-0.4c0.1-0.1,0.2-0.3,0.3-0.4c0.3-0.4,0.8-0.6,1.1-1c0.1-0.1,0.3-0.2,0.5-0.3c0,0,0.1,0,0.2-0.1
						c0.2-0.3,0.5-0.3,0.8-0.4c0.1-0.1,0.2-0.1,0.3-0.2c0,0,0.1,0.1,0.1,0.1c0.1-0.1,0.2-0.2,0.4-0.3c0.1-0.1,0.3-0.1,0.5-0.1
						c0.2,0,0.4,0.1,0.6,0.1C128.7,11.7,129.2,11.7,129.5,11.9z M129.6,10.4c-0.3,0-0.6,0-1,0.2c-0.3,0-0.5-0.1-0.8-0.1
						c-0.1,0-0.1,0-0.2,0c-0.5,0.1-1,0.4-1.4,0.7c-0.1,0-0.2,0.1-0.2,0.1c-0.2,0-0.3,0.1-0.4,0.2c-0.4,0.1-0.8,0.2-1.1,0.5
						c-0.1,0.2-0.3,0.3-0.4,0.5c-0.2,0.2-0.4,0.4-0.7,0.6c-0.1,0.1-0.2,0.3-0.3,0.4c-0.1,0.2-0.3,0.3-0.4,0.5
						c-0.1,0.1-0.2,0.2-0.3,0.4c-0.3,0.4-0.5,0.8-0.7,1.3c-0.1,0.2-0.1,0.4-0.2,0.6c-0.2,0.4-0.3,0.8-0.6,1c0,0-0.1,0.1-0.1,0.2
						c-0.1,0.4-0.3,0.8-0.4,1.3c-0.1,0.1-0.3,0.3-0.4,0.5c-0.1,0.3-0.2,0.6-0.4,0.8c-0.1,0.1-0.1,0.2-0.2,0.4c0,0.2-0.1,0.5-0.2,0.7
						c-0.1,0.2-0.1,0.3,0,0.5c-0.1,0.1-0.2,0.1-0.2,0.2c-0.1,0.2-0.2,0.5-0.3,0.7c-0.1,0.2-0.1,0.3-0.2,0.5
						c-0.1,0.3-0.1,0.6-0.2,0.8c-0.1,0.3-0.1,0.6-0.1,0.9c0.1,0.3,0.1,0.6-0.1,0.9c-0.1,0.2-0.2,0.4-0.1,0.6
						c0.1,0.3,0.2,0.6,0.3,0.8c0,0.1,0.1,0.1,0.1,0.2c0.1,0.1,0.1,0.1,0.2,0.2c0.1,0.2,0.2,0.4,0.4,0.4c0.4,0.1,0.6,0.3,0.9,0.5
						c0.1,0,0.1,0.2,0.1,0.2c0,0.2-0.1,0.4-0.3,0.5c-0.2,0.1-0.3,0.2-0.5,0.3c-0.2,0.2-0.4,0.3-0.6,0.5c0,0,0,0-0.1,0
						c-0.1,0.1-0.3,0.2-0.4,0.3c-0.3,0.2-0.5,0.5-0.8,0.6c-0.4,0.2-0.6,0.5-0.8,0.8c-0.2,0.2-0.2,0.5-0.3,0.8
						c-0.1,0.3,0,0.5,0.1,0.7c0.1,0.1,0.2,0.3,0.2,0.4c0,0.1,0.1,0.2,0.2,0.2c0.2,0.1,0.5,0,0.7,0.2c0,0,0.1,0,0.1,0
						c0.2,0,0.6,0.4,0.7,0.6c0,0,0,0.1,0,0.1c0,0,0,0.1,0.1,0.1c0.2,0.3,0.4,0.6,0.6,0.9c0.2,0.3,0.4,0.5,0.7,0.7
						c0.1,0.1,0.2,0.2,0.2,0.3c0,0.1,0.1,0.1,0.1,0.2c0.2,0.3,0.4,0.7,0.5,1c0.2,0.4,0.3,0.9,0.5,1.4c0.1,0.2,0.2,0.4,0.2,0.5
						c0.1,0.3,0.3,0.6,0.5,0.8c0.1,0.1,0.2,0.2,0.2,0.4c0.1,0.3,0.2,0.5,0.3,0.8c0.1,0.2,0.2,0.4,0.3,0.6c0.1,0.2,0.1,0.4,0.2,0.6
						c0.1,0.4,0.1,0.7,0.2,1c0.1,0.4,0.1,0.8,0.3,1.2c0,0,0,0.1,0,0.1c0,0.4,0.2,0.7,0.2,1.1c0,0.3,0.1,0.5,0.2,0.8
						c0.1,0.3,0.1,0.6,0.2,0.9c0,0.2,0.1,0.4,0.1,0.6c0,0.2,0.1,0.4,0.4,0.5c0.3,0.2,0.6,0.3,0.9,0.2c0.1-0.1,0.1-0.1,0.2-0.1
						c0.1-0.1,0.2-0.1,0.2-0.2c0-0.1,0-0.2,0.1-0.3c0.1-0.3,0.1-0.7,0.2-1c0-0.3,0.2-0.5,0-0.8c0,0,0,0,0,0c0-0.3,0.1-0.6,0.1-0.9
						c0-0.2,0.1-0.4,0.1-0.5c0-0.2,0-0.4,0.1-0.6c0-0.2,0.1-0.5,0-0.7c0.1-0.3,0.2-0.5,0.2-0.8c0.1-0.3,0.1-0.5,0.1-0.8
						c0-0.3,0-0.6,0.1-1c0-0.1,0-0.1,0-0.2c-0.1-0.4-0.1-0.8,0-1.2c0-0.2,0-0.3,0-0.5c-0.1-0.2-0.1-0.4-0.1-0.6c0-0.5,0-0.9,0.1-1.4
						c0-0.1,0.1-0.1,0.1-0.2c0,0.1,0.1,0.2,0.1,0.2c0.2,0.1,0.2,0.2,0.2,0.4c0,0.1,0,0.1,0.1,0.2c0.1,0.1,0.2,0.3,0.2,0.4
						c0.1,0.2,0.3,0.4,0.6,0.6c0.1,0,0.2,0,0.2,0.1c0.1,0,0.2,0.1,0.4,0.1c0.1,0,0.2,0.1,0.3,0c0.1-0.1,0.2-0.2,0.3-0.3
						c0.2-0.2,0.4-0.3,0.7-0.5c0.1,0.2,0.1,0.4,0.2,0.5c0.1,0.3,0.1,0.6,0.3,0.9c0.2,0.3,0.2,0.7,0.2,1c0,0.3-0.1,0.7-0.1,1
						c-0.1,0.4,0,0.8,0,1.2c0,0.2,0.1,0.3,0.1,0.5c0,0.2,0.1,0.5,0.1,0.7c0,0.1,0.1,0.3,0.1,0.4c0.1,0.3,0.3,0.5,0.2,0.8
						c0,0,0,0.1,0,0.1c0,0.3,0.1,0.7,0.1,1c0,0.5,0,1-0.1,1.5c0,0.1,0,0.3,0,0.4c0.1,0.2,0.1,0.4,0.3,0.5c0.1,0.1,0.3,0.2,0.5,0.2h0
						c0.1,0,0.3,0,0.4-0.1c0.1-0.2,0.2-0.4,0.3-0.6h0.1c0.1-0.3,0.3-0.6,0.4-0.9c0.1-0.2,0.1-0.4,0.2-0.6c0.1-0.2,0.1-0.4,0.2-0.7
						c0.1-0.2,0.2-0.5,0.2-0.7c0-0.2,0.1-0.4,0.2-0.6c0.1-0.2,0.2-0.4,0.1-0.6c0-0.1,0-0.2,0-0.2c0.1-0.3,0.2-0.5,0.3-0.8
						c0-0.1,0.1-0.1,0.2-0.2c0.1-0.1,0.2-0.2,0.2-0.3c0.1-0.4,0.2-0.7,0.3-1c0,0,0-0.1,0-0.1c0.1-0.2,0.1-0.4,0.2-0.5
						c0.1,0,0.1,0,0.2,0c0-0.1,0.1-0.2,0.1-0.3c0.1-0.3,0.2-0.5,0.3-0.8c0.1-0.2,0.1-0.4,0.3-0.6c0.1-0.1,0.1-0.2,0.2-0.2
						c0.1-0.1,0.2-0.2,0.3-0.4c0.1-0.1,0.3-0.2,0.4-0.4c0-0.1,0.1-0.2,0.1-0.2c-0.1-0.2,0-0.4,0.1-0.6c0.1-0.3,0.3-0.6,0.3-1
						c0-0.1,0.1-0.2,0.1-0.3c0.1-0.1,0.1-0.2,0.1-0.3c0-0.3,0.2-0.5,0.4-0.6c0.1-0.1,0.1-0.1,0.2-0.2c0.2-0.3,0.5-0.7,0.7-1
						c0.1-0.1,0.2-0.2,0.3-0.3c0.3-0.2,0.6-0.5,0.7-0.9c0.1-0.2,0.1-0.3,0.2-0.5c0.1-0.2,0.2-0.3,0.1-0.5c0-0.1,0-0.1,0-0.2
						c0-0.1,0-0.2,0-0.3v-0.1c0-0.2,0-0.4-0.1-0.6c-0.1-0.3-0.2-0.5-0.3-0.8c-0.1-0.2-0.1-0.3-0.3-0.4c-0.1-0.1-0.2-0.2-0.3-0.2
						c-0.2-0.2-0.4-0.4-0.6-0.6c-0.2-0.2-0.4-0.3-0.5-0.6c0-0.1-0.1-0.2-0.2-0.2c-0.2-0.1-0.2-0.3-0.2-0.5c0.3-0.3,0.5-0.7,0.7-0.9
						c0.1-0.1,0.2-0.3,0.5-0.3c0,0,0,0,0,0c0-0.1,0-0.1,0-0.2c0.2-0.2,0.1-0.4,0.2-0.6c-0.1-0.4-0.1-0.7-0.1-1
						c0-0.1-0.1-0.2-0.1-0.3c0-0.2,0-0.4-0.2-0.6c0,0,0-0.1,0-0.1c-0.1-0.4-0.2-0.7-0.4-1c-0.3-0.3-0.4-0.7-0.5-1.1
						c-0.1-0.2-0.2-0.5-0.3-0.7c-0.1-0.2-0.1-0.3-0.1-0.5c0-0.2,0-0.4-0.1-0.6c-0.1-0.3-0.3-0.6-0.4-0.9c-0.2-0.4-0.3-0.9-0.5-1.3
						c0,0,0-0.1,0-0.1c0-0.1,0-0.1,0-0.2c0-0.2-0.1-0.3-0.1-0.5c-0.1-0.3-0.1-0.5-0.3-0.7c-0.1-0.1-0.1-0.2-0.2-0.3
						c-0.1-0.2-0.1-0.4-0.3-0.5c-0.2-0.3-0.3-0.5-0.4-0.8c-0.1-0.3-0.3-0.6-0.6-0.9c-0.1-0.1-0.1-0.1-0.2-0.2
						c-0.1-0.1-0.2-0.2-0.3-0.3c-0.1-0.1-0.2-0.2-0.3-0.3c-0.1-0.2-0.3-0.4-0.4-0.5c-0.1-0.1-0.1-0.2-0.2-0.3
						c-0.2-0.1-0.4-0.2-0.6-0.3c-0.2-0.1-0.4-0.2-0.6-0.4c-0.1-0.1-0.2-0.1-0.3-0.2c-0.1,0-0.1-0.1-0.2-0.2
						c-0.2-0.2-0.4-0.5-0.7-0.5c-0.1-0.1-0.2-0.1-0.3-0.1C130.1,10.4,129.9,10.4,129.6,10.4L129.6,10.4z"/>
				</defs>
				<clipPath id="SVGID_10_">
					<use xlink:href="#SVGID_1013_"  style="overflow:visible;"/>
				</clipPath>
				<g class="st8">
					<defs>
						<rect id="SVGID_1015_" x="-498.1" y="-1137.9" width="1024" height="1789"/>
					</defs>
					<clipPath id="SVGID_12_">
						<use xlink:href="#SVGID_1015_"  style="overflow:visible;"/>
					</clipPath>
				</g>
			</g>
			<g>
				<defs>
					<path id="SVGID_1023_" d="M128.4,41.5c-0.4,0-0.9,0.5-0.9,0.9c0,0.1,0,0.3,0,0.4c0.1,0.2,0.1,0.4,0.3,0.6
						c0.1,0.2,0.3,0.3,0.3,0.5c0,0.2,0.1,0.3,0.3,0.3c0.3,0,0.5,0,0.8,0.1c0.3-0.2,0.4-0.5,0.5-0.8c0-0.1,0.1-0.3,0-0.4
						c-0.1-0.1-0.3-0.2-0.3-0.4c0,0-0.1-0.1-0.1-0.1c-0.1-0.1-0.2-0.3-0.2-0.5c0-0.3,0-0.5-0.4-0.6
						C128.5,41.4,128.5,41.5,128.4,41.5z"/>
				</defs>
				<clipPath id="SVGID_14_">
					<use xlink:href="#SVGID_1023_"  style="overflow:visible;"/>
				</clipPath>
				<g class="st10">
					<defs>
						<rect id="SVGID_1025_" x="-498.1" y="-1137.9" width="1024" height="1789"/>
					</defs>
					<clipPath id="SVGID_16_">
						<use xlink:href="#SVGID_1025_"  style="overflow:visible;"/>
					</clipPath>
				</g>
			</g>
			<g>
				<defs>
					<path id="SVGID_1033_" d="M127.6,46.7c-0.2,0.2-0.4,0.5-0.5,0.8c0,0.2,0,0.4,0.2,0.5c0.1,0.1,0.3,0.1,0.5,0.1
						c0.2,0,0.4,0.1,0.5,0.2c0.2,0.2,0.4,0.2,0.6,0.2c0.2,0,0.2-0.1,0.3-0.2c0.1-0.1,0-0.2,0-0.3c-0.1-0.1-0.1-0.2-0.1-0.3
						c-0.1-0.1-0.1-0.3-0.2-0.4c-0.1-0.1-0.3-0.3-0.3-0.5c-0.1-0.2-0.3-0.4-0.6-0.4C127.9,46.6,127.7,46.6,127.6,46.7z"/>
				</defs>
				<clipPath id="SVGID_18_">
					<use xlink:href="#SVGID_1033_"  style="overflow:visible;"/>
				</clipPath>
				<g class="st12">
					<defs>
						<rect id="SVGID_1035_" x="-498.1" y="-1137.9" width="1024" height="1789"/>
					</defs>
					<clipPath id="SVGID_20_">
						<use xlink:href="#SVGID_1035_"  style="overflow:visible;"/>
					</clipPath>
				</g>
			</g>
			<g>
				<defs>
					<path id="SVGID_1043_" d="M123.8,20.4c-0.3,0-0.5,0.1-0.8,0.2c-0.2,0.1-0.4,0.2-0.6,0.3c-0.1,0.2,0.1,0.4,0.1,0.5
						c0.1,0,0.2,0.1,0.2,0.1c0.2,0.2,0.4,0.1,0.6,0.1c0.2,0,0.4,0,0.6,0c0.1,0,0.1,0,0.2,0c0.2,0,0.3,0,0.5,0c0.2,0,0.4,0.1,0.6,0.1
						c0.2,0,0.5,0,0.7,0.1c0.4,0.1,0.6,0.3,0.8,0.6c0,0,0,0.1,0,0.1c0.1,0.3,0.2,0.5,0.4,0.8c0.2,0.3,0.3,0.6,0.3,1
						c0,0.3,0,0.6,0.1,0.8c0,0.3,0.1,0.5,0.2,0.8c0,0.5,0.1,1.1,0,1.6c0,0.1,0,0.3,0,0.4c0,0.2,0.1,0.3,0.1,0.5
						c-0.3,0-0.6-0.2-1-0.2c-0.1,0.1-0.2,0.2-0.2,0.3c-0.1,0.1-0.1,0.2-0.1,0.4c0.1,0.1,0.2,0.2,0.4,0.2c0.1,0,0.2,0,0.3,0
						c0.3,0.2,0.4,0.5,0.6,0.8c0.1,0.1,0.1,0.2,0.3,0.2c0.1-0.1,0.3-0.1,0.4-0.2c0.1,0.2,0.2,0.4,0.3,0.6c0.1,0.2,0.5,0.5,0.8,0.4
						c0.3-0.1,0.7,0,1,0.1c0.5,0.1,0.8,0,1-0.5c0,0,0-0.1,0-0.1c-0.1-0.1-0.1-0.3-0.2-0.4c0-0.1-0.1-0.1-0.2-0.1
						c-0.1,0-0.3,0-0.4,0.1c-0.2,0.1-0.4,0.1-0.5,0.1c-0.4-0.1-0.8-0.1-1.2,0c-0.1,0-0.1,0-0.2,0c-0.1,0-0.2,0-0.2-0.1
						c0.1-0.1,0.2-0.2,0.3-0.2c0.1,0,0.3,0,0.4-0.1c0.1-0.1,0.2-0.2,0.4-0.1c0.3,0.1,0.3,0,0.4-0.3c-0.1-0.2-0.2-0.5-0.4-0.6
						c-0.3-0.1-0.5,0-0.8,0c0,0-0.1-0.1-0.2-0.1c0-0.2,0-0.3,0-0.5c0-0.4,0.1-0.8,0-1.2c0-0.1-0.1-0.2-0.1-0.3
						c0.1-0.4-0.1-0.7,0-1.1c0,0,0-0.1,0-0.1c0-0.1,0-0.2,0-0.3c0-0.1,0-0.1,0-0.2c-0.1-0.3-0.1-0.7,0-1c0,0,0-0.1,0-0.1
						c-0.1-0.3-0.2-0.5-0.4-0.8c-0.2-0.2-0.4-0.4-0.6-0.6c-0.1-0.1-0.1-0.2-0.1-0.2c-0.1-0.1-0.1-0.2-0.2-0.3
						c-0.3-0.2-0.6-0.3-0.9-0.4c-0.4-0.1-0.8-0.3-1.2-0.4c-0.4-0.2-0.8-0.3-1.3-0.3C124.1,20.4,124,20.4,123.8,20.4z"/>
				</defs>
				<clipPath id="SVGID_22_">
					<use xlink:href="#SVGID_1043_"  style="overflow:visible;"/>
				</clipPath>
				<g class="st14">
					<defs>
						<rect id="SVGID_1045_" x="-498.1" y="-1137.9" width="1024" height="1789"/>
					</defs>
					<clipPath id="SVGID_24_">
						<use xlink:href="#SVGID_1045_"  style="overflow:visible;"/>
					</clipPath>
				</g>
			</g>
			<g>
				<defs>
					<path id="SVGID_1053_" d="M131,23.6c0-0.1,0-0.1,0.1-0.2c0.1-0.1,0.2-0.3,0.4-0.4c0,0,0.1-0.1,0.2-0.1c0.4,0,0.7,0,1.1-0.1
						c0.1,0,0.1,0,0.2,0c-0.1,0.2-0.3,0.3-0.4,0.4c-0.4,0.2-0.7,0.3-1.1,0.4c0,0-0.1,0-0.1,0C131.2,23.6,131.1,23.6,131,23.6z
						 M133.2,22.9c0,0,0-0.1-0.1-0.2c0,0,0,0,0.1,0c0.1,0,0.1,0.1,0.2,0.1v0.1C133.3,22.9,133.3,22.9,133.2,22.9
						C133.2,22.9,133.2,22.9,133.2,22.9z M131.9,22.3c-0.1,0-0.1,0-0.2-0.1c-0.2,0.1-0.4,0.1-0.6,0.3c-0.2,0.2-0.5,0.3-0.7,0.4
						c-0.2,0.1-0.4,0.3-0.4,0.5c0,0.1-0.1,0.2-0.1,0.3c-0.1,0.1-0.1,0.2,0,0.3c0.2,0.2,0.4,0.4,0.7,0.6c0.2-0.1,0.4,0,0.5,0.1
						c0.1,0.1,0.3,0.1,0.4,0.1c0.2,0,0.5,0,0.7,0c0.2,0.1,0.3,0,0.5-0.1c0.1-0.1,0.2-0.2,0.4-0.3c0.2-0.2,0.5-0.3,0.5-0.6
						c0,0,0-0.1,0.1-0.1c0.2-0.2,0.3-0.4,0.5-0.5c0.3-0.2,0.2-0.3,0.1-0.7c0-0.1-0.1-0.2-0.1-0.2c-0.2-0.1-0.3-0.1-0.4-0.2
						c-0.3-0.1-0.6-0.1-0.9-0.1c-0.1,0-0.2,0-0.3,0C132.2,22.1,132.1,22.2,131.9,22.3z"/>
				</defs>
				<clipPath id="SVGID_26_">
					<use xlink:href="#SVGID_1053_"  style="overflow:visible;"/>
				</clipPath>
				<g class="st16">
					<defs>
						<rect id="SVGID_1055_" x="-498.1" y="-1137.9" width="1024" height="1789"/>
					</defs>
					<clipPath id="SVGID_28_">
						<use xlink:href="#SVGID_1055_"  style="overflow:visible;"/>
					</clipPath>
				</g>
			</g>
			<g>
				<defs>
					<path id="SVGID_1063_" d="M128.5,31.4c-0.1,0-0.3-0.1-0.4-0.1c-0.3,0-0.5,0.1-0.8,0.1c-0.2,0-0.3,0-0.5,0.1
						c-0.2,0.1-0.4,0.2-0.5,0.5c0.1,0.2,0.3,0.4,0.4,0.6c0,0,0.1,0,0.1,0.1c0.3,0.2,0.9,0.1,1.2-0.2c0.1-0.1,0.2-0.1,0.3-0.1
						c0.2,0,0.3,0,0.5,0c0.2,0,0.5,0.1,0.7,0.1c0.2,0,0.3,0,0.5,0.2c0.3,0.2,0.5,0.1,0.6-0.2c0.1-0.3,0.1-0.5,0-0.8
						c-0.1,0-0.1-0.1-0.2-0.1c-0.3,0-0.5,0-0.8-0.1c0,0-0.1,0-0.1,0c-0.2,0-0.5,0-0.7-0.1c0,0,0,0-0.1,0
						C128.5,31.4,128.5,31.4,128.5,31.4z"/>
				</defs>
				<clipPath id="SVGID_30_">
					<use xlink:href="#SVGID_1063_"  style="overflow:visible;"/>
				</clipPath>
				<g class="st18">
					<defs>
						<rect id="SVGID_1065_" x="-498.1" y="-1137.9" width="1024" height="1789"/>
					</defs>
					<clipPath id="SVGID_32_">
						<use xlink:href="#SVGID_1065_"  style="overflow:visible;"/>
					</clipPath>
				</g>
			</g>
			<g>
				<defs>
					<path id="SVGID_1073_" d="M127.5,29.9c-0.2,0-0.4,0.1-0.6,0.1c0,0-0.1,0-0.1,0c-0.1,0-0.3,0.1-0.4,0.1c-0.1,0-0.2,0-0.3,0
						c-0.2,0-0.3,0.1-0.5,0c-0.1,0-0.2,0-0.3,0c-0.1,0.2-0.1,0.4,0.1,0.5c0.1,0.1,0.3,0.3,0.4,0.4c0.1,0.1,0.2,0.1,0.4,0.2
						c0.1,0,0.2,0,0.3,0.1c0.1,0.1,0.3,0.1,0.4,0.2c0.1-0.1,0.2-0.1,0.2-0.2c0.2-0.3,0.4-0.4,0.7-0.5c0.2,0,0.4-0.1,0.5-0.3
						c0-0.1-0.1-0.3-0.1-0.4C127.9,30,127.7,29.9,127.5,29.9C127.5,29.9,127.5,29.9,127.5,29.9z"/>
				</defs>
				<clipPath id="SVGID_34_">
					<use xlink:href="#SVGID_1073_"  style="overflow:visible;"/>
				</clipPath>
				<g class="st20">
					<defs>
						<rect id="SVGID_1075_" x="-498.1" y="-1137.9" width="1024" height="1789"/>
					</defs>
					<clipPath id="SVGID_36_">
						<use xlink:href="#SVGID_1075_"  style="overflow:visible;"/>
					</clipPath>
				</g>
			</g>
			<g>
				<defs>
					<path id="SVGID_1083_" d="M127.7,33.1c-0.1,0.2-0.1,0.3,0.1,0.5c0.1,0.1,0.3,0.2,0.5,0.2c0.3-0.1,0.6-0.2,0.8,0.1
						c0.2,0,0.4-0.1,0.5-0.2c0.1-0.1,0.2-0.3,0.1-0.4c-0.1-0.1-0.2-0.2-0.4-0.2c-0.1,0-0.1,0-0.2,0c-0.2,0-0.4,0-0.6-0.1
						c-0.1,0-0.2-0.1-0.2-0.1C128,32.8,127.8,32.9,127.7,33.1z"/>
				</defs>
				<clipPath id="SVGID_38_">
					<use xlink:href="#SVGID_1083_"  style="overflow:visible;"/>
				</clipPath>
				<g class="st22">
					<defs>
						<rect id="SVGID_1085_" x="-498.1" y="-1137.9" width="1024" height="1789"/>
					</defs>
					<clipPath id="SVGID_40_">
						<use xlink:href="#SVGID_1085_"  style="overflow:visible;"/>
					</clipPath>
				</g>
			</g>
		</g>
	</g>
	<rect x="-497.9" y="-1138.9" class="st516" width="1024" height="1789"/>
	<g>
		<defs>
			<rect id="SVGID_1093_" x="-55.4" y="88.7" width="45.9" height="70.6"/>
		</defs>
		<clipPath id="SVGID_42_">
			<use xlink:href="#SVGID_1093_"  style="overflow:visible;"/>
		</clipPath>
		<g class="st24">
			<defs>
				<rect id="SVGID_1095_" x="-516.4" y="-1163.6" width="1024" height="1795.1"/>
			</defs>
			<clipPath id="SVGID_44_">
				<use xlink:href="#SVGID_1095_"  style="overflow:visible;"/>
			</clipPath>
		</g>
	</g>
	<rect x="-460.4" y="-1218.1" class="st516" width="1024" height="1789"/>
	<g>
		<defs>
			<path id="SVGID_1103_" d="M46.4,23.4C47.7,10.8,36.1,0.5,23.5,0.5C10.8,0.5-0.2,10,0.6,23.4c0.4,6.1,2.9,9.5,6.3,15.8l16.3,31.7
				l15.6-29.7C42.7,34.5,45.7,29.9,46.4,23.4"/>
		</defs>
		<clipPath id="SVGID_46_">
			<use xlink:href="#SVGID_1103_"  style="overflow:visible;"/>
		</clipPath>
		<g style="clip-path:url(#SVGID_46_);">
			<defs>
				<rect id="SVGID_1105_" x="0.6" y="0.5" width="46" height="71"/>
			</defs>
			<clipPath id="SVGID_48_">
				<use xlink:href="#SVGID_1105_"  style="overflow:visible;"/>
			</clipPath>
			<rect x="-4.4" y="-4.5" style="clip-path:url(#SVGID_48_);fill:#26AD24;" width="55.9" height="80.3"/>
		</g>
	</g>
	<circle class="st2" cx="23.5" cy="20.4" r="7.5"/>
	<circle class="st491" cx="23.5" cy="20.4" r="7.5"/>
	<circle class="st564" cx="23.5" cy="20.4" r="7.5"/>
	<rect x="-460.4" y="-1218.1" class="st516" width="1024" height="1789"/>
	<g class="st567">
		<defs>
			<path id="SVGID_1107_" class="st567" d="M46.4,23.3C47.7,10.7,36.1,0.5,23.5,0.5C10.8,0.5-0.2,10,0.6,23.3
				c0.4,6.1,2.9,9.5,6.3,15.7l16.3,31.6L38.8,41C42.7,34.4,45.7,29.8,46.4,23.3"/>
		</defs>
		<use xlink:href="#SVGID_1107_"  style="overflow:visible;fill-rule:evenodd;clip-rule:evenodd;"/>
		<clipPath id="SVGID_50_">
			<use xlink:href="#SVGID_1107_"  style="overflow:visible;"/>
		</clipPath>
		<g class="st28">
			<defs>
				<rect id="SVGID_1109_" x="0.6" y="0.5" width="46" height="70.8"/>
			</defs>
			<use xlink:href="#SVGID_1109_"  style="overflow:visible;"/>
			<clipPath id="SVGID_52_">
				<use xlink:href="#SVGID_1109_"  style="overflow:visible;"/>
			</clipPath>
			<rect x="-4.4" y="-4.5" class="st29" width="55.9" height="80.1"/>
		</g>
	</g>
</g>
</svg>
