<?xml version="1.0" encoding="utf-8"?>
<!-- Generator: Adobe Illustrator 23.0.0, SVG Export Plug-In . SVG Version: 6.00 Build 0)  -->
<svg version="1.1" xmlns="http://www.w3.org/2000/svg" xmlns:xlink="http://www.w3.org/1999/xlink" x="0px" y="0px"
	 viewBox="0 0 15.9 16" style="enable-background:new 0 0 15.9 16;" xml:space="preserve">
<style type="text/css">
	.st0{clip-path:url(#SVGID_2_);}
	.st1{clip-path:url(#SVGID_4_);fill:#26AD24;}
	.st2{fill:#FFFFFF;}
	.st3{fill:#07AE79;}
	.st4{fill:#979797;}
	.st5{fill:#FFFFFF;stroke:#000000;stroke-width:2;stroke-miterlimit:10;}
	.st6{clip-path:url(#SVGID_6_);}
	.st7{clip-path:url(#SVGID_8_);enable-background:new    ;}
	.st8{clip-path:url(#SVGID_10_);}
	.st9{clip-path:url(#SVGID_12_);}
	.st10{clip-path:url(#SVGID_14_);}
	.st11{clip-path:url(#SVGID_16_);}
	.st12{clip-path:url(#SVGID_18_);}
	.st13{clip-path:url(#SVGID_20_);}
	.st14{clip-path:url(#SVGID_22_);}
	.st15{clip-path:url(#SVGID_24_);}
	.st16{clip-path:url(#SVGID_26_);}
	.st17{clip-path:url(#SVGID_28_);}
	.st18{clip-path:url(#SVGID_30_);}
	.st19{clip-path:url(#SVGID_32_);}
	.st20{clip-path:url(#SVGID_34_);}
	.st21{clip-path:url(#SVGID_36_);}
	.st22{clip-path:url(#SVGID_38_);}
	.st23{clip-path:url(#SVGID_40_);}
	.st24{clip-path:url(#SVGID_42_);}
	.st25{clip-path:url(#SVGID_44_);}
	.st26{clip-path:url(#SVGID_46_);enable-background:new    ;}
	.st27{clip-path:url(#SVGID_48_);}
	.st28{clip-path:url(#SVGID_50_);}
	.st29{clip-path:url(#SVGID_52_);}
	.st30{clip-path:url(#SVGID_54_);}
	.st31{clip-path:url(#SVGID_56_);}
	.st32{clip-path:url(#SVGID_58_);}
	.st33{clip-path:url(#SVGID_60_);}
	.st34{clip-path:url(#SVGID_62_);}
	.st35{clip-path:url(#SVGID_64_);}
	.st36{clip-path:url(#SVGID_66_);}
	.st37{clip-path:url(#SVGID_68_);}
	.st38{clip-path:url(#SVGID_70_);}
	.st39{clip-path:url(#SVGID_72_);}
	.st40{clip-path:url(#SVGID_74_);}
	.st41{clip-path:url(#SVGID_76_);}
	.st42{clip-path:url(#SVGID_78_);}
	.st43{clip-path:url(#SVGID_80_);}
	.st44{clip-path:url(#SVGID_82_);}
	.st45{clip-path:url(#SVGID_84_);enable-background:new    ;}
	.st46{clip-path:url(#SVGID_86_);}
	.st47{clip-path:url(#SVGID_88_);}
	.st48{clip-path:url(#SVGID_90_);}
	.st49{clip-path:url(#SVGID_92_);}
	.st50{clip-path:url(#SVGID_94_);}
	.st51{clip-path:url(#SVGID_96_);}
	.st52{clip-path:url(#SVGID_98_);}
	.st53{clip-path:url(#SVGID_100_);}
	.st54{clip-path:url(#SVGID_102_);}
	.st55{clip-path:url(#SVGID_104_);}
	.st56{clip-path:url(#SVGID_106_);}
	.st57{clip-path:url(#SVGID_108_);}
	.st58{clip-path:url(#SVGID_110_);}
	.st59{clip-path:url(#SVGID_112_);}
	.st60{clip-path:url(#SVGID_114_);}
	.st61{clip-path:url(#SVGID_116_);}
	.st62{clip-path:url(#SVGID_118_);}
	.st63{clip-path:url(#SVGID_120_);}
	.st64{clip-path:url(#SVGID_122_);enable-background:new    ;}
	.st65{clip-path:url(#SVGID_124_);}
	.st66{clip-path:url(#SVGID_126_);}
	.st67{clip-path:url(#SVGID_128_);}
	.st68{clip-path:url(#SVGID_130_);}
	.st69{clip-path:url(#SVGID_132_);}
	.st70{clip-path:url(#SVGID_134_);}
	.st71{clip-path:url(#SVGID_136_);}
	.st72{clip-path:url(#SVGID_138_);}
	.st73{clip-path:url(#SVGID_140_);}
	.st74{clip-path:url(#SVGID_142_);}
	.st75{clip-path:url(#SVGID_144_);}
	.st76{clip-path:url(#SVGID_146_);}
	.st77{clip-path:url(#SVGID_148_);}
	.st78{clip-path:url(#SVGID_150_);}
	.st79{clip-path:url(#SVGID_152_);}
	.st80{clip-path:url(#SVGID_154_);}
	.st81{clip-path:url(#SVGID_156_);}
	.st82{fill:#D3D3D3;}
	.st83{fill:none;stroke:#0A9365;stroke-width:0.5;stroke-miterlimit:10;}
	.st84{fill:none;stroke:#BCBCBC;stroke-width:0.5;stroke-miterlimit:10;}
	.st85{clip-path:url(#SVGID_158_);}
	.st86{clip-path:url(#SVGID_160_);enable-background:new    ;}
	.st87{clip-path:url(#SVGID_162_);}
	.st88{clip-path:url(#SVGID_164_);}
	.st89{clip-path:url(#SVGID_166_);}
	.st90{clip-path:url(#SVGID_168_);}
	.st91{clip-path:url(#SVGID_170_);}
	.st92{clip-path:url(#SVGID_172_);}
	.st93{clip-path:url(#SVGID_174_);}
	.st94{clip-path:url(#SVGID_176_);}
	.st95{clip-path:url(#SVGID_178_);}
	.st96{clip-path:url(#SVGID_180_);}
	.st97{clip-path:url(#SVGID_182_);}
	.st98{clip-path:url(#SVGID_184_);}
	.st99{clip-path:url(#SVGID_186_);}
	.st100{clip-path:url(#SVGID_188_);}
	.st101{clip-path:url(#SVGID_190_);}
	.st102{clip-path:url(#SVGID_194_);}
	.st103{clip-path:url(#SVGID_199_);}
	.st104{fill-rule:evenodd;clip-rule:evenodd;fill:#FFFFFF;}
	.st105{clip-path:url(#SVGID_200_);}
	.st106{clip-path:url(#SVGID_202_);}
	.st107{clip-path:url(#SVGID_203_);}
	.st108{clip-path:url(#SVGID_204_);}
	.st109{clip-path:url(#SVGID_205_);}
	.st110{clip-path:url(#SVGID_206_);}
	.st111{clip-path:url(#SVGID_208_);}
	.st112{clip-path:url(#SVGID_210_);fill:#07AE79;}
	.st113{clip-path:url(#SVGID_212_);}
	.st114{clip-path:url(#SVGID_214_);fill:#0A9365;}
	.st115{clip-path:url(#SVGID_216_);}
	.st116{clip-path:url(#SVGID_218_);enable-background:new    ;}
	.st117{clip-path:url(#SVGID_220_);}
	.st118{clip-path:url(#SVGID_222_);}
	.st119{clip-path:url(#SVGID_224_);}
	.st120{clip-path:url(#SVGID_226_);}
	.st121{clip-path:url(#SVGID_228_);enable-background:new    ;}
	.st122{clip-path:url(#SVGID_230_);}
	.st123{clip-path:url(#SVGID_232_);}
	.st124{clip-path:url(#SVGID_234_);}
	.st125{clip-path:url(#SVGID_236_);}
	.st126{clip-path:url(#SVGID_238_);enable-background:new    ;}
	.st127{clip-path:url(#SVGID_240_);}
	.st128{clip-path:url(#SVGID_242_);}
	.st129{clip-path:url(#SVGID_244_);}
	.st130{clip-path:url(#SVGID_246_);}
	.st131{clip-path:url(#SVGID_248_);enable-background:new    ;}
	.st132{clip-path:url(#SVGID_250_);}
	.st133{clip-path:url(#SVGID_252_);}
	.st134{clip-path:url(#SVGID_254_);}
	.st135{clip-path:url(#SVGID_256_);}
	.st136{clip-path:url(#SVGID_258_);enable-background:new    ;}
	.st137{clip-path:url(#SVGID_260_);}
	.st138{clip-path:url(#SVGID_262_);}
	.st139{clip-path:url(#SVGID_264_);}
	.st140{clip-path:url(#SVGID_266_);}
	.st141{clip-path:url(#SVGID_268_);enable-background:new    ;}
	.st142{clip-path:url(#SVGID_270_);}
	.st143{clip-path:url(#SVGID_272_);}
	.st144{clip-path:url(#SVGID_274_);}
	.st145{clip-path:url(#SVGID_276_);}
	.st146{clip-path:url(#SVGID_278_);enable-background:new    ;}
	.st147{clip-path:url(#SVGID_280_);}
	.st148{clip-path:url(#SVGID_282_);}
	.st149{clip-path:url(#SVGID_284_);}
	.st150{clip-path:url(#SVGID_286_);}
	.st151{clip-path:url(#SVGID_288_);enable-background:new    ;}
	.st152{clip-path:url(#SVGID_290_);}
	.st153{clip-path:url(#SVGID_292_);}
	.st154{clip-path:url(#SVGID_294_);}
	.st155{fill:#FFFFFF;stroke:#000000;stroke-miterlimit:10;}
	.st156{clip-path:url(#SVGID_296_);}
	.st157{clip-path:url(#SVGID_298_);enable-background:new    ;}
	.st158{clip-path:url(#SVGID_300_);}
	.st159{clip-path:url(#SVGID_302_);}
	.st160{clip-path:url(#SVGID_304_);}
	.st161{clip-path:url(#SVGID_306_);}
	.st162{clip-path:url(#SVGID_308_);}
	.st163{clip-path:url(#SVGID_310_);}
	.st164{clip-path:url(#SVGID_312_);}
	.st165{clip-path:url(#SVGID_314_);}
	.st166{clip-path:url(#SVGID_316_);}
	.st167{clip-path:url(#SVGID_318_);}
	.st168{clip-path:url(#SVGID_320_);}
	.st169{clip-path:url(#SVGID_322_);}
	.st170{clip-path:url(#SVGID_324_);}
	.st171{clip-path:url(#SVGID_326_);}
	.st172{clip-path:url(#SVGID_328_);}
	.st173{clip-path:url(#SVGID_330_);}
	.st174{clip-path:url(#SVGID_332_);}
	.st175{fill:#0A9365;}
	.st176{clip-path:url(#SVGID_334_);}
	.st177{clip-path:url(#SVGID_336_);enable-background:new    ;}
	.st178{clip-path:url(#SVGID_338_);}
	.st179{clip-path:url(#SVGID_340_);}
	.st180{clip-path:url(#SVGID_342_);}
	.st181{clip-path:url(#SVGID_344_);}
	.st182{clip-path:url(#SVGID_346_);}
	.st183{clip-path:url(#SVGID_348_);}
	.st184{clip-path:url(#SVGID_350_);}
	.st185{clip-path:url(#SVGID_352_);}
	.st186{clip-path:url(#SVGID_354_);}
	.st187{clip-path:url(#SVGID_356_);}
	.st188{clip-path:url(#SVGID_358_);}
	.st189{clip-path:url(#SVGID_360_);}
	.st190{clip-path:url(#SVGID_362_);}
	.st191{clip-path:url(#SVGID_364_);}
	.st192{clip-path:url(#SVGID_366_);}
	.st193{clip-path:url(#SVGID_368_);}
	.st194{clip-path:url(#SVGID_370_);}
	.st195{clip-path:url(#SVGID_372_);}
	.st196{clip-path:url(#SVGID_374_);fill:#FFFFFF;}
	.st197{clip-path:url(#SVGID_376_);}
	.st198{clip-path:url(#SVGID_378_);fill:#979797;}
	.st199{clip-path:url(#SVGID_380_);}
	.st200{clip-path:url(#SVGID_382_);fill:#FFFFFF;}
	.st201{clip-path:url(#SVGID_384_);}
	.st202{clip-path:url(#SVGID_386_);fill:#07AE79;}
	.st203{clip-path:url(#SVGID_390_);}
	.st204{clip-path:url(#SVGID_392_);enable-background:new    ;}
	.st205{clip-path:url(#SVGID_394_);}
	.st206{clip-path:url(#SVGID_396_);}
	.st207{clip-path:url(#SVGID_398_);}
	.st208{clip-path:url(#SVGID_400_);}
	.st209{clip-path:url(#SVGID_402_);enable-background:new    ;}
	.st210{clip-path:url(#SVGID_404_);}
	.st211{clip-path:url(#SVGID_406_);}
	.st212{clip-path:url(#SVGID_408_);}
	.st213{clip-path:url(#SVGID_410_);}
	.st214{clip-path:url(#SVGID_412_);enable-background:new    ;}
	.st215{clip-path:url(#SVGID_414_);}
	.st216{clip-path:url(#SVGID_416_);}
	.st217{clip-path:url(#SVGID_418_);}
	.st218{clip-path:url(#SVGID_420_);}
	.st219{clip-path:url(#SVGID_422_);enable-background:new    ;}
	.st220{clip-path:url(#SVGID_424_);}
	.st221{clip-path:url(#SVGID_426_);}
	.st222{clip-path:url(#SVGID_428_);}
	.st223{clip-path:url(#SVGID_430_);}
	.st224{clip-path:url(#SVGID_432_);enable-background:new    ;}
	.st225{clip-path:url(#SVGID_434_);}
	.st226{clip-path:url(#SVGID_436_);}
	.st227{clip-path:url(#SVGID_438_);}
	.st228{clip-path:url(#SVGID_440_);}
	.st229{clip-path:url(#SVGID_442_);enable-background:new    ;}
	.st230{clip-path:url(#SVGID_444_);}
	.st231{clip-path:url(#SVGID_446_);}
	.st232{clip-path:url(#SVGID_448_);}
	.st233{clip-path:url(#SVGID_450_);}
	.st234{clip-path:url(#SVGID_452_);enable-background:new    ;}
	.st235{clip-path:url(#SVGID_454_);}
	.st236{clip-path:url(#SVGID_456_);}
	.st237{clip-path:url(#SVGID_458_);}
	.st238{clip-path:url(#SVGID_460_);}
	.st239{clip-path:url(#SVGID_462_);enable-background:new    ;}
	.st240{clip-path:url(#SVGID_464_);}
	.st241{clip-path:url(#SVGID_466_);}
	.st242{clip-path:url(#SVGID_468_);}
	.st243{clip-path:url(#SVGID_472_);}
	.st244{clip-path:url(#SVGID_474_);enable-background:new    ;}
	.st245{clip-path:url(#SVGID_476_);}
	.st246{clip-path:url(#SVGID_478_);}
	.st247{clip-path:url(#SVGID_480_);}
	.st248{clip-path:url(#SVGID_482_);}
	.st249{clip-path:url(#SVGID_484_);}
	.st250{clip-path:url(#SVGID_486_);}
	.st251{clip-path:url(#SVGID_488_);}
	.st252{clip-path:url(#SVGID_490_);}
	.st253{clip-path:url(#SVGID_492_);}
	.st254{clip-path:url(#SVGID_494_);}
	.st255{clip-path:url(#SVGID_496_);}
	.st256{clip-path:url(#SVGID_498_);}
	.st257{clip-path:url(#SVGID_500_);}
	.st258{clip-path:url(#SVGID_502_);}
	.st259{clip-path:url(#SVGID_504_);}
	.st260{clip-path:url(#SVGID_506_);}
	.st261{clip-path:url(#SVGID_508_);}
	.st262{clip-path:url(#SVGID_510_);}
	.st263{clip-path:url(#SVGID_512_);enable-background:new    ;}
	.st264{clip-path:url(#SVGID_514_);}
	.st265{clip-path:url(#SVGID_516_);}
	.st266{clip-path:url(#SVGID_518_);}
	.st267{clip-path:url(#SVGID_520_);}
	.st268{clip-path:url(#SVGID_522_);}
	.st269{clip-path:url(#SVGID_524_);}
	.st270{clip-path:url(#SVGID_526_);}
	.st271{clip-path:url(#SVGID_528_);}
	.st272{clip-path:url(#SVGID_530_);}
	.st273{clip-path:url(#SVGID_532_);}
	.st274{clip-path:url(#SVGID_534_);}
	.st275{clip-path:url(#SVGID_536_);}
	.st276{clip-path:url(#SVGID_538_);}
	.st277{clip-path:url(#SVGID_540_);}
	.st278{clip-path:url(#SVGID_542_);}
	.st279{clip-path:url(#SVGID_544_);}
	.st280{clip-path:url(#SVGID_546_);}
	.st281{fill:#FFFFFF;stroke:#979797;stroke-width:0.25;stroke-miterlimit:10;}
	.st282{clip-path:url(#SVGID_548_);}
	.st283{clip-path:url(#SVGID_550_);enable-background:new    ;}
	.st284{clip-path:url(#SVGID_552_);}
	.st285{clip-path:url(#SVGID_554_);}
	.st286{clip-path:url(#SVGID_556_);}
	.st287{clip-path:url(#SVGID_558_);}
	.st288{clip-path:url(#SVGID_560_);}
	.st289{clip-path:url(#SVGID_562_);}
	.st290{clip-path:url(#SVGID_564_);}
	.st291{clip-path:url(#SVGID_566_);}
	.st292{clip-path:url(#SVGID_568_);}
	.st293{clip-path:url(#SVGID_570_);}
	.st294{clip-path:url(#SVGID_572_);}
	.st295{clip-path:url(#SVGID_574_);}
	.st296{clip-path:url(#SVGID_576_);}
	.st297{clip-path:url(#SVGID_578_);}
	.st298{clip-path:url(#SVGID_580_);}
	.st299{clip-path:url(#SVGID_582_);}
	.st300{clip-path:url(#SVGID_584_);}
	.st301{clip-path:url(#SVGID_586_);}
	.st302{clip-path:url(#SVGID_588_);enable-background:new    ;}
	.st303{clip-path:url(#SVGID_590_);}
	.st304{clip-path:url(#SVGID_592_);}
	.st305{clip-path:url(#SVGID_594_);}
	.st306{clip-path:url(#SVGID_596_);}
	.st307{clip-path:url(#SVGID_598_);}
	.st308{clip-path:url(#SVGID_600_);}
	.st309{clip-path:url(#SVGID_602_);}
	.st310{clip-path:url(#SVGID_604_);}
	.st311{clip-path:url(#SVGID_606_);}
	.st312{clip-path:url(#SVGID_608_);}
	.st313{clip-path:url(#SVGID_610_);}
	.st314{clip-path:url(#SVGID_612_);}
	.st315{clip-path:url(#SVGID_614_);}
	.st316{clip-path:url(#SVGID_616_);}
	.st317{clip-path:url(#SVGID_618_);}
	.st318{clip-path:url(#SVGID_620_);}
	.st319{clip-path:url(#SVGID_622_);}
	.st320{clip-path:url(#SVGID_624_);}
	.st321{clip-path:url(#SVGID_626_);enable-background:new    ;}
	.st322{clip-path:url(#SVGID_628_);}
	.st323{clip-path:url(#SVGID_630_);}
	.st324{clip-path:url(#SVGID_632_);}
	.st325{clip-path:url(#SVGID_634_);}
	.st326{clip-path:url(#SVGID_636_);}
	.st327{clip-path:url(#SVGID_638_);}
	.st328{clip-path:url(#SVGID_640_);}
	.st329{clip-path:url(#SVGID_642_);}
	.st330{clip-path:url(#SVGID_644_);}
	.st331{clip-path:url(#SVGID_646_);}
	.st332{clip-path:url(#SVGID_648_);}
	.st333{clip-path:url(#SVGID_650_);}
	.st334{clip-path:url(#SVGID_652_);}
	.st335{clip-path:url(#SVGID_654_);}
	.st336{clip-path:url(#SVGID_656_);}
	.st337{clip-path:url(#SVGID_658_);}
	.st338{clip-path:url(#SVGID_660_);}
	.st339{clip-path:url(#SVGID_662_);}
	.st340{clip-path:url(#SVGID_664_);enable-background:new    ;}
	.st341{clip-path:url(#SVGID_666_);}
	.st342{clip-path:url(#SVGID_668_);}
	.st343{clip-path:url(#SVGID_670_);}
	.st344{clip-path:url(#SVGID_672_);}
	.st345{clip-path:url(#SVGID_674_);}
	.st346{clip-path:url(#SVGID_676_);}
	.st347{clip-path:url(#SVGID_678_);}
	.st348{clip-path:url(#SVGID_680_);}
	.st349{clip-path:url(#SVGID_682_);}
	.st350{clip-path:url(#SVGID_684_);}
	.st351{clip-path:url(#SVGID_686_);}
	.st352{clip-path:url(#SVGID_688_);}
	.st353{clip-path:url(#SVGID_690_);}
	.st354{clip-path:url(#SVGID_692_);}
	.st355{clip-path:url(#SVGID_694_);}
	.st356{clip-path:url(#SVGID_696_);}
	.st357{clip-path:url(#SVGID_698_);}
	.st358{clip-path:url(#SVGID_700_);}
	.st359{clip-path:url(#SVGID_702_);enable-background:new    ;}
	.st360{clip-path:url(#SVGID_704_);}
	.st361{clip-path:url(#SVGID_706_);}
	.st362{clip-path:url(#SVGID_708_);}
	.st363{clip-path:url(#SVGID_710_);}
	.st364{clip-path:url(#SVGID_712_);}
	.st365{clip-path:url(#SVGID_714_);}
	.st366{clip-path:url(#SVGID_716_);}
	.st367{clip-path:url(#SVGID_718_);}
	.st368{clip-path:url(#SVGID_720_);}
	.st369{clip-path:url(#SVGID_722_);}
	.st370{clip-path:url(#SVGID_724_);}
	.st371{clip-path:url(#SVGID_726_);}
	.st372{clip-path:url(#SVGID_728_);}
	.st373{clip-path:url(#SVGID_730_);}
	.st374{clip-path:url(#SVGID_732_);}
	.st375{clip-path:url(#SVGID_734_);}
	.st376{clip-path:url(#SVGID_736_);}
	.st377{clip-path:url(#SVGID_738_);}
	.st378{clip-path:url(#SVGID_740_);enable-background:new    ;}
	.st379{clip-path:url(#SVGID_742_);}
	.st380{clip-path:url(#SVGID_744_);}
	.st381{clip-path:url(#SVGID_746_);}
	.st382{clip-path:url(#SVGID_748_);}
	.st383{clip-path:url(#SVGID_750_);}
	.st384{clip-path:url(#SVGID_752_);}
	.st385{clip-path:url(#SVGID_754_);}
	.st386{clip-path:url(#SVGID_756_);}
	.st387{clip-path:url(#SVGID_758_);}
	.st388{clip-path:url(#SVGID_760_);}
	.st389{clip-path:url(#SVGID_762_);}
	.st390{clip-path:url(#SVGID_764_);}
	.st391{clip-path:url(#SVGID_766_);}
	.st392{clip-path:url(#SVGID_768_);}
	.st393{clip-path:url(#SVGID_770_);}
	.st394{clip-path:url(#SVGID_772_);}
	.st395{clip-path:url(#SVGID_774_);}
	.st396{clip-path:url(#SVGID_776_);}
	.st397{clip-path:url(#SVGID_778_);enable-background:new    ;}
	.st398{clip-path:url(#SVGID_780_);}
	.st399{clip-path:url(#SVGID_782_);}
	.st400{clip-path:url(#SVGID_784_);}
	.st401{clip-path:url(#SVGID_786_);}
	.st402{clip-path:url(#SVGID_788_);}
	.st403{clip-path:url(#SVGID_790_);}
	.st404{clip-path:url(#SVGID_792_);}
	.st405{clip-path:url(#SVGID_794_);}
	.st406{clip-path:url(#SVGID_796_);}
	.st407{clip-path:url(#SVGID_798_);}
	.st408{clip-path:url(#SVGID_800_);}
	.st409{clip-path:url(#SVGID_802_);}
	.st410{clip-path:url(#SVGID_804_);}
	.st411{clip-path:url(#SVGID_806_);}
	.st412{clip-path:url(#SVGID_808_);}
	.st413{clip-path:url(#SVGID_810_);}
	.st414{clip-path:url(#SVGID_812_);}
	.st415{clip-path:url(#SVGID_814_);}
	.st416{clip-path:url(#SVGID_816_);enable-background:new    ;}
	.st417{clip-path:url(#SVGID_818_);}
	.st418{clip-path:url(#SVGID_820_);}
	.st419{clip-path:url(#SVGID_822_);}
	.st420{clip-path:url(#SVGID_824_);}
	.st421{clip-path:url(#SVGID_826_);}
	.st422{clip-path:url(#SVGID_828_);}
	.st423{clip-path:url(#SVGID_830_);}
	.st424{clip-path:url(#SVGID_832_);}
	.st425{clip-path:url(#SVGID_834_);}
	.st426{clip-path:url(#SVGID_836_);}
	.st427{clip-path:url(#SVGID_838_);}
	.st428{clip-path:url(#SVGID_840_);}
	.st429{clip-path:url(#SVGID_842_);}
	.st430{clip-path:url(#SVGID_844_);}
	.st431{clip-path:url(#SVGID_846_);}
	.st432{clip-path:url(#SVGID_848_);}
	.st433{clip-path:url(#SVGID_850_);}
	.st434{clip-path:url(#SVGID_852_);}
	.st435{clip-path:url(#SVGID_854_);enable-background:new    ;}
	.st436{clip-path:url(#SVGID_856_);}
	.st437{clip-path:url(#SVGID_858_);}
	.st438{clip-path:url(#SVGID_860_);}
	.st439{clip-path:url(#SVGID_862_);}
	.st440{clip-path:url(#SVGID_864_);}
	.st441{clip-path:url(#SVGID_866_);}
	.st442{clip-path:url(#SVGID_868_);}
	.st443{clip-path:url(#SVGID_870_);}
	.st444{clip-path:url(#SVGID_872_);}
	.st445{clip-path:url(#SVGID_874_);}
	.st446{clip-path:url(#SVGID_876_);}
	.st447{clip-path:url(#SVGID_878_);}
	.st448{clip-path:url(#SVGID_880_);}
	.st449{clip-path:url(#SVGID_882_);}
	.st450{clip-path:url(#SVGID_884_);}
	.st451{clip-path:url(#SVGID_886_);}
	.st452{clip-path:url(#SVGID_888_);}
	.st453{clip-path:url(#SVGID_890_);}
	.st454{clip-path:url(#SVGID_892_);enable-background:new    ;}
	.st455{clip-path:url(#SVGID_894_);}
	.st456{clip-path:url(#SVGID_896_);}
	.st457{clip-path:url(#SVGID_898_);}
	.st458{clip-path:url(#SVGID_900_);}
	.st459{clip-path:url(#SVGID_902_);}
	.st460{clip-path:url(#SVGID_904_);}
	.st461{clip-path:url(#SVGID_906_);}
	.st462{clip-path:url(#SVGID_908_);}
	.st463{clip-path:url(#SVGID_910_);}
	.st464{clip-path:url(#SVGID_912_);}
	.st465{clip-path:url(#SVGID_914_);}
	.st466{clip-path:url(#SVGID_916_);}
	.st467{clip-path:url(#SVGID_918_);}
	.st468{clip-path:url(#SVGID_920_);}
	.st469{clip-path:url(#SVGID_922_);}
	.st470{clip-path:url(#SVGID_924_);}
	.st471{clip-path:url(#SVGID_926_);}
	.st472{clip-path:url(#SVGID_928_);}
	.st473{clip-path:url(#SVGID_930_);enable-background:new    ;}
	.st474{clip-path:url(#SVGID_932_);}
	.st475{clip-path:url(#SVGID_934_);}
	.st476{clip-path:url(#SVGID_936_);}
	.st477{clip-path:url(#SVGID_938_);}
	.st478{clip-path:url(#SVGID_940_);}
	.st479{clip-path:url(#SVGID_942_);}
	.st480{clip-path:url(#SVGID_944_);}
	.st481{clip-path:url(#SVGID_946_);}
	.st482{clip-path:url(#SVGID_948_);}
	.st483{clip-path:url(#SVGID_950_);}
	.st484{clip-path:url(#SVGID_952_);}
	.st485{clip-path:url(#SVGID_954_);}
	.st486{clip-path:url(#SVGID_956_);}
	.st487{clip-path:url(#SVGID_958_);}
	.st488{clip-path:url(#SVGID_960_);}
	.st489{clip-path:url(#SVGID_962_);}
	.st490{clip-path:url(#SVGID_964_);}
	.st491{fill-rule:evenodd;clip-rule:evenodd;fill:none;}
	.st492{fill:none;stroke:#000000;stroke-width:0.5;stroke-miterlimit:10;}
	.st493{fill:none;stroke:#000000;stroke-width:2;stroke-miterlimit:10;}
	.st494{clip-path:url(#SVGID_966_);}
	.st495{clip-path:url(#SVGID_968_);fill:#FFFFFF;stroke:#979797;stroke-width:0.25;stroke-miterlimit:10;}
	.st496{fill:none;stroke:#979797;stroke-width:0.25;stroke-miterlimit:10;}
	.st497{clip-path:url(#SVGID_970_);}
	.st498{clip-path:url(#SVGID_972_);fill:#949494;}
	.st499{clip-path:url(#SVGID_974_);}
	.st500{clip-path:url(#SVGID_976_);fill:#949494;}
	.st501{clip-path:url(#SVGID_978_);}
	.st502{clip-path:url(#SVGID_980_);fill:#949494;}
	.st503{clip-path:url(#SVGID_982_);}
	.st504{clip-path:url(#SVGID_984_);fill:#949494;}
	.st505{clip-path:url(#SVGID_986_);}
	.st506{clip-path:url(#SVGID_988_);fill:#08A674;}
	.st507{fill:#FFFFFF;stroke:#07AE79;stroke-width:2;stroke-miterlimit:10;}
	.st508{clip-path:url(#SVGID_990_);}
	.st509{clip-path:url(#SVGID_992_);fill:#FFFFFF;}
	.st510{clip-path:url(#SVGID_994_);}
	.st511{clip-path:url(#SVGID_996_);fill:#979797;}
	.st512{clip-path:url(#SVGID_1000_);}
	.st513{clip-path:url(#SVGID_1002_);fill:#FFFFFF;}
	.st514{clip-path:url(#SVGID_1004_);}
	.st515{clip-path:url(#SVGID_1006_);fill:#07AE79;}
	.st516{fill:none;}
	.st517{clip-path:url(#SVGID_1010_);}
	.st518{clip-path:url(#SVGID_1012_);fill:#FFFFFF;stroke:#000000;stroke-width:2;stroke-miterlimit:10;}
	.st519{clip-path:url(#SVGID_1014_);}
	.st520{clip-path:url(#SVGID_1016_);enable-background:new    ;}
	.st521{clip-path:url(#SVGID_1018_);}
	.st522{clip-path:url(#SVGID_1020_);}
	.st523{clip-path:url(#SVGID_1022_);}
	.st524{clip-path:url(#SVGID_1024_);}
	.st525{clip-path:url(#SVGID_1026_);enable-background:new    ;}
	.st526{clip-path:url(#SVGID_1028_);}
	.st527{clip-path:url(#SVGID_1030_);}
	.st528{clip-path:url(#SVGID_1032_);}
	.st529{clip-path:url(#SVGID_1034_);}
	.st530{clip-path:url(#SVGID_1036_);enable-background:new    ;}
	.st531{clip-path:url(#SVGID_1038_);}
	.st532{clip-path:url(#SVGID_1040_);}
	.st533{clip-path:url(#SVGID_1042_);}
	.st534{clip-path:url(#SVGID_1044_);}
	.st535{clip-path:url(#SVGID_1046_);enable-background:new    ;}
	.st536{clip-path:url(#SVGID_1048_);}
	.st537{clip-path:url(#SVGID_1050_);}
	.st538{clip-path:url(#SVGID_1052_);}
	.st539{clip-path:url(#SVGID_1054_);}
	.st540{clip-path:url(#SVGID_1056_);enable-background:new    ;}
	.st541{clip-path:url(#SVGID_1058_);}
	.st542{clip-path:url(#SVGID_1060_);}
	.st543{clip-path:url(#SVGID_1062_);}
	.st544{clip-path:url(#SVGID_1064_);}
	.st545{clip-path:url(#SVGID_1066_);enable-background:new    ;}
	.st546{clip-path:url(#SVGID_1068_);}
	.st547{clip-path:url(#SVGID_1070_);}
	.st548{clip-path:url(#SVGID_1072_);}
	.st549{clip-path:url(#SVGID_1074_);}
	.st550{clip-path:url(#SVGID_1076_);enable-background:new    ;}
	.st551{clip-path:url(#SVGID_1078_);}
	.st552{clip-path:url(#SVGID_1080_);}
	.st553{clip-path:url(#SVGID_1082_);}
	.st554{clip-path:url(#SVGID_1084_);}
	.st555{clip-path:url(#SVGID_1086_);enable-background:new    ;}
	.st556{clip-path:url(#SVGID_1088_);}
	.st557{clip-path:url(#SVGID_1090_);}
	.st558{clip-path:url(#SVGID_1092_);}
	.st559{clip-path:url(#SVGID_1094_);}
	.st560{clip-path:url(#SVGID_1096_);enable-background:new    ;}
	.st561{clip-path:url(#SVGID_1098_);}
	.st562{clip-path:url(#SVGID_1100_);}
	.st563{opacity:0.33;clip-path:url(#SVGID_1102_);}
	.st564{fill:none;stroke:#36892F;stroke-miterlimit:10;}
	.st565{clip-path:url(#SVGID_1104_);}
	.st566{clip-path:url(#SVGID_1106_);fill:#26AD24;}
	.st567{opacity:0.33;}
	.st568{clip-path:url(#SVGID_1108_);}
	.st569{clip-path:url(#SVGID_1110_);}
	.st570{clip-path:url(#SVGID_1112_);}
	.st571{clip-path:url(#SVGID_1114_);fill:#0788FC;}
</style>
<g id="Layer_1">
</g>
<g id="Layer_2">
	<rect x="-549.1" y="-1229.3" class="st516" width="1024" height="1789"/>
	<g>
		<g>
			<defs>
				<path id="SVGID_1009_" d="M29.1-60.9c0,12.6-10.2,22.7-22.7,22.7s-22.7-10.2-22.7-22.7c0-12.6,10.2-22.7,22.7-22.7
					S29.1-73.5,29.1-60.9"/>
			</defs>
			<use xlink:href="#SVGID_1009_"  style="overflow:visible;fill:#FFFFFF;"/>
			<clipPath id="SVGID_2_">
				<use xlink:href="#SVGID_1009_"  style="overflow:visible;"/>
			</clipPath>
			<g class="st0">
				<defs>
					<rect id="SVGID_1011_" x="-619.9" y="-1229.3" width="1024" height="1789"/>
				</defs>
				<use xlink:href="#SVGID_1011_"  style="overflow:visible;fill:#FFFFFF;"/>
				<clipPath id="SVGID_4_">
					<use xlink:href="#SVGID_1011_"  style="overflow:visible;"/>
				</clipPath>
				<use xlink:href="#SVGID_1011_"  style="overflow:visible;fill:none;stroke:#000000;stroke-width:2;stroke-miterlimit:10;"/>
			</g>
			<use xlink:href="#SVGID_1009_"  style="overflow:visible;fill:none;stroke:#000000;stroke-width:2;stroke-miterlimit:10;"/>
		</g>
		<g>
			<g>
				<defs>
					<path id="SVGID_1013_" d="M3.1-42c0.1,0.1,0.2,0.1,0.3,0.1c-0.1,0-0.2,0.1-0.3,0.1V-42z M10.3-43.6c0.1,0.2,0.1,0.3-0.1,0.4
						C10.1-43.3,10.2-43.4,10.3-43.6z M3.6-46.3c0.1-0.1,0.1-0.1,0.2-0.2c0,0,0,0,0,0c0,0.1,0,0.1-0.1,0.2
						C3.7-46.3,3.7-46.3,3.6-46.3z M1.2-48c0-0.1,0-0.2,0-0.4c0.1,0.1,0.2,0.2,0.1,0.4C1.3-48,1.3-48,1.2-48z M10.9-48.5
						C10.9-48.6,10.9-48.6,10.9-48.5c0.1,0.1,0.1,0.1,0.1,0.2l0.1,0c-0.1,0-0.1,0.1-0.2,0.1C10.9-48.3,10.9-48.4,10.9-48.5z
						 M1.5-51.5c0.1,0.1,0.1,0.1,0.2,0.2H1.4C1.4-51.4,1.4-51.4,1.5-51.5z M1.6-48.9c0-0.2-0.1-0.4-0.3-0.6
						c-0.1-0.1-0.1-0.2-0.1-0.3c0-0.1-0.1-0.2-0.1-0.3c0-0.1-0.1-0.2-0.1-0.4c0-0.1,0.1-0.2,0.2-0.3c0.3-0.2,0.6-0.5,1-0.7
						c0.1-0.1,0.2-0.1,0.4-0.2c0,0.1,0,0.1,0,0.2c0,0.3-0.1,0.5-0.2,0.8c-0.1,0.2-0.2,0.4-0.2,0.6c0,0.1,0,0.2-0.1,0.2
						c-0.1,0.4-0.3,0.7-0.3,1.1c0,0,0,0.1-0.1,0.2C1.7-48.7,1.6-48.8,1.6-48.9z M2.9-44.9c0.1-0.1,0-0.3-0.1-0.3
						c-0.2-0.1-0.3-0.4-0.3-0.6c0,0,0-0.1,0-0.1c0.1-0.2,0.1-0.4,0.1-0.6c0-0.1,0-0.2,0-0.3c-0.1-0.3-0.2-0.6-0.1-0.9
						c0.1-0.2,0-0.4,0-0.6c0-0.2,0.1-0.3,0.1-0.5c0-0.1,0.1-0.3,0.1-0.4c0-0.3,0.1-0.6,0.2-0.9c0-0.1,0.1-0.2,0.2-0.3
						c-0.1-0.2,0-0.3,0.1-0.5c0.1-0.1,0.2-0.2,0.2-0.3c0-0.2,0.1-0.4,0.3-0.5c0,0.1,0.1,0.1,0.1,0.2c0,0.2,0,0.4,0,0.5
						c0,0.3,0,0.5,0,0.8c0,0.3,0,0.6-0.2,0.9c-0.1,0.1-0.1,0.3-0.1,0.5c0,0.3,0,0.5-0.1,0.8c-0.1,0.2,0,0.5,0,0.8
						c0,0.1,0,0.2-0.1,0.3c-0.2,0.2-0.2,0.5-0.2,0.8c0,0.3,0,0.5,0,0.8c0,0.1,0,0.2-0.1,0.3c0.1,0.2,0.1,0.4,0,0.6
						C2.8-44.6,2.8-44.8,2.9-44.9z M10.8-49.9c0.1-0.3-0.1-0.6-0.1-0.9c0-0.1-0.1-0.1-0.1-0.2c-0.1-0.1-0.1-0.2-0.1-0.3
						c-0.1-0.1-0.1-0.2-0.2-0.3c-0.2-0.2-0.3-0.4-0.5-0.6c-0.1-0.1-0.1-0.3-0.2-0.4c0-0.1,0-0.2,0-0.3c0.3,0.1,0.7,0.2,1,0.4
						c0.1,0,0.2,0.1,0.3,0.2c0.2,0.2,0.4,0.4,0.5,0.6c0.2,0.3,0.4,0.6,0.4,0.9c0,0,0,0.1,0,0.1l0,0c-0.1,0.1-0.1,0.3-0.2,0.4
						c0,0.1-0.1,0.2-0.2,0.3c-0.1,0.2-0.1,0.4-0.2,0.5c0,0.1-0.1,0.1-0.1,0.2C10.9-49.3,11-49.6,10.8-49.9z M9.6-44.7
						c-0.1-0.3-0.1-0.7-0.2-1c0,0,0-0.1,0-0.1c-0.2-0.4-0.2-0.9-0.2-1.3c0-0.2,0-0.4,0-0.5c0-0.4,0-0.7,0-1.1c0-0.3,0-0.7-0.1-1
						c0-0.1-0.1-0.2-0.1-0.4c-0.1-0.5-0.3-1-0.5-1.5c-0.1-0.2-0.1-0.4-0.2-0.6c0-0.2,0.1-0.4,0.4-0.6c0.3,0,0.3,0.1,0.3,0.3
						c0.1,0.4,0.1,0.7,0.3,1.1c0.1,0.1,0.1,0.2,0.2,0.3c0.1,0.1,0.2,0.3,0.3,0.4c0.2,0.3,0.3,0.6,0.5,0.8c0,0.1,0,0.2,0,0.3
						c0,0.1,0,0.3,0,0.4c0,0.1,0,0.1,0,0.2c0,0.4-0.1,0.7,0,1c0,0.1,0,0.2,0,0.2c0,0.4,0.1,0.7,0.1,1.1c0,0.1,0,0.2-0.1,0.2
						c-0.2,0.3-0.3,0.7-0.4,1c-0.1,0.3-0.2,0.6-0.2,0.9c0,0.1,0,0.1-0.1,0.2c0,0,0,0-0.1,0C9.6-44.5,9.6-44.6,9.6-44.7z M5.6-53
						c0-0.1,0.1-0.1,0.1-0.2c0,0.1,0,0.2,0.1,0.4C5.7-52.9,5.6-52.9,5.6-53z M5.2-53.5v-0.1c0.1,0,0.3,0,0.4,0
						c-0.1,0.1-0.1,0.2-0.2,0.2C5.3-53.5,5.2-53.5,5.2-53.5z M4.7-53.7c0.1,0,0.2,0,0.3,0c0,0,0,0,0,0c-0.1,0.1-0.2,0.1-0.3,0.2
						C4.7-53.6,4.7-53.6,4.7-53.7z M-2.2-54.8c0.1,0,0.1-0.1,0.2-0.1c0,0.1-0.1,0.2-0.1,0.3C-2.1-54.8-2.1-54.8-2.2-54.8z
						 M-2.6-55.1C-2.6-55.1-2.6-55.2-2.6-55.1c0-0.1,0.1-0.1,0.1-0.1c0,0,0.1,0.1,0.1,0.1c0,0,0,0,0,0.1
						C-2.5-55.1-2.6-55.1-2.6-55.1z M-2.5-55.4c0-0.1-0.1-0.2-0.1-0.4c0.1,0.1,0.2,0.1,0.2,0.2C-2.4-55.5-2.4-55.5-2.5-55.4
						C-2.5-55.4-2.5-55.4-2.5-55.4z M-4.1-57.4c0,0,0.1,0.1,0.1,0.1C-4-57.2-4.1-57.1-4.2-57C-4.2-57.1-4.2-57.1-4.1-57.4z M-4-59.1
						C-4-59.1-4-59.1-4-59.1c0,0.1-0.1,0.2-0.1,0.3c-0.1,0-0.1,0-0.2,0.1C-4.2-58.9-4.1-59-4-59.1z M-0.2-52.2
						c-0.1-0.3-0.2-0.5-0.3-0.7c-0.2-0.3-0.3-0.6-0.5-0.9c-0.3-0.5-0.5-1-0.8-1.5c-0.2-0.4-0.5-0.7-0.8-1c-0.2-0.2-0.3-0.4-0.5-0.6
						c-0.2-0.2-0.4-0.4-0.6-0.6c0.2-0.3,0.5-0.6,0.7-0.9c0-0.1,0.1-0.1,0.1-0.2c0.1-0.1,0.2-0.2,0.3-0.3c0.3-0.3,0.6-0.4,1-0.6
						c0.2-0.1,0.3-0.2,0.3-0.4c0.1-0.2,0.2-0.3,0.3-0.5c0.1-0.2,0.5-0.1,0.6,0.1c0.1,0.2,0.1,0.5,0.2,0.8c0.1,0.2,0.2,0.4,0.3,0.6
						c0.3,0.5,0.6,1,0.9,1.4C1-57.5,1-57.4,1.1-57.3c0.2,0.3,0.5,0.7,0.8,1c0.2,0.2,0.4,0.4,0.5,0.6c0.2,0.3,0.4,0.5,0.7,0.8
						c0.3,0.2,0.6,0.4,0.8,0.7c0.1,0.1,0.1,0.2,0.1,0.4c0,0.1-0.1,0.2-0.3,0.2c-0.2,0.1-0.5,0.2-0.7,0.2c-0.5,0.1-0.8,0.4-1.2,0.6
						c-0.4,0.2-0.8,0.6-1.2,0.9c0,0-0.1,0.1-0.1,0.1c-0.2,0-0.3,0.2-0.4,0.3c0,0,0,0-0.1,0.1C0-51.7-0.2-51.9-0.2-52.2z M0.1-61.1
						c0-0.1,0-0.1,0-0.2c0,0,0,0,0,0c0,0,0.1,0.1,0.1,0.1C0.3-61.2,0.2-61.1,0.1-61.1L0.1-61.1z M9-54.2c0-0.1,0.1-0.2,0.2-0.2
						c0.3-0.1,0.5-0.3,0.7-0.5c0.3-0.3,0.6-0.5,0.8-0.9c0.2-0.3,0.5-0.5,0.6-0.8c0.1-0.2,0.3-0.3,0.4-0.5c0.1-0.2,0.2-0.3,0.3-0.5
						c0.1-0.2,0.2-0.5,0.3-0.7c0.1-0.2,0.3-0.4,0.3-0.6c0.1-0.3,0.4-0.7,0.4-1.1c0-0.1,0-0.1,0-0.2c0.2-0.3,0.3-0.7,0.3-1.1
						c0-0.1,0-0.2,0.2-0.3c0.1,0.1,0.1,0.1,0.2,0.2c0.2,0.2,0.4,0.3,0.6,0.4c0.2,0,0.4,0.2,0.5,0.3c0.2,0.2,0.3,0.4,0.6,0.5
						c0.1,0,0.1,0.1,0.2,0.1c0.3,0.3,0.6,0.6,0.7,1.1c0.1,0.1,0.1,0.3,0.1,0.5c0,0.2-0.1,0.4-0.4,0.5c-0.4,0.2-0.8,0.5-1,0.9
						C15-56.9,15-56.7,15-56.6c0,0.2-0.1,0.4-0.1,0.6c0,0.2-0.1,0.4-0.2,0.5c0,0.1-0.1,0.1-0.1,0.2c0,0.1-0.1,0.1-0.1,0.2
						c-0.1,0.4-0.4,0.6-0.5,1c-0.1,0.2-0.2,0.4-0.3,0.6c0,0-0.1,0.1-0.1,0.1c-0.1,0.3-0.3,0.5-0.4,0.8c-0.1,0.2-0.2,0.3-0.2,0.5
						c-0.1,0.2-0.2,0.3-0.4,0.1c0,0-0.1,0-0.1-0.1c-0.1-0.2-0.2-0.5-0.4-0.7c-0.2-0.2-0.3-0.4-0.6-0.5c-0.4-0.1-0.7-0.4-0.9-0.6
						c-0.3-0.3-0.6-0.4-1-0.3c-0.1,0-0.2,0-0.2,0C9.2-54.1,9.1-54.1,9-54.2z M-1.3-61.6c0.1,0,0.3,0,0.3,0.2c0,0,0,0-0.1,0
						C-1.2-61.4-1.3-61.4-1.3-61.6z M-1.5-62.8C-1.5-62.8-1.5-62.8-1.5-62.8c0.1-0.1,0.2-0.1,0.3-0.1c0,0,0,0,0,0.1
						c0,0,0,0.1-0.1,0.1C-1.4-62.8-1.4-62.8-1.5-62.8z M-0.5-62.9c0.2,0,0.2,0,0.2,0.2C-0.3-62.8-0.4-62.9-0.5-62.9z M-2-62.8
						c0-0.1,0.1-0.1,0.1-0.2C-1.8-62.9-1.8-62.9-2-62.8C-2-62.8-2-62.8-2-62.8z M14.9-64.5c0.2-0.3,0.4-0.6,0.4-1
						c0.2,0.2,0,0.5,0.2,0.6c-0.1,0.3-0.2,0.5-0.3,0.7C15.1-64.3,15.1-64.4,14.9-64.5z M-0.8-65.9c-0.1,0.2-0.1,0.3-0.1,0.5
						C-1-65.6-1-65.7-0.8-65.9z M-1.2-63.6c0.1-0.2,0.2-0.4,0.2-0.6c0,0,0-0.1,0-0.1c0.2-0.2,0.2-0.4,0.3-0.7c0-0.1,0-0.2,0-0.3
						c0.2-0.5,0.2-1.1,0.3-1.6c0.1,0.1,0.2,0.2,0.2,0.4c0,0.1,0,0.3,0,0.4c0,0.1,0,0.3,0.1,0.4c0,0,0,0.1,0,0.2
						c0,0.2-0.1,0.5-0.1,0.7c0,0.2-0.1,0.4-0.1,0.6c0,0.1,0,0.1-0.1,0.2c-0.1,0.2-0.1,0.4-0.2,0.5c0,0.1,0,0.1,0.1,0.2
						C-1-63.3-1.1-63.3-1.2-63.6z M1.9-67.1C2-67.1,2-67.1,1.9-67.1c0.1-0.1,0.1-0.1,0.2-0.1c0.4,0,0.7,0.1,1.1,0.1
						c0.1,0,0.1,0,0.2,0.1c0.1,0.2,0.2,0.3,0.4,0.5c-0.2,0.1-0.4,0.1-0.6-0.1c-0.2-0.1-0.3-0.2-0.5-0.1C2.5-66.8,2.2-66.9,1.9-67.1z
						 M0.7-67.4c0-0.1,0.1-0.1,0.1-0.2c0,0,0,0,0.1,0c0,0,0,0.1,0,0.1C0.9-67.3,0.8-67.3,0.7-67.4C0.8-67.3,0.7-67.3,0.7-67.4z
						 M-2.3-64.4c0-0.1,0.1-0.1,0.1-0.2c0-0.1-0.1-0.1-0.1-0.2c0-0.1,0-0.2,0-0.3c0.1-0.2,0.2-0.4,0.3-0.7c0.1-0.3,0.3-0.6,0.4-0.9
						c0,0,0.1-0.1,0.1-0.1c0.1-0.4,0.3-0.6,0.4-0.9c0-0.1,0-0.2,0-0.3c0.1,0,0.1,0,0.2,0c0.1,0.3-0.1,0.5,0,0.8
						c-0.3,0.1-0.3,0.4-0.3,0.6c0,0.3-0.1,0.6-0.2,0.9c-0.2,0.4-0.4,0.8-0.4,1.3c0,0.1-0.1,0.2-0.1,0.3c-0.1,0-0.1,0-0.1,0
						C-2.1-64-2.2-64.2-2.3-64.4z M-0.3-68.2c0.1,0,0.1-0.1,0.2-0.1c0,0.1,0,0.1,0,0.2C-0.1-68.1-0.2-68.1-0.3-68.2z M13.8-63.9
						c0-0.1,0-0.3,0-0.4c0-0.3-0.1-0.7,0-1c0-0.1,0-0.1,0-0.2c-0.1-0.3-0.1-0.6-0.1-0.9c0-0.1,0-0.2,0-0.4c0-0.1,0.1-0.3,0.1-0.4
						c-0.3-0.3-0.1-0.7-0.2-1.1c0.1,0,0.1,0,0.2,0c0.1,0.1,0.2,0.3,0.3,0.4c0.1,0.2,0.2,0.4,0.4,0.5c0.1,0,0.1,0.1,0.2,0.2
						c0.1,0.3,0.1,0.6,0.3,0.8c0.2,0.3,0.2,0.7,0.2,1c0,0,0,0,0,0.1c-0.2-0.1-0.2-0.2-0.2-0.3c-0.1-0.4-0.2-0.8-0.3-1.2
						c-0.1,0-0.2,0-0.2,0c-0.1-0.1-0.1-0.2-0.2-0.3C14-67,14-66.9,14-66.8c0,0.1,0,0.3,0,0.4c0,0,0,0,0,0.1c0.1,0.5-0.1,0.9,0.1,1.4
						c0,0.4,0.1,0.7,0.1,1c0,0.2,0.1,0.3,0.1,0.5c-0.2,0.1-0.3,0.1-0.5,0.2C13.8-63.4,13.8-63.7,13.8-63.9z M-1.3-68.3
						c0.1-0.1,0.2-0.1,0.4,0.1C-1.1-68.2-1.2-68.2-1.3-68.3z M-0.9-68.9C-1-69-1-69.1-1.1-69.2c0,0,0.1,0,0.1,0
						C-0.9-69.2-0.8-69.1-0.9-68.9c0.2,0.1,0.1,0.2,0,0.2C-0.9-68.8-0.9-68.9-0.9-68.9z M-0.9-70.6c0-0.1,0.1-0.1,0.1-0.2
						c0,0,0.1,0.1,0.1,0.1C-0.8-70.7-0.8-70.6-0.9-70.6C-0.9-70.6-0.9-70.6-0.9-70.6z M7.5-78.5c0.1,0,0.1,0,0.2-0.1
						c0,0.1,0.1,0.1,0.1,0.2c0.1,0.1,0.2,0.1,0.3,0.2c0.3,0.1,0.3,0.1,0.4,0.2c0.2,0.1,0.3,0.2,0.5,0.3c0.2,0.1,0.4,0.2,0.6,0.2
						c0.3,0.1,0.5,0.3,0.7,0.5c0.3,0.3,0.5,0.6,0.8,0.9c0.1,0.2,0.2,0.3,0.3,0.5c0.1,0.1,0.2,0.3,0.3,0.4c0.2,0.2,0.3,0.5,0.3,0.8
						c0,0.1,0.1,0.3,0.2,0.4c0.2,0.3,0.3,0.6,0.4,0.9c0,0.4,0.2,0.7,0.3,1c0,0.2,0.1,0.4,0.1,0.5c0.1,0.3,0.1,0.5,0.2,0.8
						c0,0.1,0.1,0.3,0.1,0.4c0,0.2-0.1,0.4-0.3,0.4c0,0-0.1,0-0.1,0c-0.2-0.1-0.4-0.2-0.6-0.3c0,0-0.1,0-0.1,0c-0.3,0-0.3,0-0.4-0.2
						c-0.3-0.1-0.6-0.2-0.8-0.1c0,0-0.1,0-0.1,0c-0.3,0.2-0.7,0.1-1,0.4c-0.6,0.2-1,0.7-1.6,1c-0.3,0.1-0.6,0.4-0.8,0.6
						c-0.2,0.2-0.2,0.5-0.2,0.7c0,0.1,0,0.2,0,0.4c0.1,0,0.1,0.1,0.2,0c0.1,0,0.3,0,0.4-0.1c0.2-0.1,0.4-0.2,0.4-0.4
						c0.1-0.3,0.3-0.5,0.6-0.5c0.2-0.1,0.4-0.2,0.5-0.3c0.1-0.1,0.2-0.1,0.3-0.1c0.4,0,0.7-0.1,1.1-0.3c0.1,0,0.1,0,0.2-0.1
						c0.1-0.1,0.2-0.1,0.3-0.2c0.2-0.1,0.3-0.2,0.5-0.1c0.3,0.1,0.7,0.2,1-0.1c0,0.1,0.1,0.1,0.1,0.2c0,0.4,0,0.8,0,1.2
						c0,0.4,0,0.7,0.1,1.1c0,0,0,0.1,0,0.2c-0.1,0.3,0,0.5,0,0.8c0,0.3,0,0.7,0,1c0,0,0,0,0,0.1c0.1,0.5-0.1,1.1-0.1,1.6
						c0,0.2-0.1,0.5-0.1,0.7c-0.1,0.5-0.4,0.9-0.6,1.3C12-61.1,12-61,12-61c0,0.2,0,0.4,0,0.7c0,0.3-0.1,0.6-0.2,0.8
						c-0.2,0.3-0.3,0.7-0.4,1.1c0,0.1-0.2,0.3-0.2,0.4c0,0.1-0.1,0.1-0.1,0.2c-0.1,0.3-0.4,0.6-0.6,0.9c-0.1,0.1-0.2,0.3-0.3,0.4
						c-0.2,0.2-0.4,0.3-0.6,0.5c0,0-0.1,0.1-0.1,0.1c-0.2,0.3-0.5,0.4-0.8,0.5c-0.2,0.1-0.4,0.2-0.6,0.3c-0.3,0.1-0.4,0.3-0.5,0.5
						c0,0.1-0.1,0.2,0,0.3c0.1,0.4-0.1,0.7-0.4,0.9C7-53.3,6.9-53.1,6.7-53c-0.2,0.1-0.2,0.1-0.3-0.1c-0.1-0.1-0.1-0.2-0.2-0.3
						c-0.3-0.3-0.4-0.6-0.6-1c-0.1-0.2-0.2-0.3-0.2-0.5c0-0.1-0.1-0.1-0.1-0.2c-0.2-0.2-0.4-0.3-0.7-0.4c-0.3-0.2-0.6-0.4-0.8-0.6
						c-0.2-0.2-0.3-0.3-0.5-0.5c-0.2-0.3-0.5-0.5-0.7-0.8c-0.2-0.3-0.5-0.5-0.7-0.8c-0.1-0.1-0.2-0.3-0.2-0.4c0-0.2,0-0.3,0-0.5
						c0-0.2-0.1-0.4-0.3-0.6c-0.1-0.1-0.2-0.2-0.2-0.3c-0.2-0.3-0.2-0.7-0.4-1c-0.1-0.1-0.1-0.2-0.1-0.2c-0.1-0.3-0.2-0.6-0.3-0.9
						c0-0.4,0.1-0.7,0.1-1.1c0-0.4,0-0.8,0-1.2c0-0.1,0-0.1,0-0.2c0-0.1,0.1-0.2,0.1-0.3c0-0.4,0.2-0.8,0.1-1.2c0-0.2-0.1-0.4,0-0.6
						c0-0.1,0.1-0.2,0.2-0.1c0.1,0,0.1,0.1,0.2,0.1c0.1,0.2,0.2,0.3,0.3,0.5c0.2,0.3,0.5,0.5,0.7,0.8c0.1,0.1,0.2,0.1,0.3,0.1
						c0,0,0.1,0,0.2-0.1c0.1,0,0.1,0,0.2-0.1c0,0,0.1,0.1,0.1,0.1h0.6c0-0.1,0.1-0.1,0.2-0.2c0.1,0,0.2-0.1,0.3-0.1
						c0.1,0,0.2,0,0.3,0.1c0,0.1,0.1,0.1,0.1,0.2c0.3-0.1,0.3-0.3,0.3-0.5C4.6-65.9,4.7-66,5-66.2c0.1-0.2-0.1-0.4-0.2-0.6
						c0-0.1-0.1-0.2-0.1-0.3c-0.1-0.1-0.1-0.2-0.2-0.2c-0.2,0-0.3,0-0.4-0.1c0,0-0.1,0-0.1,0c0,0,0,0.1-0.1,0.1
						c0-0.2-0.2-0.4-0.4-0.3c-0.3,0-0.6,0-0.8-0.1c-0.1,0-0.1,0-0.2,0c-0.4,0-0.8,0-1.3,0c-0.1,0-0.2,0-0.2,0c-0.1,0-0.3,0-0.3-0.2
						c0-0.3-0.2-0.6-0.4-0.9c-0.1-0.1-0.2-0.3-0.2-0.4c0-0.3-0.1-0.5-0.1-0.8c0-0.2-0.1-0.4-0.1-0.6c-0.1-0.1-0.1-0.3,0-0.4
						c0.1-0.1,0.1-0.3,0.1-0.5c0-0.1,0.1-0.3,0.1-0.4c0.1-0.5,0.3-0.9,0.4-1.4c0.1-0.3,0.2-0.5,0.3-0.8c0-0.1,0.1-0.2,0.1-0.3
						c0-0.2,0-0.5,0.2-0.7c0.1-0.2,0.1-0.4,0.2-0.5c0.1-0.2,0.2-0.3,0.3-0.4c0.1-0.1,0.2-0.3,0.3-0.4c0.3-0.4,0.8-0.6,1.1-1
						c0.1-0.1,0.3-0.2,0.5-0.3c0,0,0.1,0,0.2-0.1C4-77.9,4.3-77.9,4.5-78c0.1-0.1,0.2-0.1,0.3-0.2c0,0,0.1,0.1,0.1,0.1
						c0.1-0.1,0.2-0.2,0.4-0.3c0.1-0.1,0.3-0.1,0.5-0.1c0.2,0,0.4,0.1,0.6,0.1C6.7-78.7,7.2-78.7,7.5-78.5z M7.6-80
						c-0.3,0-0.6,0-1,0.2c-0.3,0-0.5-0.1-0.8-0.1c-0.1,0-0.1,0-0.2,0c-0.5,0.1-1,0.4-1.4,0.7c-0.1,0-0.2,0.1-0.2,0.1
						c-0.2,0-0.3,0.1-0.4,0.2c-0.4,0.1-0.8,0.2-1.1,0.5c-0.1,0.2-0.3,0.3-0.4,0.5c-0.2,0.2-0.4,0.4-0.7,0.6
						c-0.1,0.1-0.2,0.3-0.3,0.4c-0.1,0.2-0.3,0.3-0.4,0.5c-0.1,0.1-0.2,0.2-0.3,0.4c-0.3,0.4-0.5,0.8-0.7,1.3
						c-0.1,0.2-0.1,0.4-0.2,0.6c-0.2,0.4-0.3,0.8-0.6,1c0,0-0.1,0.1-0.1,0.2c-0.1,0.4-0.3,0.8-0.4,1.3c-0.1,0.1-0.3,0.3-0.4,0.5
						c-0.1,0.3-0.2,0.6-0.4,0.8c-0.1,0.1-0.1,0.2-0.2,0.4c0,0.2-0.1,0.5-0.2,0.7c-0.1,0.2-0.1,0.3,0,0.5c-0.1,0.1-0.2,0.1-0.2,0.2
						c-0.1,0.2-0.2,0.5-0.3,0.7c-0.1,0.2-0.1,0.3-0.2,0.5c-0.1,0.3-0.1,0.6-0.2,0.8c-0.1,0.3-0.1,0.6-0.1,0.9
						c0.1,0.3,0.1,0.6-0.1,0.9c-0.1,0.2-0.2,0.4-0.1,0.6c0.1,0.3,0.2,0.6,0.3,0.8c0,0.1,0.1,0.1,0.1,0.2c0.1,0.1,0.1,0.1,0.2,0.2
						c0.1,0.2,0.2,0.4,0.4,0.4c0.4,0.1,0.6,0.3,0.9,0.5c0.1,0,0.1,0.2,0.1,0.2c0,0.2-0.1,0.4-0.3,0.5c-0.2,0.1-0.3,0.2-0.5,0.3
						c-0.2,0.2-0.4,0.3-0.6,0.5c0,0,0,0-0.1,0c-0.1,0.1-0.3,0.2-0.4,0.3c-0.3,0.2-0.5,0.5-0.8,0.6c-0.4,0.2-0.6,0.5-0.8,0.8
						c-0.2,0.2-0.2,0.5-0.3,0.8c-0.1,0.3,0,0.5,0.1,0.7c0.1,0.1,0.2,0.3,0.2,0.4c0,0.1,0.1,0.2,0.2,0.2c0.2,0.1,0.5,0,0.7,0.2
						c0,0,0.1,0,0.1,0c0.2,0,0.6,0.4,0.7,0.6c0,0,0,0.1,0,0.1c0,0,0,0.1,0.1,0.1c0.2,0.3,0.4,0.6,0.6,0.9c0.2,0.3,0.4,0.5,0.7,0.7
						c0.1,0.1,0.2,0.2,0.2,0.3c0,0.1,0.1,0.1,0.1,0.2c0.2,0.3,0.4,0.7,0.5,1c0.2,0.4,0.3,0.9,0.5,1.4c0.1,0.2,0.2,0.4,0.2,0.5
						c0.1,0.3,0.3,0.6,0.5,0.8c0.1,0.1,0.2,0.2,0.2,0.4c0.1,0.3,0.2,0.5,0.3,0.8c0.1,0.2,0.2,0.4,0.3,0.6c0.1,0.2,0.1,0.4,0.2,0.6
						c0.1,0.4,0.1,0.7,0.2,1C1.1-46,1-45.6,1.3-45.2c0,0,0,0.1,0,0.1c0,0.4,0.2,0.7,0.2,1.1c0,0.3,0.1,0.5,0.2,0.8
						c0.1,0.3,0.1,0.6,0.2,0.9c0,0.2,0.1,0.4,0.1,0.6c0,0.2,0.1,0.4,0.4,0.5C2.6-41,2.9-40.9,3.2-41c0.1-0.1,0.1-0.1,0.2-0.1
						c0.1-0.1,0.2-0.1,0.2-0.2c0-0.1,0-0.2,0.1-0.3c0.1-0.3,0.1-0.7,0.2-1c0-0.3,0.2-0.5,0-0.8c0,0,0,0,0,0C4-43.8,4-44.1,4-44.3
						c0-0.2,0.1-0.4,0.1-0.5c0-0.2,0-0.4,0.1-0.6c0-0.2,0.1-0.5,0-0.7c0.1-0.3,0.2-0.5,0.2-0.8c0.1-0.3,0.1-0.5,0.1-0.8
						c0-0.3,0-0.6,0.1-1c0-0.1,0-0.1,0-0.2c-0.1-0.4-0.1-0.8,0-1.2c0-0.2,0-0.3,0-0.5c-0.1-0.2-0.1-0.4-0.1-0.6c0-0.5,0-0.9,0.1-1.4
						c0-0.1,0.1-0.1,0.1-0.2c0,0.1,0.1,0.2,0.1,0.2c0.2,0.1,0.2,0.2,0.2,0.4C4.9-52,5-52,5-51.9c0.1,0.1,0.2,0.3,0.2,0.4
						c0.1,0.2,0.3,0.4,0.6,0.6c0.1,0,0.2,0,0.2,0.1c0.1,0,0.2,0.1,0.4,0.1c0.1,0,0.2,0.1,0.3,0C6.8-50.8,6.9-50.9,7-51
						c0.2-0.2,0.4-0.3,0.7-0.5c0.1,0.2,0.1,0.4,0.2,0.5C8-50.7,8-50.3,8.2-50.1c0.2,0.3,0.2,0.7,0.2,1c0,0.3-0.1,0.7-0.1,1
						c-0.1,0.4,0,0.8,0,1.2c0,0.2,0.1,0.3,0.1,0.5c0,0.2,0.1,0.5,0.1,0.7c0,0.1,0.1,0.3,0.1,0.4c0.1,0.3,0.3,0.5,0.2,0.8
						c0,0,0,0.1,0,0.1c0,0.3,0.1,0.7,0.1,1c0,0.5,0,1-0.1,1.5c0,0.1,0,0.3,0,0.4C9-41.3,9.1-41.1,9.2-41c0.1,0.1,0.3,0.2,0.5,0.2h0
						c0.1,0,0.3,0,0.4-0.1c0.1-0.2,0.2-0.4,0.3-0.6h0.1c0.1-0.3,0.3-0.6,0.4-0.9c0.1-0.2,0.1-0.4,0.2-0.6c0.1-0.2,0.1-0.4,0.2-0.7
						c0.1-0.2,0.2-0.5,0.2-0.7c0-0.2,0.1-0.4,0.2-0.6c0.1-0.2,0.2-0.4,0.1-0.6c0-0.1,0-0.2,0-0.2c0.1-0.3,0.2-0.5,0.3-0.8
						c0-0.1,0.1-0.1,0.2-0.2c0.1-0.1,0.2-0.2,0.2-0.3c0.1-0.4,0.2-0.7,0.3-1c0,0,0-0.1,0-0.1c0.1-0.2,0.1-0.4,0.2-0.5
						c0.1,0,0.1,0,0.2,0c0-0.1,0.1-0.2,0.1-0.3c0.1-0.3,0.2-0.5,0.3-0.8c0.1-0.2,0.1-0.4,0.3-0.6c0.1-0.1,0.1-0.2,0.2-0.2
						c0.1-0.1,0.2-0.2,0.3-0.4c0.1-0.1,0.3-0.2,0.4-0.4c0-0.1,0.1-0.2,0.1-0.2c-0.1-0.2,0-0.4,0.1-0.6c0.1-0.3,0.3-0.6,0.3-1
						c0-0.1,0.1-0.2,0.1-0.3c0.1-0.1,0.1-0.2,0.1-0.3c0-0.3,0.2-0.5,0.4-0.6c0.1-0.1,0.1-0.1,0.2-0.2c0.2-0.3,0.5-0.7,0.7-1
						c0.1-0.1,0.2-0.2,0.3-0.3c0.3-0.2,0.6-0.5,0.7-0.9c0.1-0.2,0.1-0.3,0.2-0.5c0.1-0.2,0.2-0.3,0.1-0.5c0-0.1,0-0.1,0-0.2
						c0-0.1,0-0.2,0-0.3v-0.1c0-0.2,0-0.4-0.1-0.6c-0.1-0.3-0.2-0.5-0.3-0.8c-0.1-0.2-0.1-0.3-0.3-0.4c-0.1-0.1-0.2-0.2-0.3-0.2
						c-0.2-0.2-0.4-0.4-0.6-0.6c-0.2-0.2-0.4-0.3-0.5-0.6c0-0.1-0.1-0.2-0.2-0.2c-0.2-0.1-0.2-0.3-0.2-0.5c0.3-0.3,0.5-0.7,0.7-0.9
						c0.1-0.1,0.2-0.3,0.5-0.3c0,0,0,0,0,0c0-0.1,0-0.1,0-0.2c0.2-0.2,0.1-0.4,0.2-0.6c-0.1-0.4-0.1-0.7-0.1-1
						c0-0.1-0.1-0.2-0.1-0.3c0-0.2,0-0.4-0.2-0.6c0,0,0-0.1,0-0.1c-0.1-0.4-0.2-0.7-0.4-1c-0.3-0.3-0.4-0.7-0.5-1.1
						c-0.1-0.2-0.2-0.5-0.3-0.7c-0.1-0.2-0.1-0.3-0.1-0.5c0-0.2,0-0.4-0.1-0.6c-0.1-0.3-0.3-0.6-0.4-0.9c-0.2-0.4-0.3-0.9-0.5-1.3
						c0,0,0-0.1,0-0.1c0-0.1,0-0.1,0-0.2c0-0.2-0.1-0.3-0.1-0.5c-0.1-0.3-0.1-0.5-0.3-0.7c-0.1-0.1-0.1-0.2-0.2-0.3
						c-0.1-0.2-0.1-0.4-0.3-0.5c-0.2-0.3-0.3-0.5-0.4-0.8c-0.1-0.3-0.3-0.6-0.6-0.9c-0.1-0.1-0.1-0.1-0.2-0.2
						c-0.1-0.1-0.2-0.2-0.3-0.3c-0.1-0.1-0.2-0.2-0.3-0.3c-0.1-0.2-0.3-0.4-0.4-0.5c-0.1-0.1-0.1-0.2-0.2-0.3
						c-0.2-0.1-0.4-0.2-0.6-0.3c-0.2-0.1-0.4-0.2-0.6-0.4c-0.1-0.1-0.2-0.1-0.3-0.2c-0.1,0-0.1-0.1-0.2-0.2
						c-0.2-0.2-0.4-0.5-0.7-0.5c-0.1-0.1-0.2-0.1-0.3-0.1C8-80,7.9-80,7.6-80L7.6-80z"/>
				</defs>
				<clipPath id="SVGID_6_">
					<use xlink:href="#SVGID_1013_"  style="overflow:visible;"/>
				</clipPath>
				<g class="st6">
					<defs>
						<rect id="SVGID_1015_" x="-620.1" y="-1228.3" width="1024" height="1789"/>
					</defs>
					<clipPath id="SVGID_8_">
						<use xlink:href="#SVGID_1015_"  style="overflow:visible;"/>
					</clipPath>
				</g>
			</g>
			<g>
				<defs>
					<path id="SVGID_1023_" d="M6.4-48.9c-0.4,0-0.9,0.5-0.9,0.9c0,0.1,0,0.3,0,0.4c0.1,0.2,0.1,0.4,0.3,0.6
						c0.1,0.2,0.3,0.3,0.3,0.5c0,0.2,0.1,0.3,0.3,0.3c0.3,0,0.5,0,0.8,0.1c0.3-0.2,0.4-0.5,0.5-0.8c0-0.1,0.1-0.3,0-0.4
						c-0.1-0.1-0.3-0.2-0.3-0.4c0,0-0.1-0.1-0.1-0.1C7.1-48,7-48.2,7-48.4c0-0.3,0-0.5-0.4-0.6C6.5-48.9,6.5-48.9,6.4-48.9z"/>
				</defs>
				<clipPath id="SVGID_10_">
					<use xlink:href="#SVGID_1023_"  style="overflow:visible;"/>
				</clipPath>
				<g class="st8">
					<defs>
						<rect id="SVGID_1025_" x="-620.1" y="-1228.3" width="1024" height="1789"/>
					</defs>
					<clipPath id="SVGID_12_">
						<use xlink:href="#SVGID_1025_"  style="overflow:visible;"/>
					</clipPath>
				</g>
			</g>
			<g>
				<defs>
					<path id="SVGID_1033_" d="M5.6-43.7c-0.2,0.2-0.4,0.5-0.5,0.8c0,0.2,0,0.4,0.2,0.5c0.1,0.1,0.3,0.1,0.5,0.1
						c0.2,0,0.4,0.1,0.5,0.2c0.2,0.2,0.4,0.2,0.6,0.2c0.2,0,0.2-0.1,0.3-0.2c0.1-0.1,0-0.2,0-0.3c-0.1-0.1-0.1-0.2-0.1-0.3
						C7.1-42.7,7.1-42.9,7-43c-0.1-0.1-0.3-0.3-0.3-0.5c-0.1-0.2-0.3-0.4-0.6-0.4C5.9-43.8,5.7-43.8,5.6-43.7z"/>
				</defs>
				<clipPath id="SVGID_14_">
					<use xlink:href="#SVGID_1033_"  style="overflow:visible;"/>
				</clipPath>
				<g class="st10">
					<defs>
						<rect id="SVGID_1035_" x="-620.1" y="-1228.3" width="1024" height="1789"/>
					</defs>
					<clipPath id="SVGID_16_">
						<use xlink:href="#SVGID_1035_"  style="overflow:visible;"/>
					</clipPath>
				</g>
			</g>
			<g>
				<defs>
					<path id="SVGID_1043_" d="M1.8-70c-0.3,0-0.5,0.1-0.8,0.2c-0.2,0.1-0.4,0.2-0.6,0.3c-0.1,0.2,0.1,0.4,0.1,0.5
						c0.1,0,0.2,0.1,0.2,0.1c0.2,0.2,0.4,0.1,0.6,0.1c0.2,0,0.4,0,0.6,0c0.1,0,0.1,0,0.2,0c0.2,0,0.3,0,0.5,0c0.2,0,0.4,0.1,0.6,0.1
						c0.2,0,0.5,0,0.7,0.1c0.4,0.1,0.6,0.3,0.8,0.6c0,0,0,0.1,0,0.1c0.1,0.3,0.2,0.5,0.4,0.8c0.2,0.3,0.3,0.6,0.3,1
						c0,0.3,0,0.6,0.1,0.8c0,0.3,0.1,0.5,0.2,0.8c0,0.5,0.1,1.1,0,1.6c0,0.1,0,0.3,0,0.4c0,0.2,0.1,0.3,0.1,0.5
						c-0.3,0-0.6-0.2-1-0.2c-0.1,0.1-0.2,0.2-0.2,0.3c-0.1,0.1-0.1,0.2-0.1,0.4c0.1,0.1,0.2,0.2,0.4,0.2c0.1,0,0.2,0,0.3,0
						c0.3,0.2,0.4,0.5,0.6,0.8C6-60.4,6-60.3,6.2-60.3c0.1-0.1,0.3-0.1,0.4-0.2c0.1,0.2,0.2,0.4,0.3,0.6c0.1,0.2,0.5,0.5,0.8,0.4
						c0.3-0.1,0.7,0,1,0.1c0.5,0.1,0.8,0,1-0.5c0,0,0-0.1,0-0.1c-0.1-0.1-0.1-0.3-0.2-0.4c0-0.1-0.1-0.1-0.2-0.1
						c-0.1,0-0.3,0-0.4,0.1c-0.2,0.1-0.4,0.1-0.5,0.1c-0.4-0.1-0.8-0.1-1.2,0c-0.1,0-0.1,0-0.2,0c-0.1,0-0.2,0-0.2-0.1
						c0.1-0.1,0.2-0.2,0.3-0.2c0.1,0,0.3,0,0.4-0.1c0.1-0.1,0.2-0.2,0.4-0.1c0.3,0.1,0.3,0,0.4-0.3c-0.1-0.2-0.2-0.5-0.4-0.6
						c-0.3-0.1-0.5,0-0.8,0c0,0-0.1-0.1-0.2-0.1c0-0.2,0-0.3,0-0.5c0-0.4,0.1-0.8,0-1.2c0-0.1-0.1-0.2-0.1-0.3
						c0.1-0.4-0.1-0.7,0-1.1c0,0,0-0.1,0-0.1c0-0.1,0-0.2,0-0.3c0-0.1,0-0.1,0-0.2c-0.1-0.3-0.1-0.7,0-1c0,0,0-0.1,0-0.1
						c-0.1-0.3-0.2-0.5-0.4-0.8c-0.2-0.2-0.4-0.4-0.6-0.6c-0.1-0.1-0.1-0.2-0.1-0.2c-0.1-0.1-0.1-0.2-0.2-0.3
						C5.3-69,5-69.2,4.7-69.2c-0.4-0.1-0.8-0.3-1.2-0.4C3.1-69.9,2.6-70,2.2-70C2.1-70,2-70,1.8-70z"/>
				</defs>
				<clipPath id="SVGID_18_">
					<use xlink:href="#SVGID_1043_"  style="overflow:visible;"/>
				</clipPath>
				<g class="st12">
					<defs>
						<rect id="SVGID_1045_" x="-620.1" y="-1228.3" width="1024" height="1789"/>
					</defs>
					<clipPath id="SVGID_20_">
						<use xlink:href="#SVGID_1045_"  style="overflow:visible;"/>
					</clipPath>
				</g>
			</g>
			<g>
				<defs>
					<path id="SVGID_1053_" d="M9-66.8c0-0.1,0-0.1,0.1-0.2c0.1-0.1,0.2-0.3,0.4-0.4c0,0,0.1-0.1,0.2-0.1c0.4,0,0.7,0,1.1-0.1
						c0.1,0,0.1,0,0.2,0c-0.1,0.2-0.3,0.3-0.4,0.4c-0.4,0.2-0.7,0.3-1.1,0.4c0,0-0.1,0-0.1,0C9.2-66.7,9.1-66.8,9-66.8z M11.2-67.5
						c0,0,0-0.1-0.1-0.2c0,0,0,0,0.1,0c0.1,0,0.1,0.1,0.2,0.1v0.1C11.3-67.5,11.3-67.5,11.2-67.5C11.2-67.5,11.2-67.5,11.2-67.5z
						 M9.9-68.1c-0.1,0-0.1,0-0.2-0.1c-0.2,0.1-0.4,0.1-0.6,0.3c-0.2,0.2-0.5,0.3-0.7,0.4C8.2-67.4,8-67.2,8-66.9
						c0,0.1-0.1,0.2-0.1,0.3c-0.1,0.1-0.1,0.2,0,0.3c0.2,0.2,0.4,0.4,0.7,0.6c0.2-0.1,0.4,0,0.5,0.1c0.1,0.1,0.3,0.1,0.4,0.1
						c0.2,0,0.5,0,0.7,0c0.2,0.1,0.3,0,0.5-0.1c0.1-0.1,0.2-0.2,0.4-0.3c0.2-0.2,0.5-0.3,0.5-0.6c0,0,0-0.1,0.1-0.1
						c0.2-0.2,0.3-0.4,0.5-0.5c0.3-0.2,0.2-0.3,0.1-0.7c0-0.1-0.1-0.2-0.1-0.2c-0.2-0.1-0.3-0.1-0.4-0.2c-0.3-0.1-0.6-0.1-0.9-0.1
						c-0.1,0-0.2,0-0.3,0C10.2-68.3,10-68.2,9.9-68.1z"/>
				</defs>
				<clipPath id="SVGID_22_">
					<use xlink:href="#SVGID_1053_"  style="overflow:visible;"/>
				</clipPath>
				<g class="st14">
					<defs>
						<rect id="SVGID_1055_" x="-620.1" y="-1228.3" width="1024" height="1789"/>
					</defs>
					<clipPath id="SVGID_24_">
						<use xlink:href="#SVGID_1055_"  style="overflow:visible;"/>
					</clipPath>
				</g>
			</g>
			<g>
				<defs>
					<path id="SVGID_1063_" d="M6.4-58.9C6.3-59,6.2-59,6.1-59c-0.3,0-0.5,0.1-0.8,0.1c-0.2,0-0.3,0-0.5,0.1
						c-0.2,0.1-0.4,0.2-0.5,0.5c0.1,0.2,0.3,0.4,0.4,0.6c0,0,0.1,0,0.1,0.1c0.3,0.2,0.9,0.1,1.2-0.2C6-57.9,6.1-58,6.2-58
						c0.2,0,0.3,0,0.5,0c0.2,0,0.5,0.1,0.7,0.1c0.2,0,0.3,0,0.5,0.2c0.3,0.2,0.5,0.1,0.6-0.2c0.1-0.3,0.1-0.5,0-0.8
						c-0.1,0-0.1-0.1-0.2-0.1c-0.3,0-0.5,0-0.8-0.1c0,0-0.1,0-0.1,0c-0.2,0-0.5,0-0.7-0.1c0,0,0,0-0.1,0C6.5-59,6.5-59,6.4-58.9z"/>
				</defs>
				<clipPath id="SVGID_26_">
					<use xlink:href="#SVGID_1063_"  style="overflow:visible;"/>
				</clipPath>
				<g class="st16">
					<defs>
						<rect id="SVGID_1065_" x="-620.1" y="-1228.3" width="1024" height="1789"/>
					</defs>
					<clipPath id="SVGID_28_">
						<use xlink:href="#SVGID_1065_"  style="overflow:visible;"/>
					</clipPath>
				</g>
			</g>
			<g>
				<defs>
					<path id="SVGID_1073_" d="M5.5-60.5c-0.2,0-0.4,0.1-0.6,0.1c0,0-0.1,0-0.1,0c-0.1,0-0.3,0.1-0.4,0.1c-0.1,0-0.2,0-0.3,0
						c-0.2,0-0.3,0.1-0.5,0c-0.1,0-0.2,0-0.3,0c-0.1,0.2-0.1,0.4,0.1,0.5c0.1,0.1,0.3,0.3,0.4,0.4c0.1,0.1,0.2,0.1,0.4,0.2
						c0.1,0,0.2,0,0.3,0.1c0.1,0.1,0.3,0.1,0.4,0.2C4.9-58.9,4.9-59,5-59.1c0.2-0.3,0.4-0.4,0.7-0.5c0.2,0,0.4-0.1,0.5-0.3
						c0-0.1-0.1-0.3-0.1-0.4C5.9-60.3,5.7-60.5,5.5-60.5C5.5-60.5,5.5-60.5,5.5-60.5z"/>
				</defs>
				<clipPath id="SVGID_30_">
					<use xlink:href="#SVGID_1073_"  style="overflow:visible;"/>
				</clipPath>
				<g class="st18">
					<defs>
						<rect id="SVGID_1075_" x="-620.1" y="-1228.3" width="1024" height="1789"/>
					</defs>
					<clipPath id="SVGID_32_">
						<use xlink:href="#SVGID_1075_"  style="overflow:visible;"/>
					</clipPath>
				</g>
			</g>
			<g>
				<defs>
					<path id="SVGID_1083_" d="M5.7-57.3c-0.1,0.2-0.1,0.3,0.1,0.5c0.1,0.1,0.3,0.2,0.5,0.2c0.3-0.1,0.6-0.2,0.8,0.1
						c0.2,0,0.4-0.1,0.5-0.2c0.1-0.1,0.2-0.3,0.1-0.4c-0.1-0.1-0.2-0.2-0.4-0.2c-0.1,0-0.1,0-0.2,0c-0.2,0-0.4,0-0.6-0.1
						c-0.1,0-0.2-0.1-0.2-0.1C6-57.5,5.8-57.4,5.7-57.3z"/>
				</defs>
				<clipPath id="SVGID_34_">
					<use xlink:href="#SVGID_1083_"  style="overflow:visible;"/>
				</clipPath>
				<g class="st20">
					<defs>
						<rect id="SVGID_1085_" x="-620.1" y="-1228.3" width="1024" height="1789"/>
					</defs>
					<clipPath id="SVGID_36_">
						<use xlink:href="#SVGID_1085_"  style="overflow:visible;"/>
					</clipPath>
				</g>
			</g>
		</g>
	</g>
	<rect x="-619.9" y="-1229.3" class="st516" width="1024" height="1789"/>
	<g>
		<defs>
			<rect id="SVGID_1093_" x="-177.4" y="-1.7" width="45.9" height="70.6"/>
		</defs>
		<clipPath id="SVGID_38_">
			<use xlink:href="#SVGID_1093_"  style="overflow:visible;"/>
		</clipPath>
		<g class="st22">
			<defs>
				<rect id="SVGID_1095_" x="-638.4" y="-1254" width="1024" height="1795.1"/>
			</defs>
			<clipPath id="SVGID_40_">
				<use xlink:href="#SVGID_1095_"  style="overflow:visible;"/>
			</clipPath>
		</g>
	</g>
	<g>
		<defs>
			<circle id="SVGID_1111_" cx="8" cy="8" r="7.5"/>
		</defs>
		<clipPath id="SVGID_42_">
			<use xlink:href="#SVGID_1111_"  style="overflow:visible;"/>
		</clipPath>
		<g class="st24">
			<defs>
				<rect id="SVGID_1113_" x="-50.5" y="-1598.5" width="1024" height="2323"/>
			</defs>
			<clipPath id="SVGID_44_">
				<use xlink:href="#SVGID_1113_"  style="overflow:visible;"/>
			</clipPath>
			<rect x="-4.5" y="-4.5" style="clip-path:url(#SVGID_44_);fill:#0788FC;" width="25" height="25"/>
		</g>
	</g>
	<g>
		<path class="st2" d="M8.8,5.2H7.1V3.7h1.7V5.2z M7.1,6h1.7v6.4H7.1V6z"/>
	</g>
</g>
</svg>
