<?xml version="1.0" encoding="utf-8"?>
<!-- Generator: Adobe Illustrator 23.0.4, SVG Export Plug-In . SVG Version: 6.00 Build 0)  -->
<svg version="1.1" id="Layer_1" xmlns="http://www.w3.org/2000/svg" xmlns:xlink="http://www.w3.org/1999/xlink" x="0px" y="0px"
	 viewBox="0 0 15.3 15.3" style="enable-background:new 0 0 15.3 15.3;" xml:space="preserve">
<style type="text/css">
	.st0{fill:#FFFFFF;}
	.st1{fill-rule:evenodd;clip-rule:evenodd;fill:#0788FC;}
	.st2{fill-rule:evenodd;clip-rule:evenodd;fill:#A5A5A5;}
	.st3{fill:#FFFFFF;stroke:#000000;stroke-width:0.25;stroke-miterlimit:10;}
</style>
<g>
	<circle class="st1" cx="7.7" cy="7.7" r="7.5"/>
	<g>
		<g>
			<g>
				<path class="st0" d="M8.6,6.7C8.5,6.6,8.4,6.5,8.2,6.4C7.9,6.2,7.6,6.1,7.2,6.1c-0.5,0-1.1,0.2-1.4,0.6L3.9,8.5
					C3.5,8.9,3.3,9.4,3.3,10c0,1.1,0.9,2,2,2c0.5,0,1.1-0.2,1.4-0.6l1.5-1.5V9.8c0-0.1-0.1-0.1-0.1-0.1l0,0c-0.3,0-0.6-0.1-0.9-0.2
					c-0.1,0-0.1,0-0.2,0l-1.1,1.1c-0.3,0.3-0.9,0.3-1.2,0s-0.3-0.9,0-1.2l1.9-1.9c0.3-0.3,0.9-0.3,1.2,0c0.2,0.2,0.6,0.2,0.8,0
					c0.1-0.1,0.2-0.2,0.2-0.4C8.8,7,8.6,6.8,8.6,6.7z"/>
			</g>
		</g>
		<g>
			<g>
				<path class="st0" d="M11.4,3.9c-0.8-0.8-2.1-0.8-2.9,0L7,5.4c0,0-0.1,0.1,0,0.2c0,0.1,0.1,0.1,0.1,0.1h0.1
					c0.3,0,0.6,0.1,0.9,0.2c0.1,0,0.1,0,0.2,0l1.1-1.1c0.3-0.3,0.9-0.3,1.2,0c0.3,0.3,0.3,0.9,0,1.2L9.1,7.3l0,0L8.6,7.8
					c-0.3,0.3-0.9,0.3-1.2,0c-0.2-0.2-0.6-0.2-0.8,0C6.6,7.9,6.5,8,6.5,8.2s0.1,0.3,0.2,0.4C6.9,8.8,7.1,8.9,7.3,9h0.1h0.1h0.1h0.1
					c0.1,0,0.1,0,0.2,0S7.9,9,8,9h0.1l0,0h0.1h0.1l0,0h0.1l0,0h0.1l0,0c0.4,0.1,0.7-0.1,1-0.4l1.9-1.9C12.1,6,12.1,4.7,11.4,3.9z"/>
			</g>
		</g>
	</g>
</g>
</svg>
