<?xml version="1.0" encoding="UTF-8"?>
<svg width="346px" height="423px" viewBox="0 0 346 423" version="1.1" xmlns="http://www.w3.org/2000/svg" xmlns:xlink="http://www.w3.org/1999/xlink">
    <!-- Generator: Sketch 55.2 (78181) - https://sketchapp.com -->
    <title>Group 28</title>
    <desc>Created with Sketch.</desc>
    <g id="Page-1" stroke="none" stroke-width="1" fill="none" fill-rule="evenodd" opacity="0.2">
        <g id="Card-Image-Viewer-–-missing-card-–-Desktop" transform="translate(-339.000000, -451.000000)">
            <g id="Group-28" transform="translate(339.000000, 451.000000)">
                <polygon id="Fill-79" fill="#FFFFFF" points="4 419 342 419 342 4 4 4"></polygon>
                <polygon id="Fill-80" fill="#EEEEEE" points="4 197 335 197 335 194 4 194"></polygon>
                <polygon id="Fill-81" fill="#EEEEEE" points="4 160 335 160 335 157 4 157"></polygon>
                <polygon id="Fill-82" fill="#EEEEEE" points="4 177.9925 335 177.9925 335 175.0075 4 175.0075"></polygon>
                <polygon id="Fill-83" fill="#EEEEEE" points="4 139.9925 335 139.9925 335 137.0075 4 137.0075"></polygon>
                <polygon id="Fill-84" fill="#EEEEEE" points="4 387.9925 335 387.9925 335 385.0075 4 385.0075"></polygon>
                <polygon id="Fill-85" fill="#EEEEEE" points="4 406.9925 335 406.9925 335 404.0075 4 404.0075"></polygon>
                <polygon id="Fill-86" fill="#EEEEEE" points="4 311.9925 335 311.9925 335 309.0075 4 309.0075"></polygon>
                <polygon id="Fill-87" fill="#EEEEEE" points="4 272.9925 335 272.9925 335 270.0075 4 270.0075"></polygon>
                <polygon id="Fill-88" fill="#EEEEEE" points="4 236 335 236 335 233 4 233"></polygon>
                <polygon id="Fill-89" fill="#EEEEEE" points="4 120.9925 335 120.9925 335 118.0075 4 118.0075"></polygon>
                <polygon id="Fill-90" fill="#EEEEEE" points="4 82.9925 335 82.9925 335 80.0075 4 80.0075"></polygon>
                <polygon id="Fill-91" fill="#EEEEEE" points="4 64 335 64 335 61 4 61"></polygon>
                <polygon id="Fill-92" fill="#EEEEEE" points="4 44.9925 335 44.9925 335 42.0075 4 42.0075"></polygon>
                <polygon id="Fill-93" fill="#EEEEEE" points="241.9925 411 245.0075 411 245.0075 4 241.9925 4"></polygon>
                <polygon id="Fill-94" fill="#EEEEEE" points="4 369 335 369 335 366 4 366"></polygon>
                <polygon id="Fill-95" fill="#EEEEEE" points="36.9925 411 40.0075 411 40.0075 4 36.9925 4"></polygon>
                <polygon id="Fill-96" fill="#EEEEEE" points="17 411 20 411 20 4 17 4"></polygon>
                <polygon id="Fill-97" fill="#EEEEEE" points="57 411 60 411 60 4 57 4"></polygon>
                <polygon id="Fill-98" fill="#EEEEEE" points="77 411 80 411 80 4 77 4"></polygon>
                <polygon id="Fill-99" fill="#EEEEEE" points="324.9925 411 328.0075 411 328.0075 4 324.9925 4"></polygon>
                <polygon id="Fill-100" fill="#EEEEEE" points="97.9925 411 101.0075 411 101.0075 4 97.9925 4"></polygon>
                <polygon id="Fill-101" fill="#EEEEEE" points="139 411 142 411 142 4 139 4"></polygon>
                <polygon id="Fill-102" fill="#EEEEEE" points="180.9925 411 184.0075 411 184.0075 4 180.9925 4"></polygon>
                <polygon id="Fill-103" fill="#EEEEEE" points="222 411 225 411 225 4 222 4"></polygon>
                <polygon id="Fill-104" fill="#EEEEEE" points="262.9925 411 266.0075 411 266.0075 4 262.9925 4"></polygon>
                <polygon id="Fill-105" fill="#EEEEEE" points="284 411 287 411 287 4 284 4"></polygon>
                <polygon id="Fill-106" fill="#EEEEEE" points="304 411 307 411 307 4 304 4"></polygon>
                <polygon id="Fill-107" fill="#EEEEEE" points="4 331 335 331 335 328 4 328"></polygon>
                <polygon id="Fill-108" fill="#EEEEEE" points="4 291.9925 335 291.9925 335 289.0075 4 289.0075"></polygon>
                <polygon id="Fill-109" fill="#EEEEEE" points="119 411 122 411 122 4 119 4"></polygon>
                <polygon id="Fill-110" fill="#EEEEEE" points="4 254.9925 335 254.9925 335 252.0075 4 252.0075"></polygon>
                <polygon id="Fill-111" fill="#EEEEEE" points="4 102 335 102 335 99 4 99"></polygon>
                <polygon id="Fill-112" fill="#EEEEEE" points="160 411 163 411 163 4 160 4"></polygon>
                <polygon id="Fill-113" fill="#EEEEEE" points="4 215.9925 335 215.9925 335 213.0075 4 213.0075"></polygon>
                <polygon id="Fill-114" fill="#EEEEEE" points="4 26 335 26 335 23 4 23"></polygon>
                <polygon id="Fill-115" fill="#EEEEEE" points="202 411 205 411 205 4 202 4"></polygon>
                <path d="M7.51096253,415.484276 L338.489037,415.484276 L338.489037,7.51572439 L7.51096253,7.51572439 L7.51096253,415.484276 Z M0,423 L346,423 L346,0 L0,0 L0,423 Z" id="Fill-116" fill="#000000"></path>
                <polygon id="Fill-117" fill="#000000" points="77 60 209 60 209 57 77 57"></polygon>
                <polygon id="Fill-118" fill="#000000" points="19 60 34 60 34 57 19 57"></polygon>
                <polygon id="Fill-119" fill="#000000" points="257 60 272 60 272 57 257 57"></polygon>
                <polygon id="Fill-120" fill="#000000" points="45 60 60 60 60 57 45 57"></polygon>
                <polygon id="Fill-121" fill="#000000" points="285 60 300 60 300 57 285 57"></polygon>
                <polygon id="Fill-122" fill="#000000" points="75 80 189 80 189 77 75 77"></polygon>
                <polygon id="Fill-123" fill="#000000" points="17 80 35 80 35 77 17 77"></polygon>
                <polygon id="Fill-124" fill="#000000" points="256 80 274 80 274 77 256 77"></polygon>
                <polygon id="Fill-125" fill="#000000" points="43 80 61 80 61 77 43 77"></polygon>
                <polygon id="Fill-126" fill="#000000" points="284 80 302 80 302 77 284 77"></polygon>
                <polygon id="Fill-127" fill="#000000" points="75 99 113 99 113 96 75 96"></polygon>
                <polygon id="Fill-128" fill="#000000" points="17 99 35 99 35 96 17 96"></polygon>
                <polygon id="Fill-129" fill="#000000" points="256 99 274 99 274 96 256 96"></polygon>
                <polygon id="Fill-130" fill="#000000" points="43 99 61 99 61 96 43 96"></polygon>
                <polygon id="Fill-131" fill="#000000" points="284 99 302 99 302 96 284 96"></polygon>
                <polygon id="Fill-132" fill="#000000" points="75 118.9925 196 118.9925 196 116.0075 75 116.0075"></polygon>
                <polygon id="Fill-133" fill="#000000" points="17 119 35 119 35 116 17 116"></polygon>
                <polygon id="Fill-134" fill="#000000" points="256 118.9925 274 118.9925 274 116.0075 256 116.0075"></polygon>
                <polygon id="Fill-135" fill="#000000" points="43 119 61 119 61 116 43 116"></polygon>
                <polygon id="Fill-136" fill="#000000" points="284 119 302 119 302 116 284 116"></polygon>
                <polygon id="Fill-137" fill="#000000" points="75 136.9925 161 136.9925 161 134.0075 75 134.0075"></polygon>
                <polygon id="Fill-138" fill="#000000" points="17 138 35 138 35 135 17 135"></polygon>
                <polygon id="Fill-139" fill="#000000" points="256 137.9925 274 137.9925 274 135.0075 256 135.0075"></polygon>
                <polygon id="Fill-140" fill="#000000" points="43 138 61 138 61 135 43 135"></polygon>
                <polygon id="Fill-141" fill="#000000" points="284 138 302 138 302 135 284 135"></polygon>
                <polygon id="Fill-142" fill="#000000" points="75 157.9925 210 157.9925 210 155.0075 75 155.0075"></polygon>
                <polygon id="Fill-143" fill="#000000" points="17 157.9925 35 157.9925 35 155.0075 17 155.0075"></polygon>
                <polygon id="Fill-144" fill="#000000" points="256 157.9925 274 157.9925 274 155.0075 256 155.0075"></polygon>
                <polygon id="Fill-145" fill="#000000" points="43 157.9925 61 157.9925 61 155.0075 43 155.0075"></polygon>
                <polygon id="Fill-146" fill="#000000" points="284 157.9925 302 157.9925 302 155.0075 284 155.0075"></polygon>
                <polygon id="Fill-147" fill="#000000" points="75 175.9925 144 175.9925 144 173.0075 75 173.0075"></polygon>
                <polygon id="Fill-148" fill="#000000" points="17 176.9925 35 176.9925 35 174.0075 17 174.0075"></polygon>
                <polygon id="Fill-149" fill="#000000" points="256 176.9925 274 176.9925 274 174.0075 256 174.0075"></polygon>
                <polygon id="Fill-150" fill="#000000" points="43 176.9925 61 176.9925 61 174.0075 43 174.0075"></polygon>
                <polygon id="Fill-151" fill="#000000" points="284 176.9925 302 176.9925 302 174.0075 284 174.0075"></polygon>
                <polygon id="Fill-152" fill="#000000" points="75 197.9925 202 197.9925 202 195.0075 75 195.0075"></polygon>
                <polygon id="Fill-153" fill="#000000" points="17 196.9925 35 196.9925 35 194.0075 17 194.0075"></polygon>
                <polygon id="Fill-154" fill="#000000" points="256 196.9925 274 196.9925 274 194.0075 256 194.0075"></polygon>
                <polygon id="Fill-155" fill="#000000" points="43 196.9925 61 196.9925 61 194.0075 43 194.0075"></polygon>
                <polygon id="Fill-156" fill="#000000" points="284 196.9925 302 196.9925 302 194.0075 284 194.0075"></polygon>
                <polygon id="Fill-157" fill="#000000" points="75 215.9925 175 215.9925 175 213.0075 75 213.0075"></polygon>
                <polygon id="Fill-158" fill="#000000" points="17 215.9925 35 215.9925 35 213.0075 17 213.0075"></polygon>
                <polygon id="Fill-159" fill="#000000" points="256 215.9925 274 215.9925 274 213.0075 256 213.0075"></polygon>
                <polygon id="Fill-160" fill="#000000" points="43 215.9925 61 215.9925 61 213.0075 43 213.0075"></polygon>
                <polygon id="Fill-161" fill="#000000" points="284 215.9925 302 215.9925 302 213.0075 284 213.0075"></polygon>
                <polygon id="Fill-162" fill="#000000" points="75 235.9925 210 235.9925 210 233.0075 75 233.0075"></polygon>
                <polygon id="Fill-163" fill="#000000" points="17 235.9925 35 235.9925 35 233.0075 17 233.0075"></polygon>
                <polygon id="Fill-164" fill="#000000" points="256 235.9925 274 235.9925 274 233.0075 256 233.0075"></polygon>
                <polygon id="Fill-165" fill="#000000" points="43 235.9925 61 235.9925 61 233.0075 43 233.0075"></polygon>
                <polygon id="Fill-166" fill="#000000" points="284 235.9925 302 235.9925 302 233.0075 284 233.0075"></polygon>
                <polygon id="Fill-167" fill="#000000" points="75 255.9925 228 255.9925 228 253.0075 75 253.0075"></polygon>
                <polygon id="Fill-168" fill="#000000" points="17 255.9925 35 255.9925 35 253.0075 17 253.0075"></polygon>
                <polygon id="Fill-169" fill="#000000" points="256 255.9925 274 255.9925 274 253.0075 256 253.0075"></polygon>
                <polygon id="Fill-170" fill="#000000" points="43 255.9925 61 255.9925 61 253.0075 43 253.0075"></polygon>
                <polygon id="Fill-171" fill="#000000" points="284 255.9925 302 255.9925 302 253.0075 284 253.0075"></polygon>
                <polygon id="Fill-172" fill="#000000" points="75 275 239 275 239 272 75 272"></polygon>
                <polygon id="Fill-173" fill="#000000" points="17 275.9925 35 275.9925 35 273.0075 17 273.0075"></polygon>
                <polygon id="Fill-174" fill="#000000" points="256 275.9925 274 275.9925 274 273.0075 256 273.0075"></polygon>
                <polygon id="Fill-175" fill="#000000" points="43 275.9925 61 275.9925 61 273.0075 43 273.0075"></polygon>
                <polygon id="Fill-176" fill="#000000" points="284 275.9925 302 275.9925 302 273.0075 284 273.0075"></polygon>
                <polygon id="Fill-177" fill="#000000" points="75 294 230 294 230 291 75 291"></polygon>
                <polygon id="Fill-178" fill="#000000" points="17 294 35 294 35 291 17 291"></polygon>
                <polygon id="Fill-179" fill="#000000" points="256 294 274 294 274 291 256 291"></polygon>
                <polygon id="Fill-180" fill="#000000" points="43 294 61 294 61 291 43 291"></polygon>
                <polygon id="Fill-181" fill="#000000" points="284 294 302 294 302 291 284 291"></polygon>
                <polygon id="Fill-182" fill="#000000" points="77 313.9925 139 313.9925 139 311.0075 77 311.0075"></polygon>
                <polygon id="Fill-183" fill="#000000" points="19 314.9925 34 314.9925 34 312.0075 19 312.0075"></polygon>
                <polygon id="Fill-184" fill="#000000" points="257 314.9925 272 314.9925 272 312.0075 257 312.0075"></polygon>
                <polygon id="Fill-185" fill="#000000" points="45 314.9925 60 314.9925 60 312.0075 45 312.0075"></polygon>
                <polygon id="Fill-186" fill="#000000" points="285 314.9925 300 314.9925 300 312.0075 285 312.0075"></polygon>
                <polygon id="Fill-45" fill="#EEEEEE" points="7 350 338 350 338 347 7 347"></polygon>
            </g>
        </g>
    </g>
</svg>