<?xml version="1.0" encoding="utf-8"?>
<!-- Generator: Adobe Illustrator 23.0.0, SVG Export Plug-In . SVG Version: 6.00 Build 0)  -->
<svg version="1.1" id="Layer_1" xmlns="http://www.w3.org/2000/svg" xmlns:xlink="http://www.w3.org/1999/xlink" x="0px" y="0px"
	 viewBox="0 0 15.33 15.3" style="enable-background:new 0 0 15.33 15.3;" xml:space="preserve">
<style type="text/css">
	.st0{fill-rule:evenodd;clip-rule:evenodd;fill:#0788FC;}
	.st1{fill-rule:evenodd;clip-rule:evenodd;fill:#07AE79;}
	.st2{fill:#FFFFFF;}
</style>
<circle class="st0" cx="7.63" cy="7.63" r="7.5"/>
<g>
	<path class="st2" d="M5.92,3.85c0.46-0.3,1.03-0.45,1.7-0.45c0.88,0,1.62,0.21,2.2,0.63s0.88,1.05,0.88,1.88
		c0,0.51-0.13,0.94-0.38,1.28C10.17,7.41,9.88,7.68,9.46,8L9.05,8.33C8.82,8.5,8.67,8.71,8.6,8.94C8.55,9.09,8.52,9.32,8.52,9.63
		H6.93c0.02-0.66,0.09-1.12,0.19-1.37S7.48,7.72,7.9,7.39l0.43-0.33c0.14-0.11,0.25-0.22,0.34-0.35C8.82,6.5,8.9,6.26,8.9,6.01
		c0-0.3-0.09-0.57-0.26-0.81S8.15,4.83,7.69,4.83c-0.45,0-0.77,0.15-0.96,0.45c-0.19,0.3-0.28,0.61-0.28,0.94H4.75
		C4.8,5.1,5.19,4.31,5.92,3.85z M6.89,10.43h1.75v1.69H6.89V10.43z"/>
</g>
</svg>
