<?xml version="1.0" encoding="utf-8"?>
<!-- Generator: Adobe Illustrator 23.0.0, SVG Export Plug-In . SVG Version: 6.00 Build 0)  -->
<svg version="1.1" id="Layer_1" xmlns="http://www.w3.org/2000/svg" xmlns:xlink="http://www.w3.org/1999/xlink" x="0px" y="0px"
	 viewBox="0 0 19.16 19.93" style="enable-background:new 0 0 19.16 19.93;" xml:space="preserve">
<style type="text/css">
	.st0{fill-rule:evenodd;clip-rule:evenodd;fill:#07AE79;}
	.st1{fill:#FFFFFF;}
	.st2{fill-rule:evenodd;clip-rule:evenodd;fill:#0788FC;}
	.st3{fill-rule:evenodd;clip-rule:evenodd;fill:#737373;}
</style>
<path class="st3" d="M18.89,18.23l-4.71-4.71c1.2-1.38,1.94-3.18,1.94-5.15c0-4.34-3.53-7.87-7.87-7.87c-4.34,0-7.87,3.53-7.87,7.87
	s3.53,7.87,7.87,7.87c1.65,0,3.18-0.51,4.44-1.38l4.78,4.78L18.89,18.23z M2.38,8.37c0-3.23,2.63-5.87,5.87-5.87
	s5.87,2.63,5.87,5.87c0,3.24-2.63,5.87-5.87,5.87S2.38,11.61,2.38,8.37z"/>
</svg>
