<?xml version="1.0" encoding="utf-8"?>
<!-- Generator: Adobe Illustrator 23.0.0, SVG Export Plug-In . SVG Version: 6.00 Build 0)  -->
<svg version="1.1" id="Layer_1" xmlns="http://www.w3.org/2000/svg" xmlns:xlink="http://www.w3.org/1999/xlink" x="0px" y="0px"
	 viewBox="0 0 20.19 16.86" style="enable-background:new 0 0 20.19 16.86;" xml:space="preserve">
<style type="text/css">
	.st0{fill-rule:evenodd;clip-rule:evenodd;fill:#07AE79;}
	.st1{fill:#FFFFFF;}
	.st2{fill-rule:evenodd;clip-rule:evenodd;fill:#0788FC;}
	.st3{fill-rule:evenodd;clip-rule:evenodd;fill:#737373;}
	.st4{clip-path:url(#SVGID_2_);fill:#231F20;}
	.st5{clip-path:url(#SVGID_4_);enable-background:new    ;}
	.st6{clip-path:url(#SVGID_6_);}
	.st7{clip-path:url(#SVGID_8_);}
	.st8{clip-path:url(#SVGID_10_);fill:#231F20;}
	.st9{clip-path:url(#SVGID_12_);fill:#231F20;}
	.st10{clip-path:url(#SVGID_14_);enable-background:new    ;}
	.st11{clip-path:url(#SVGID_16_);}
	.st12{clip-path:url(#SVGID_18_);}
	.st13{clip-path:url(#SVGID_20_);fill:#231F20;}
	.st14{clip-path:url(#SVGID_22_);fill:none;stroke:#FFFFFF;stroke-miterlimit:10;}
</style>
<g>
	<defs>
		<path id="SVGID_11_" d="M20.09,2.07c-0.74,0.33-1.53,0.56-2.36,0.66c0.85-0.52,1.5-1.34,1.8-2.33c-0.79,0.48-1.67,0.83-2.61,1.02
			c-0.75-0.82-1.81-1.33-3-1.33c-2.26,0-4.1,1.88-4.1,4.21c0,0.33,0.03,0.65,0.1,0.96c-3.41-0.18-6.43-1.85-8.46-4.4
			C1.13,1.49,0.93,2.22,0.93,2.99c0,1.46,0.72,2.75,1.83,3.5C2.09,6.47,1.45,6.28,0.9,5.96v0.05c0,2.04,1.41,3.74,3.29,4.13
			c-0.34,0.1-0.71,0.15-1.08,0.15c-0.26,0-0.52-0.03-0.77-0.07c0.52,1.67,2.04,2.89,3.83,2.92c-1.4,1.13-3.17,1.8-5.1,1.8
			c-0.33,0-0.66-0.02-0.98-0.06c1.82,1.19,3.97,1.89,6.29,1.89c7.55,0,11.67-6.41,11.67-11.97c0-0.18,0-0.37-0.01-0.55
			C18.85,3.66,19.55,2.92,20.09,2.07"/>
	</defs>
	<clipPath id="SVGID_2_">
		<use xlink:href="#SVGID_11_"  style="overflow:visible;"/>
	</clipPath>
	<rect x="-4.91" y="-4.9" class="st4" width="30" height="26.67"/>
</g>
</svg>
