<svg id="Layer_1" data-name="Layer 1" xmlns="http://www.w3.org/2000/svg" viewBox="0 0 144 54">
  <defs>
    <style>
      .cls-1 {
        fill: none;
      }

      .cls-2 {
        fill: #1c1b1a;
      }
    </style>
  </defs>
  <title>Artboard 2</title>
  <rect class="cls-1" x="9.96875" y="2.7256" width="124.52345" height="46.66502"/>
  <path class="cls-2" d="M126.3994,16.2124a.33216.33216,0,0,0-.0332-.1543h-.25c-.5449,0-.8926.0234-1.875.0234-.3379,0-.8398-.0234-.959-.0234h-.2832c-.0332.0234-.0449.1426-.0449.1856a.28835.28835,0,0,0,.0547.1855,4.66985,4.66985,0,0,1,1.123.3164,2.13011,2.13011,0,0,1,.3164,1.1133c.0098.1621.0215.3262.0215.7734v2.2774a4.26621,4.26621,0,0,1-.0215.4687c-.1855-.207-.4472-.5976-.8828-1.0898l-3.6425-4.0332a.75628.75628,0,0,0-.1622-.1426c-.0878,0-.2402-.0098-.3261-.0098-.6992,0-1.9629-.0332-2.1485-.0332a.41151.41151,0,0,0-.0449.1524,1.87,1.87,0,0,0,.0332.207,1.50909,1.50909,0,0,1,.8184.4141,3.72126,3.72126,0,0,1,.5761.6875.95007.95007,0,0,1,.045.3496c0,.5664-.0332,1.3613-.0332,2.125v2.2129a4.80954,4.80954,0,0,1-.0645.8281,2.284,2.284,0,0,1-1.1445.5566.59575.59575,0,0,0-.043.1953c0,.0332.0098.1426.0313.1543h.207c.2187,0,.7207-.0332,1.0469-.0332.4804,0,.8066.0332,1.2539.0332h.6543c.0429-.0117.0547-.1425.0547-.1855a.51111.51111,0,0,0-.0332-.1758,2.088,2.088,0,0,1-1.3086-.6758,6.17282,6.17282,0,0,1-.1407-1.3515c0-.3477-.0117-.8282-.0117-1.4707,0-.8633.0117-1.6153.0215-1.9961.0664.0761.1426.1738.1973.2402l5.0371,5.6582c.0527.0547.25.0645.3047.0645a.26463.26463,0,0,0,.1308-.0215,1.23725,1.23725,0,0,0,.0977-.4903c0-.3144-.0117-.6425-.0117-.8066V18.1968c0-1.3633.6445-1.7461,1.3964-1.7774a.46975.46975,0,0,0,.043-.207m-12.4941,3.4648a5.15337,5.15337,0,0,1-1.0782,3.6094,1.76775,1.76775,0,0,1-1.1562.3926,1.62983,1.62983,0,0,1-1.4492-.7305,5.79667,5.79667,0,0,1-.6446-2.834,4.26155,4.26155,0,0,1,1.0899-3.2812,1.74061,1.74061,0,0,1,1.1348-.4258,1.8146,1.8146,0,0,1,1.4824.752,4.20209,4.20209,0,0,1,.6211,2.5175m1.9726.209a3.65246,3.65246,0,0,0-1.9394-3.3906,4.21547,4.21547,0,0,0-2.0723-.5566,4.43687,4.43687,0,0,0-3.6738,2.0273,4.16855,4.16855,0,0,0-.6309,2.2031,3.91341,3.91341,0,0,0,4.0449,3.9785,4.51336,4.51336,0,0,0,1.6563-.3164,3.9144,3.9144,0,0,0,1.5156-1.0351,4.21137,4.21137,0,0,0,1.0996-2.9102m-9.582-1.375V16.2886c0-.1641-.0645-.2071-.2285-.2071-.3281,0-2.0488.043-3.793.043-1.3535,0-2.4765-.0215-3.0859-.0215h-.8086c-.1406,0-.1836.0313-.1836.1856v2.082a.31147.31147,0,0,0,.1738.043.91.91,0,0,0,.2403-.0215,3.66873,3.66873,0,0,1,1.5273-1.8203c.3262-.0332.9687-.043,1.1426-.043.0117.1191.0234.5.0332.959.0117.7832.0117,1.123.0117,2.9746,0,1.6035-.0117,2.3242-.0332,2.498-.043.3047.0117.5333-1.2969.5879a.62638.62638,0,0,0-.0332.25.888.888,0,0,0,.0117.1758h.4239c.4043,0,1.3515-.0449,1.7461-.0449.3144,0,1.33.0332,1.9941.0332h.3047a.54694.54694,0,0,0,.0332-.2285.40875.40875,0,0,0-.043-.1953,2.25888,2.25888,0,0,1-1.123-.2071,3.34657,3.34657,0,0,1-.0996-.8183c-.0098-1.1778-.0215-1.625-.0215-2.4102,0-1.0136.0117-1.6992.0117-3.5859.1523,0,.5019-.0117.8281,0a2.12472,2.12472,0,0,1,1.2969.8281,5.39486,5.39486,0,0,1,.5781,1.1895.60826.60826,0,0,0,.1856.0195.54791.54791,0,0,0,.207-.043m-9.3965,3.543a2.36872,2.36872,0,0,0-.0117-.3145.24312.24312,0,0,0-.1641-.0332.91673.91673,0,0,0-.2402.0215,4.154,4.154,0,0,1-1.1992,1.668,1.68719,1.68719,0,0,1-.8184.1191h-.8926a3.82206,3.82206,0,0,1-.7187-.0547c-.1641-.0312-.3379-.2929-.4141-.4667a1.14494,1.14494,0,0,1-.1211-.6875V19.9175h.4043a1.73262,1.73262,0,0,1,.6641.1543.98916.98916,0,0,1,.4902.457,3.72777,3.72777,0,0,1,.1856.9043.73677.73677,0,0,0,.2851.043.38443.38443,0,0,0,.2168-.0528c0-.2949-.0664-1.0898-.0664-1.5273,0-.5449.0762-1.2969.1094-1.6895a.47338.47338,0,0,0-.2168-.0429.79541.79541,0,0,0-.2832.0332c-.0332.1504-.1543.6094-.1758.6426a1.3107,1.3107,0,0,1-.7402.5664,2.83943,2.83943,0,0,1-.6328.0879h-.2285V18.478c0-1.0449.0214-1.3828.0312-1.5801.0117-.1308.0332-.2714.0449-.3691a4.30593,4.30593,0,0,1,.6543-.0234c.6309,0,.9258.0117,1.0235.0117a1.21778,1.21778,0,0,1,.6992.2187,4.58136,4.58136,0,0,1,1.0449,1.3516.88123.88123,0,0,0,.2305.0215c.0644,0,.0761-.0215.164-.0664,0-.6641-.0449-1.5254-.0664-1.7988-.0117-.1094-.0332-.1407-.25-.1407-.0879,0-.5019-.0215-.9375-.0215-.6211,0-.873.0098-1.8222.0098-.5118,0-1.5704.0117-2.0176.0117-.6524,0-1.209-.0215-1.4922-.0215h-.3711a.35516.35516,0,0,0-.0547.1739.48193.48193,0,0,0,.0547.2168,5.55675,5.55675,0,0,1,.7969.1211.89309.89309,0,0,1,.3906.7089c.0234.2286.0332.8614.0332,1.3633v2.2442c0,.459-.0098,1.123-.0215,1.3965a3.13664,3.13664,0,0,1-.2383,1.0351,2.86989,2.86989,0,0,1-.9824.1641.63068.63068,0,0,0-.0547.2402.40263.40263,0,0,0,.0547.1953h.3594c.3496,0,1.6348-.0332,1.9297-.0332.2734,0,.7969.0215,1.4277.0215.3496,0,1.375.0664,3.5762.0664a.92631.92631,0,0,0,.2949-.0215.32536.32536,0,0,0,.043-.1758c.0234-.2168.0234-.8613.0234-1.7441m-9.2226.3828a.3636.3636,0,0,0-.3711-.2617c-.0235,0-.0567.0098-.0762.0098a2.57481,2.57481,0,0,1-2.1934,1.2753A2.385,2.385,0,0,1,82.835,22.021a5.95382,5.95382,0,0,1-.3379-1.9824,4.80663,4.80663,0,0,1,.3261-1.9082c.4805-1.2637,1.1778-1.6582,2.0293-1.6582a2.23085,2.23085,0,0,1,1.7442.9824,4.868,4.868,0,0,1,.5547,1.3203,1.15614,1.15614,0,0,0,.2402.0313.55258.55258,0,0,0,.2617-.0977c-.0097-.1211-.1191-.959-.1191-1.2207,0-.3281.0859-.8613.0859-1.0684a.8872.8872,0,0,0-.4238-.1211,2.24579,2.24579,0,0,0-.3711.4473,3.59517,3.59517,0,0,0-2.4199-.7734,3.72894,3.72894,0,0,0-2.7383,1.0781,4.14564,4.14564,0,0,0-1.166,3.0742,3.987,3.987,0,0,0,1.5371,3.2598,4.33572,4.33572,0,0,0,2.541.7324,3.3789,3.3789,0,0,0,2.791-1.168,2.27126,2.27126,0,0,0,.3067-.5117m-8.4825-6.2246a.35767.35767,0,0,0-.0332-.1543h-.2519c-.5449,0-.8926.0234-1.875.0234-.3379,0-.8399-.0234-.959-.0234H75.792c-.0332.0234-.0449.1426-.0449.1856a.27929.27929,0,0,0,.0566.1855,4.72089,4.72089,0,0,1,1.1231.3164,2.14909,2.14909,0,0,1,.3144,1.1133c.0117.1621.0234.3262.0234.7734v2.2774a3.7088,3.7088,0,0,1-.0234.4687c-.1836-.207-.4473-.5976-.8828-1.0898l-3.6387-4.0332a.75883.75883,0,0,0-.164-.1426c-.0879,0-.2403-.0098-.3262-.0098-.6992,0-1.9629-.0332-2.1484-.0332a.40751.40751,0,0,0-.043.1524,1.85876,1.85876,0,0,0,.0312.207,1.50909,1.50909,0,0,1,.8184.4141,3.65757,3.65757,0,0,1,.5781.6875.95762.95762,0,0,1,.043.3496c0,.5664-.0313,1.3613-.0313,2.125v2.2129a4.77145,4.77145,0,0,1-.0664.8281,2.284,2.284,0,0,1-1.1445.5566.65161.65161,0,0,0-.043.1953c0,.0332.0098.1426.0313.1543h.207c.2188,0,.7207-.0332,1.0469-.0332.4805,0,.8066.0332,1.2539.0332h.6523c.043-.0117.0547-.1425.0547-.1855a.50884.50884,0,0,0-.0332-.1758,2.08394,2.08394,0,0,1-1.3066-.6758,6.3,6.3,0,0,1-.1406-1.3515c0-.3477-.0118-.8282-.0118-1.4707,0-.8633.0118-1.6153.0215-1.9961.0664.0761.1426.1738.1973.2402l5.0351,5.6582a.61382.61382,0,0,0,.3047.0645.25762.25762,0,0,0,.1309-.0215,1.23782,1.23782,0,0,0,.0976-.4903c0-.3144-.0117-.6425-.0117-.8066V18.1968c0-1.3633.6446-1.7461,1.3965-1.7774a.47257.47257,0,0,0,.0449-.207M68.4131,23.7671a.71318.71318,0,0,0-.0332-.2188,7.5676,7.5676,0,0,1-.8067-.0976,1.72287,1.72287,0,0,1-.3711-.8399c-.0097-.5234-.0214-1.6035-.0214-2.6152V17.312a.85305.85305,0,0,1,.1972-.5879,1.85754,1.85754,0,0,1,.9707-.2832.70025.70025,0,0,0,.0313-.207.32237.32237,0,0,0-.0547-.1758h-.3164c-.457,0-1.5254.0547-1.8965.0547-.2285,0-1.2969-.0313-1.7773-.043h-.2383a.2658.2658,0,0,0-.0547.1856,1.38468,1.38468,0,0,0,.0215.207,2.30112,2.30112,0,0,1,.8496.1523,1.20433,1.20433,0,0,1,.3613.9278c.0098.207.0195.6543.0313,1.6562.0117.545.0214,1.3086.0214,1.9395,0,.3164-.0214,1.0254-.0332,1.4082a1.87932,1.87932,0,0,1-.1503.6543c-.1309.1074-.2637.3047-1.0586.3594a.83861.83861,0,0,0-.0332.2285c0,.0879.0214.1308.0214.1855h.1856c.4375,0,1.5273-.0547,2.0937-.0547.1641,0,1.2969.0332,1.6563.0332h.3613a.437.437,0,0,0,.043-.1855m-8.7442-5.6914a1.69882,1.69882,0,0,1-.9902,1.582,3.77293,3.77293,0,0,1-.8945.086,2.68639,2.68639,0,0,1-.4043-.0215l-.0117-.9278V16.7886a.34987.34987,0,0,1,.0664-.2403,1.11632,1.11632,0,0,1,.459-.0644c.8496,0,1.2207.0762,1.5253.5898a1.92874,1.92874,0,0,1,.25,1.002m3.1622,5.7031a.5343.5343,0,0,0-.0547-.2305,1.68917,1.68917,0,0,1-.7188-.1406,2.395,2.395,0,0,1-.1855-.2734,11.71174,11.71174,0,0,0-.4688-1.2539,4.12306,4.12306,0,0,0-.8066-1.2969,3.35363,3.35363,0,0,0-.8184-.3594c-.1738-.0664-.3164-.1211-.4472-.1758a3.82791,3.82791,0,0,1,.4472-.0644,1.9357,1.9357,0,0,0,1.1992-.4043,1.71629,1.71629,0,0,0,.6758-1.416A2.09289,2.09289,0,0,0,60.29,16.1792a5.314,5.314,0,0,0-1.3066-.1211c-.8184,0-1.9629.0762-2.5078.0762-.1641,0-1.1133-.0215-1.4942-.0215-.164,0-.5781-.0215-.6425-.0215a.63918.63918,0,0,0-.0547.207,1.14127,1.14127,0,0,0,.0215.1973c.1855.0215.5234.0645.6972.0977a1.27126,1.27126,0,0,1,.4571.5879,27.29213,27.29213,0,0,1,.0664,2.7812c0,1.1113.0117,2.3984-.043,2.8125a.83521.83521,0,0,1-.4473.7305,6.17605,6.17605,0,0,1-.6211.0761.53085.53085,0,0,0-.0546.2168.68629.68629,0,0,0,.0429.1758c.1543,0,1.8223-.0332,2.1699-.0332.6973,0,1.2872.0332,1.9082.0332a.47555.47555,0,0,0,.043-.164.661.661,0,0,0-.043-.2286c-.2187-.0214-.4902-.0878-.6113-.1093a.81923.81923,0,0,1-.4687-.7735l-.0098-2.5195a2.7155,2.7155,0,0,1,.2832-.0098,1.0896,1.0896,0,0,1,.5762.1739,2.08714,2.08714,0,0,1,.8633.7949,6.64625,6.64625,0,0,1,.6855,2.3457c.0332.2285.1191.4238.3281.4453.086.0117.6641.0332,1.0782.0332h1.5605a.2964.2964,0,0,0,.0645-.1836M50.9912,18.1304a1.79183,1.79183,0,0,1-.5547,1.3633,1.788,1.788,0,0,1-1.1347.2929,3.5475,3.5475,0,0,1-.4688-.0215c-.0879-.0097-.1426-.0214-.1426-.0761l.0117-3.1934a4.6451,4.6451,0,0,1,.6329-.0547c.7402,0,1.1992.1856,1.416.6426a2.32226,2.32226,0,0,1,.2402,1.0469m1.9512.0429a2.088,2.088,0,0,0-1.166-1.8964,5.44711,5.44711,0,0,0-1.9512-.25c-.8398,0-2.1484.0644-2.7246.0644-.4043,0-1.0156-.043-1.3535-.043a.39578.39578,0,0,0-.0547.1739.52944.52944,0,0,0,.0332.2187c.207.0645.5449.1192.7637.1738a.93454.93454,0,0,1,.2929.6211c.0332.3829.0547.8614.0547,1.6895,0,2.3008-.0098,3.5117-.043,3.7734a.92894.92894,0,0,1-.621.7735,6.05589,6.05589,0,0,1-.6329.1093,1.26441,1.26441,0,0,0-.0214.2286.312.312,0,0,0,.0312.1523c.3496,0,1.375-.043,1.7676-.043.9707,0,1.9629.043,2.3652.043h.2735a.30623.30623,0,0,0,.0332-.1738.51094.51094,0,0,0-.0235-.1973,1.77043,1.77043,0,0,1-1.0234-.3476.93227.93227,0,0,1-.2188-.6446l-.0332-2.3965c.6543.043,1.3516.0645,1.7344.0645a4.159,4.159,0,0,0,1.2637-.1953,2.00177,2.00177,0,0,0,1.2539-1.8985"/>
  <path class="cls-2" d="M126.5732,28.3721c0-.0645-.0429-.086-.0644-.1309-.4473,0-1.0352.0332-1.2656.0332-.5547,0-1.2305-.0449-1.5254-.0449-.0332.0664-.0449.0781-.0449.1328a.38368.38368,0,0,0,.0234.1309c.3164.0644.7734.1406.8613.2929a.79784.79784,0,0,1,.0977.4258,1.04572,1.04572,0,0,1-.0664.4043c-.0977.2715-.3047.6973-.5977,1.2969-.5019,1.0137-.8183,1.6445-.9941,1.8965-.2832-.4805-.9141-1.7442-1.0664-2.0703l-.6114-1.3301a1.019,1.019,0,0,1-.0429-.2949.71814.71814,0,0,1,.0429-.2832c.0977-.1973.4356-.2188.8946-.2735a.49228.49228,0,0,0,.0312-.164c0-.0762-.0312-.0547-.0644-.1075h-.1953c-.7325,0-.5137.0313-1.7676.0313-.5332,0-1.1778-.0313-1.2637-.0313-.0449.0762-.0664.086-.0664.1621a.22425.22425,0,0,0,.0449.1309c.7285.1758.9473.3047,1.0235.4473l1.9082,3.7402a4.2615,4.2615,0,0,1,.3496.8164,6.0734,6.0734,0,0,1,.0879,1.3086.92553.92553,0,0,1-.3497.8398,5.18713,5.18713,0,0,1-.873.1426.26289.26289,0,0,0-.0547.1524.4279.4279,0,0,0,.0332.1308c.5567,0,1.1348-.0117,1.461-.0117.2285,0,.5781.0117,1.2207.0215.3711.0117.6543.0234.8496.0234a.31415.31415,0,0,0,.0566-.1425.24064.24064,0,0,0-.0449-.1426,2.60106,2.60106,0,0,1-.9473-.2188.83488.83488,0,0,1-.2851-.6953l-.086-1.6367a.63921.63921,0,0,1,.043-.2617,1.74413,1.74413,0,0,1,.1191-.3047l1.6797-3.3262a2.25584,2.25584,0,0,1,.6973-.7285,2.99708,2.99708,0,0,1,.709-.2188.37771.37771,0,0,0,.0429-.1425m-8.8066,2.2461V28.5029c0-.164-.0664-.207-.2305-.207-.3261,0-1.832.043-3.5761.043-1.3516,0-2.2559-.0215-2.8672-.0215h-.8067c-.1406,0-.1855.0332-.1855.1855v1.9727a.19416.19416,0,0,0,.1308.0449.27634.27634,0,0,0,.1309-.0215c.4258-.9492.6426-1.4511,1.375-1.8222.3262-.0313,1.4707-.043,1.6445-.043.0118.1211.0235.5019.0332.959.0118.7851.0118,1.2109.0118,3.0644,0,1.6016-.0118,2.4317-.0332,2.6055-.043.3047.0117.5332-1.2969.5879a.35059.35059,0,0,0-.0332.1855.4888.4888,0,0,0,.0117.1309h.4238c.4043,0,.9375-.043,1.3301-.043.3164,0,.916.0332,1.582.0332h.3047a.29265.29265,0,0,0,.0332-.164.24238.24238,0,0,0-.0449-.1524,2.2662,2.2662,0,0,1-1.123-.207,3.3603,3.3603,0,0,1-.0977-.8184c-.0098-1.1777-.0215-1.7324-.0215-2.5175,0-1.0137.0117-1.7891.0117-3.6739.1524,0,.959-.0117,1.2871,0a1.95961,1.95961,0,0,1,1.2305.8281,3.46967,3.46967,0,0,1,.4902,1.1875.43248.43248,0,0,0,.1641.0215.21009.21009,0,0,0,.1211-.0429m-9.0605,5.3847a.35664.35664,0,0,0-.0332-.1523,7.65426,7.65426,0,0,1-.8067-.0977,1.72247,1.72247,0,0,1-.3711-.8398c-.0097-.5235-.0215-1.711-.0215-2.7246V29.4189a.87361.87361,0,0,1,.1953-.5878,1.86279,1.86279,0,0,1,.9707-.2852.33669.33669,0,0,0,.0333-.1406.18285.18285,0,0,0-.0547-.1309h-.3145c-.459,0-1.1133.0547-1.4844.0547-.2285,0-.8828-.0332-1.3632-.043h-.2403a.159.159,0,0,0-.0527.1407.70421.70421,0,0,0,.0215.1425,2.29761,2.29761,0,0,1,.8496.1524,1.204,1.204,0,0,1,.3613.9277c.0098.2051.0195.7617.0313,1.7656.0117.545.0214,1.2852.0214,1.918,0,.3164-.0214,1.1328-.0332,1.5156a1.8651,1.8651,0,0,1-.1504.6543c-.1328.1094-.2636.3047-1.0585.3594a.44719.44719,0,0,0-.0332.1641c0,.0879.0214.0879.0214.1406h.1856c.4375,0,1.1133-.0527,1.6797-.0527.164,0,.8828.0312,1.2441.0312h.3574a.26239.26239,0,0,0,.045-.1426m-5.3868-2.0058a2.02255,2.02255,0,0,0-1.2324-1.918,5.94934,5.94934,0,0,0-1.209-.4355,8.039,8.039,0,0,1-1.582-.5997,1.3117,1.3117,0,0,1-.6426-1.1894,1.4432,1.4432,0,0,1,1.5371-1.2754,1.8312,1.8312,0,0,1,1.4942.7637,5.53735,5.53735,0,0,1,.6758,1.2422.30219.30219,0,0,0,.3496-.086,8.53995,8.53995,0,0,1-.0879-.9824,5.65478,5.65478,0,0,1,.0996-.8496.33761.33761,0,0,0-.3281-.1524,2.35458,2.35458,0,0,0-.4258.3926,2.72978,2.72978,0,0,0-1.8535-.6777,2.133,2.133,0,0,0-2.2989,2.084,2.19631,2.19631,0,0,0,.4024,1.1992,2.365,2.365,0,0,0,1.0586.7949c.3144.1309,1.7324.5567,1.9277.6328.873.3379,1.2012.6328,1.2012,1.4063a1.70462,1.70462,0,0,1-.4805,1.1015,1.52445,1.52445,0,0,1-1.2109.5118,2.4424,2.4424,0,0,1-1.8321-.8067,5.16586,5.16586,0,0,1-.7402-1.4726.40816.40816,0,0,0-.1523-.0196.36868.36868,0,0,0-.2071.0645c0,.1426.043.8613.043,1.0781a4.58265,4.58265,0,0,1-.1191.9727.41566.41566,0,0,0,.3496.2168,1.52767,1.52767,0,0,1,.5449-.3496.51382.51382,0,0,1,.2598.0996,3.16216,3.16216,0,0,0,1.8222.5449c1.5371,0,2.6367-.7754,2.6367-2.291m-9.6484-3.7598a1.76247,1.76247,0,0,1-1.1973,1.625,6.07784,6.07784,0,0,1-1.1347.0859c-.1309,0-.502,0-.666-.0214l-.0098-.959V28.9072c0-.1426.0332-.2187.0762-.2519a3.681,3.681,0,0,1,.7617-.0645c1.0254,0,1.4941.0977,1.8652.6309a1.718,1.718,0,0,1,.3047,1.0156M95.96,36.0146a.288.288,0,0,0-.0528-.164,1.699,1.699,0,0,1-.7207-.1406,2.677,2.677,0,0,1-.1855-.2735,13.67341,13.67341,0,0,0-.4571-1.3613,4.10215,4.10215,0,0,0-.8066-1.2988,3.05707,3.05707,0,0,0-.7852-.3594c-.1738-.0664-.3164-.1191-.4472-.1738a4.2391,4.2391,0,0,1,.4472-.0664,2.00129,2.00129,0,0,0,1.1563-.4024,1.73735,1.73735,0,0,0,.7187-1.4062,2.08183,2.08183,0,0,0-1.3632-1.9746,5.35417,5.35417,0,0,0-1.3086-.1192c-.8164,0-1.4278.0762-1.9727.0762-.1621,0-.6972-.0215-1.0781-.0215-.1641,0-.5781-.0215-.6445-.0215-.0313.0762-.0547.0977-.0547.1406a.66994.66994,0,0,0,.0234.1524c.1836.0234.5215.0664.6973.0996a1.26109,1.26109,0,0,1,.457.5879c.0547.3496.0664,1.3301.0664,2.8672,0,1.1113.0098,2.5078-.0449,2.9218a.82755.82755,0,0,1-.4473.7305,6.12809,6.12809,0,0,1-.6211.0762.29027.29027,0,0,0-.0547.1523.39715.39715,0,0,0,.045.1309c.1523,0,1.4062-.0332,1.7539-.0332.6992,0,.873.0332,1.4941.0332a.27213.27213,0,0,0,.0449-.1191.32833.32833,0,0,0-.0449-.1641c-.2168-.0215-.4902-.0879-.6113-.1074a.82271.82271,0,0,1-.4668-.7754l-.0117-2.7246c.0879-.0118.4023-.0118.4902-.0118a2.0101,2.0101,0,0,1,.8711.1524,2.45312,2.45312,0,0,1,1.0703.8828,6.87667,6.87667,0,0,1,.6875,2.377c.0313.2285.1192.4257.3262.4472a4.22328,4.22328,0,0,0,.6328.0332h1.1328a.18674.18674,0,0,0,.0645-.1426m-9.1465-1.6562a2.86132,2.86132,0,0,0-.0098-.3164.24312.24312,0,0,0-.1641-.0332.334.334,0,0,0-.1425.0215,2.87679,2.87679,0,0,1-1.1231,1.6679,2.03848,2.03848,0,0,1-.9258.1211H83.2275a5.14225,5.14225,0,0,1-.7207-.0547c-.1621-.0332-.3379-.2949-.4121-.4687a1.41863,1.41863,0,0,1-.1211-.752V32.0576h.3496a2.155,2.155,0,0,1,.9258.1524,1.30405,1.30405,0,0,1,.5879.4687,3.65855,3.65855,0,0,1,.1543.9043.26711.26711,0,0,0,.1738.0449.26019.26019,0,0,0,.1739-.0547c0-.2949-.0645-1.0898-.0645-1.5273,0-.5449.0762-1.209.1074-1.6016a.2807.2807,0,0,0-.1738-.0429.32637.32637,0,0,0-.1738.0312c-.0332.1524-.1211.6113-.1406.6445a1.58709,1.58709,0,0,1-.8399.5782,3.57939,3.57939,0,0,1-.8945.0859h-.1738V30.6729c0-1.0469.0214-1.4708.0312-1.668.0117-.1309.0332-.2715.0449-.3711.0977-.0098.4141-.0215.916-.0215.6309,0,1.0996.0117,1.1993.0117a1.2308,1.2308,0,0,1,.6972.2168,2.77776,2.77776,0,0,1,.9707,1.3535.32264.32264,0,0,0,.1309.0196c.0644,0,.0762-.0196.1621-.0645,0-.664-.043-1.416-.0645-1.6894-.0117-.1094-.0332-.1426-.2519-.1426-.0859,0-.5-.0215-.9356-.0215-.623,0-.873.0117-1.8222.0117-.5117,0-1.416.0098-1.8633.0098-.6543,0-.7969-.0215-1.0801-.0215H79.749a.2238.2238,0,0,0-.0547.1309.25481.25481,0,0,0,.0547.1523,5.51491,5.51491,0,0,1,.7969.1211c.1523.1309.293.1641.3926.6855.0215.2305.0332.9707.0332,1.4727v2.2461c0,.457-.0117,1.2109-.0235,1.4824a3.24043,3.24043,0,0,1-.2402,1.0567,2.84856,2.84856,0,0,1-.9805.164.36165.36165,0,0,0-.0546.1758.24881.24881,0,0,0,.0546.1504h.3594c.3496,0,1.2227-.0313,1.5156-.0313.2735,0,.6426.0215,1.2754.0215.3496,0,1.3731.0664,3.5762.0664a.93163.93163,0,0,0,.2949-.0234.3175.3175,0,0,0,.043-.1738c.0215-.2168.0215-.752.0215-1.6348m-8.0664-5.9531c0-.043-.0117-.1094-.0547-.1192h-.3711c-.2617,0-.6758.0215-.8613.0215-.8829,0-1.1993-.0547-1.3301-.0547h-.1953c-.0235.0547-.0567.086-.0567.1407,0,.0429.0235.0761.0235.121a3.91391,3.91391,0,0,1,.7519.1622,1.02891,1.02891,0,0,1,.2735.6875,4.11,4.11,0,0,1-.2637.9921l-1.7539,4.3165-2.1563-5.461a.81761.81761,0,0,1,.3575-.6113,4.86982,4.86982,0,0,1,.7089-.086.417.417,0,0,0,.043-.1523c0-.0449-.0098-.1094-.0547-.1211h-.2734c-.336,0-.8472.0449-1.4258.0449-.25,0-.7402-.0234-1.2207-.0234h-.4258a.24746.24746,0,0,0-.0098.2637,3.70613,3.70613,0,0,1,.9161.3691,19.283,19.283,0,0,1,.8945,1.9844l.9023,2.1797c.752,1.8105,1.1993,3.0215,1.2539,3.2285.0547.0332,0,.0644.0977.0644s.0879-.0214.1094-.0761l2.8125-6.7598a2.15466,2.15466,0,0,1,.3926-.6211,1.748,1.748,0,0,1,.871-.3496.49274.49274,0,0,0,.045-.1406m-9.5489,7.5976a.32817.32817,0,0,0-.0332-.1523,7.59629,7.59629,0,0,1-.8066-.0977,1.74,1.74,0,0,1-.3711-.8398c-.0098-.5235-.0215-1.711-.0215-2.7246V29.4189a.85246.85246,0,0,1,.1973-.5878,1.85506,1.85506,0,0,1,.9687-.2852.30853.30853,0,0,0,.0332-.1406.18284.18284,0,0,0-.0546-.1309h-.3165c-.457,0-1.1113.0547-1.4824.0547-.2285,0-.8828-.0332-1.3613-.043H65.71a.15424.15424,0,0,0-.0547.1407.69721.69721,0,0,0,.0215.1425,2.30917,2.30917,0,0,1,.8496.1524,1.204,1.204,0,0,1,.3613.9277c.0098.2051.0215.7617.0312,1.7656.0118.545.0235,1.2852.0235,1.918,0,.3164-.0235,1.1328-.0332,1.5156a1.81825,1.81825,0,0,1-.1543.6543c-.1289.1094-.2598.3047-1.0567.3594a.44924.44924,0,0,0-.0332.1641c0,.0879.0235.0879.0235.1406h.1836c.4375,0,1.1133-.0527,1.6797-.0527.164,0,.8828.0312,1.2421.0312h.3614a.25814.25814,0,0,0,.0429-.1426m-4.9277-7.6191a.18607.18607,0,0,0-.0332-.1094h-.25c-.5449,0-.7852.0215-1.7656.0215-.3399,0-.8399-.0215-.959-.0215h-.2852c-.0312.0215-.0429.0977-.0429.1426a.14042.14042,0,0,0,.0547.1191,4.69492,4.69492,0,0,1,1.123.3164,2.14176,2.14176,0,0,1,.3164,1.1114c.0098.164.0215.3281.0215.7754v3.2363a4.267,4.267,0,0,1-.0215.4687c-.1855-.207-.5019-.6093-.9277-1.1113l-4.1641-4.8633a.72091.72091,0,0,0-.164-.1406c-.0879,0-.1954-.0117-.2833-.0117-.6972,0-1.3085-.0313-1.4941-.0313a.20583.20583,0,0,0-.0312.1075.82163.82163,0,0,0,.0195.1425,1.88655,1.88655,0,0,1,.8418.3047,3.23547,3.23547,0,0,1,.5332.6446.93883.93883,0,0,1,.0449.3476c0,.5684-.0332,1.6016-.0332,2.3672v2.3203a4.75266,4.75266,0,0,1-.0664.8281,2.26775,2.26775,0,0,1-1.1445.5567.32218.32218,0,0,0-.043.1308c0,.0332.0098.0977.0313.1094h.207c.2187,0,.7207-.0312,1.0488-.0312.4785,0,.6953.0312,1.1426.0312h.6562c.043-.0117.0528-.0976.0528-.1426a.20291.20291,0,0,0-.0332-.1093,2.09044,2.09044,0,0,1-1.3067-.6739,6.43242,6.43242,0,0,1-.1425-1.375c0-.3476-.0118-.916-.0118-1.5586,0-.8613.0118-2.0488.0235-2.4316.0644.0762.164.1973.2383.2832l5.1679,6.0527c.0547.0528.0762.0645.1328.0645.0528,0,.0196,0,.0645-.0215a1.67645,1.67645,0,0,0,.0547-.4902c0-.3164-.0117-.6446-.0117-.8086V30.3018c0-1.3614.6445-1.7442,1.3964-1.7754a.261.261,0,0,0,.043-.1426m-10.0957.0527a.22659.22659,0,0,0-.0547-.1406h-.3144c-.3399,0-.7969.0215-1.1895.0215-.4355,0-.9258-.0215-1.2441-.0215h-.3907a.26608.26608,0,0,0-.0449.1406.37483.37483,0,0,0,.0332.1426c.0449,0,.8399.0117.9805.207a2.66854,2.66854,0,0,1,.4258.8067,7.11687,7.11687,0,0,1,.0879,1.1992c0,.9277,0,1.5488-.0118,1.875a5.8389,5.8389,0,0,1-.1972,1.4512,1.99092,1.99092,0,0,1-2.1348,1.4179,3.01946,3.01946,0,0,1-1.2773-.2734,1.8391,1.8391,0,0,1-1.0567-1.375l-.0547-3.2695-.0097-1.3301c0-.25.3144-.4805.4238-.6113a5.19562,5.19562,0,0,1,.8399-.1075.3287.3287,0,0,0,.0546-.1523.19053.19053,0,0,0-.0761-.1426l-.4141.0117c-.4043.0098-.9375.0215-1.2754.0215-.5234,0-.9277-.0117-1.2539-.0117h-.457a.18691.18691,0,0,0-.0567.1523.17317.17317,0,0,0,.045.1309c.3476.0449.5761.0762.7304.1094a.91718.91718,0,0,1,.3809.4804c.0117.1407.0332.4903.0332,1.1758v2.6172a6.6806,6.6806,0,0,0,.1094,1.461,2.15444,2.15444,0,0,0,.9472,1.3417,3.57183,3.57183,0,0,0,1.9961.5235,3.77151,3.77151,0,0,0,1.875-.4473,2.23257,2.23257,0,0,0,1.0781-1.4512,4.9508,4.9508,0,0,0,.1758-1.2968V30.999c0-.3906.0215-.8828.0215-1.0781a2.19167,2.19167,0,0,1,.3281-1.1992,4.36574,4.36574,0,0,1,.9043-.1524.26722.26722,0,0,0,.043-.1328"/>
  <g>
    <path class="cls-2" d="M27.5068,17.4526a.17175.17175,0,0,0-.1523.0996l-.3203.7139a.06305.06305,0,0,1-.0254.0108c-.0098,0-.0215-.0108-.0293-.0332-.0078-.0254-.0469-.125-.1309-.3194l-.1035-.2334c-.0371-.0859-.0664-.1426-.0762-.1601a.15645.15645,0,0,0-.1347-.0782.0311.0311,0,0,1-.0059-.0214.04242.04242,0,0,1,.0039-.0206h.0528c.0605,0,.1113.003.1562.003.0527,0,.1406-.0049.1992-.0049h.0352c.0058.0019.0078.0137.0078.0185a.05383.05383,0,0,1-.0039.0235c-.0391.0039-.127.0019-.127.0566a.14777.14777,0,0,0,.0079.0479l.2109.5.1758-.4151a.25807.25807,0,0,0,.0234-.1093c0-.0469-.0332-.0674-.1211-.0782a.07492.07492,0,0,1-.0058-.0195.08328.08328,0,0,1,.0058-.0244h.0254c.0391,0,.0781.0049.166.0049.0156,0,.0762-.003.1055-.003h.0605a.03865.03865,0,0,1,.0078.0186A.05086.05086,0,0,1,27.5068,17.4526Z"/>
    <path class="cls-2" d="M28.3994,18.2524c-.2558,0-.3945-.0068-.4297-.0068-.0273,0-.0898-.0019-.1211-.0019-.0351,0-.1172.0058-.207.0058l-.0508-.0019a.03238.03238,0,0,1-.0039-.0186.10474.10474,0,0,1,.002-.0244.30268.30268,0,0,0,.1289-.0274.24279.24279,0,0,0,.0273-.1289c0-.039.002-.082.002-.1259,0-.0645-.002-.1426-.002-.2373v-.1319c-.0019-.0928-.0469-.0928-.1426-.1035a.12513.12513,0,0,1-.0039-.0225c0-.0048.002-.0185.0078-.0214h.0469c.0313,0,.1153.0019.2754.0019.1465,0,.2891.0029.3203.0029l.0879.001c.0195,0,.0274.002.0274.0196l.0117.1914c-.0117.0058-.0137.0078-.0235.0078a.05883.05883,0,0,1-.0195-.002.38887.38887,0,0,0-.1269-.1465.14384.14384,0,0,0-.0743-.0215c-.0117,0-.041-.0019-.1132-.0019-.0586,0-.0879.0019-.0957.0029-.0098,0-.0079-.001-.0118.0323-.0019.0205-.0039.0585-.0039.1699v.1093h.0293a.4157.4157,0,0,0,.0957-.0097.157.157,0,0,0,.086-.0606.34867.34867,0,0,0,.0195-.0703.05181.05181,0,0,1,.0273-.0058.03293.03293,0,0,1,.0215.0068c-.0019.0342-.0078.0986-.0078.1807,0,.041.0039.1308.0039.1679a.0305.0305,0,0,1-.0234.0069.09467.09467,0,0,1-.0235-.003c-.0078-.0722-.0195-.1211-.08-.1464a.22792.22792,0,0,0-.0938-.0176.53811.53811,0,0,0-.0566.0039v.2207a.27435.27435,0,0,0,.0117.0996c.0059.0146.0254.0439.0508.0469a.42378.42378,0,0,0,.0781.0058h.1211a.2408.2408,0,0,0,.0918-.0136.46832.46832,0,0,0,.1348-.1807.05415.05415,0,0,1,.0253-.0049.06709.06709,0,0,1,.0254.0059v.2236C28.4443,18.2495,28.4307,18.2524,28.3994,18.2524Z"/>
    <path class="cls-2" d="M29.415,17.6743l-.0234-.0029a.54486.54486,0,0,0-.0625-.125.20233.20233,0,0,0-.1562-.082c-.0196-.001-.0665-.001-.0821-.001l-.0019.372c0,.0586,0,.128.0019.2559.002.0986.0449.0986.1465.1113a.04924.04924,0,0,1,.0078.0245.04124.04124,0,0,1-.0058.0205h-.0372c-.0585,0-.1757-.0039-.2128-.0039-.0254,0-.1543.0058-.2149.0058a.02774.02774,0,0,1-.0078-.0224.055.055,0,0,1,.0059-.0225c.1347-.0098.1484-.0352.1523-.0781.0039-.0274.0039-.1387.0039-.252v-.3086a.51168.51168,0,0,0-.0078-.1025.64574.64574,0,0,0-.1309.0088.33813.33813,0,0,0-.1699.1855.05487.05487,0,0,1-.0215.0029.02333.02333,0,0,1-.0195-.0087v-.2168c0-.0196.002-.0245.0254-.0245.0195,0,.0508.001.0918.001.0293,0,.1523.002.3066.002.2032,0,.3535-.0049.3926-.0049.0195,0,.0332,0,.041.0068v.2481A.02358.02358,0,0,1,29.415,17.6743Z"/>
    <path class="cls-2" d="M27.4658,18.9966c-.0078,0-.0137-.002-.0254-.0029a.4191.4191,0,0,0-.0625-.125.199.199,0,0,0-.1562-.0821c-.0196-.001-.0664-.001-.0821-.001l-.0019.3721c0,.0586,0,.1279.0019.2559.002.0986.0469.0986.1485.1113a.04411.04411,0,0,1,.0058.0244.03841.03841,0,0,1-.0039.0205h-.0371c-.0605,0-.1777-.0039-.2129-.0039-.0254,0-.1543.0059-.2168.0059a.03643.03643,0,0,1-.0058-.0225.10454.10454,0,0,1,.0039-.0224c.1348-.0098.1484-.0352.1543-.0782.0019-.0273.0019-.1386.0019-.2519v-.3086a.53777.53777,0,0,0-.0058-.1026.66408.66408,0,0,0-.1328.0088.33517.33517,0,0,0-.168.1856.07052.07052,0,0,1-.0234.0029.026.026,0,0,1-.0196-.0088v-.2168c0-.0195.0039-.0244.0254-.0244s.0508.001.0918.001c.0313,0,.1543.0019.3086.0019.2012,0,.3535-.0048.3906-.0048.0215,0,.0352,0,.0411.0068.0039.0039.0019.0195.0019.0312v.2168A.0258.0258,0,0,1,27.4658,18.9966Z"/>
    <path class="cls-2" d="M28.4307,19.5747c-.2539,0-.3946-.0068-.4278-.0068-.0273,0-.0898-.002-.123-.002s-.1172.0059-.2051.0059l-.0508-.002a.0343.0343,0,0,1-.0058-.0185.05546.05546,0,0,1,.0039-.0244.28152.28152,0,0,0,.1269-.0274c.0156-.0166.0235-.0527.0274-.1289.0019-.0391.0039-.082.0039-.126,0-.0644-.002-.1425-.002-.2373,0-.0654-.0019-.1045-.0019-.1318-.002-.0928-.045-.0928-.1407-.1035a.05866.05866,0,0,1-.0058-.0225c0-.0049.0039-.0185.0097-.0215h.045c.0332,0,.1152.002.2754.002.1484,0,.289.0029.3222.0029l.086.001c.0214,0,.0293.0019.0293.0195l.0097.1914a.037.037,0,0,1-.0234.0078.07482.07482,0,0,1-.0195-.0019.35726.35726,0,0,0-.127-.1465.13448.13448,0,0,0-.0723-.0215c-.0117,0-.041-.0019-.1152-.0019-.0566,0-.0879.0019-.0937.0029-.0118,0-.0098-.001-.0137.0322,0,.0205-.002.0586-.002.1699v.1094h.0274a.38637.38637,0,0,0,.0957-.0098.16191.16191,0,0,0,.0879-.0605.35426.35426,0,0,0,.0175-.0703.0629.0629,0,0,1,.0274-.0059.03493.03493,0,0,1,.0234.0069c-.0019.0341-.0097.0986-.0097.1806,0,.041.0058.1309.0058.168a.033.033,0,0,1-.0234.0068.11.11,0,0,1-.0254-.0029c-.0078-.0723-.0176-.1211-.0801-.1465a.22454.22454,0,0,0-.0918-.0176.56639.56639,0,0,0-.0566.0039v.2208a.35168.35168,0,0,0,.0097.0996c.0079.0146.0274.0439.0508.0468a.43026.43026,0,0,0,.0781.0059h.1231a.22773.22773,0,0,0,.0898-.0137.44961.44961,0,0,0,.1368-.1806.05027.05027,0,0,1,.0253-.0049.05883.05883,0,0,1,.0235.0058v.2237C28.4756,19.5718,28.4619,19.5747,28.4307,19.5747Z"/>
    <path class="cls-2" d="M29.0244,19.5933a.47922.47922,0,0,1-.1953-.0508.09006.09006,0,0,0-.0312-.0069.1659.1659,0,0,0-.0625.0323.05379.05379,0,0,1-.0489-.0254c0-.0176.0156-.0703.0156-.1035,0-.0196-.0058-.1143-.0078-.1368a.04541.04541,0,0,1,.0371-.0175l.0137.0009c.0176.0342.0528.126.0781.1631a.2597.2597,0,0,0,.1875.0889.18676.18676,0,0,0,.1368-.041.12039.12039,0,0,0,.0468-.1026.11094.11094,0,0,0-.0234-.0761.203.203,0,0,0-.0879-.0625c-.0371-.0176-.168-.0498-.2148-.0752a.32971.32971,0,0,1-.1172-.083.25719.25719,0,0,1-.0489-.1534.2404.2404,0,0,1,.2598-.2363.3111.3111,0,0,1,.2012.0576.56994.56994,0,0,1,.0488-.0478.04678.04678,0,0,1,.0449.0224,1.00458,1.00458,0,0,0-.0136.1153c0,.0224.0136.1113.0136.125a.08319.08319,0,0,1-.0332.0117l-.0156-.0039c-.0234-.041-.0449-.1094-.0703-.1465a.19036.19036,0,0,0-.168-.0723.13862.13862,0,0,0-.1523.125.1428.1428,0,0,0,.1035.125c.0352.0137.0781.0303.127.045a1.11172,1.11172,0,0,1,.1347.0517.22947.22947,0,0,1,.1387.2227A.27338.27338,0,0,1,29.0244,19.5933Z"/>
    <path class="cls-2" d="M27.8057,20.8989c-.2559,0-.3946-.0068-.4297-.0068-.0274,0-.0899-.002-.1211-.002-.0352,0-.1172.0059-.207.0059l-.0508-.002a.03191.03191,0,0,1-.0039-.0185.11011.11011,0,0,1,.0019-.0244.30222.30222,0,0,0,.1289-.0274.24143.24143,0,0,0,.0274-.1289c0-.039.0019-.082.0019-.126,0-.0644-.0019-.1425-.0019-.2373v-.1318c-.002-.0928-.0469-.0928-.1426-.1035a.1168.1168,0,0,1-.0039-.0225c0-.0049.0019-.0185.0078-.0215h.0469c.0312,0,.1152.002.2754.002.1464,0,.289.0029.3203.0029l.0879.001c.0195,0,.0273.002.0273.0195l.0117.1914c-.0117.0059-.0136.0079-.0234.0079a.05853.05853,0,0,1-.0195-.002.388.388,0,0,0-.127-.1465.14342.14342,0,0,0-.0742-.0215c-.0117,0-.041-.0019-.1133-.0019-.0586,0-.0879.0019-.0957.0029-.0098,0-.0078-.001-.0117.0322-.002.0205-.0039.0586-.0039.17v.1093h.0293a.4157.4157,0,0,0,.0957-.0097.15678.15678,0,0,0,.0859-.0606.34867.34867,0,0,0,.0195-.0703.05212.05212,0,0,1,.0274-.0059.03338.03338,0,0,1,.0215.0069c-.002.0342-.0078.0986-.0078.1806,0,.0411.0039.1309.0039.168a.03074.03074,0,0,1-.0235.0069.09448.09448,0,0,1-.0234-.003c-.0078-.0722-.0195-.1211-.0801-.1465a.229.229,0,0,0-.0937-.0175.54.54,0,0,0-.0567.0039v.2207a.27435.27435,0,0,0,.0117.0996c.0059.0146.0254.0439.0508.0469a.42378.42378,0,0,0,.0781.0058h.1211a.23832.23832,0,0,0,.0918-.0137.46607.46607,0,0,0,.1348-.1806.05452.05452,0,0,1,.0254-.0049.066.066,0,0,1,.0254.0059v.2236C27.8506,20.896,27.8369,20.8989,27.8057,20.8989Z"/>
    <path class="cls-2" d="M29.0361,20.0962c-.0859.0029-.1601.0498-.1601.1865l-.002.4346c0,.0166.0078.1396.0078.1865a.07665.07665,0,0,1-.0351.0137.04775.04775,0,0,1-.0215-.0137l-.5957-.6406.0059.1308.0019.2364c0,.0185.0039.0625.0078.0957a.10681.10681,0,0,0,.043.0898.21692.21692,0,0,0,.1133.0371.04072.04072,0,0,1,.0058.0196.04341.04341,0,0,1-.0078.0214H28.335c-.0547,0-.0977-.0019-.1543-.0019-.0371,0-.0899.0039-.127.0039h-.0273a.07157.07157,0,0,1-.002-.0195.05463.05463,0,0,1,.0039-.0215.20874.20874,0,0,0,.1348-.0586.28187.28187,0,0,0,.0137-.1016v-.3027c0-.0488-.002-.0733-.0039-.1211a.14759.14759,0,0,0-.0293-.0918.31459.31459,0,0,0-.0411-.0439.43263.43263,0,0,0-.0957-.042.06371.06371,0,0,1-.0058-.0196.04761.04761,0,0,1,.0058-.0215h.0215c.0176,0,.1094.0049.1797.0049h.041a.08287.08287,0,0,1,.0254.0166l.4414.4825c.0332.0371.0762.0859.0996.1171v-.3476a.91733.91733,0,0,0-.0039-.0967.23665.23665,0,0,0-.0254-.0908c-.0136-.0215-.0957-.0332-.1386-.042a.06231.06231,0,0,1-.0039-.0254.07262.07262,0,0,1,.0019-.0186h.0254c.041,0,.1074.0059.1484.0059.1016,0,.1328-.0029.1836-.0029h.0332a.04206.04206,0,0,1,.0039.0205A.044.044,0,0,1,29.0361,20.0962Z"/>
    <path class="cls-2" d="M31.8193,17.4497c-.0839.0029-.1601.0498-.1601.1865v.4346c0,.0166.0058.1396.0058.1865a.07138.07138,0,0,1-.0332.0137c-.0058,0-.0117-.0049-.0234-.0137l-.5957-.6406.0078.1309.002.2363c0,.0185.0039.0625.0058.0957a.11841.11841,0,0,0,.043.0898.22877.22877,0,0,0,.1133.0371.04072.04072,0,0,1,.0058.0196.065.065,0,0,1-.0058.0215h-.0664c-.0528,0-.0957-.002-.1543-.002-.0371,0-.0879.0039-.125.0039h-.0274l-.0039-.0195a.03862.03862,0,0,1,.0059-.0215.20758.20758,0,0,0,.1328-.0586.245.245,0,0,0,.0137-.1016v-.3027c0-.0488,0-.0732-.002-.1211a.15989.15989,0,0,0-.0293-.0918.38268.38268,0,0,0-.043-.0439.39466.39466,0,0,0-.0957-.042l-.0039-.0196.0039-.0214h.0235c.0156,0,.1074.0048.1777.0048h.041a.136.136,0,0,1,.0274.0166l.4414.4825c.0332.0371.0761.0859.0996.1172v-.3477a.77092.77092,0,0,0-.0059-.0967.206.206,0,0,0-.0254-.0908c-.0136-.0215-.0957-.0332-.1367-.042a.06719.06719,0,0,1-.0058-.0254.03688.03688,0,0,1,.0039-.0185h.0254c.041,0,.1074.0058.1484.0058.0996,0,.1328-.0029.1836-.0029h.0312a.0472.0472,0,0,1,.0059.0205A.05111.05111,0,0,1,31.8193,17.4497Z"/>
    <path class="cls-2" d="M32.6963,18.146a.41991.41991,0,0,1-.5957.0059.43056.43056,0,0,1-.127-.3213.43523.43523,0,0,1,.127-.3194.423.423,0,0,1,.2969-.1259.44337.44337,0,0,1,.2226.0625.43893.43893,0,0,1,.207.374A.468.468,0,0,1,32.6963,18.146Zm-.1367-.6162a.19556.19556,0,0,0-.168-.0889.17888.17888,0,0,0-.1562.0889.48407.48407,0,0,0-.0782.2978.51386.51386,0,0,0,.0742.2959.18771.18771,0,0,0,.1661.0928.19465.19465,0,0,0,.1836-.1152.54619.54619,0,0,0,.0546-.2705A.48827.48827,0,0,0,32.5596,17.5298Z"/>
    <path class="cls-2" d="M33.8955,17.4526a.17124.17124,0,0,0-.1504.0996l-.3203.7139a.06305.06305,0,0,1-.0254.0108c-.0098,0-.0234-.0108-.0293-.0332-.0078-.0254-.0469-.125-.1328-.3194l-.1016-.2334c-.0371-.0859-.0664-.1426-.0761-.1601a.159.159,0,0,0-.1348-.0782.02575.02575,0,0,1-.0078-.0214.03029.03029,0,0,1,.0059-.0206h.0527c.0586,0,.1094.003.1543.003.0527,0,.1406-.0049.2012-.0049h.0332c.0078.0019.0097.0137.0097.0185a.05383.05383,0,0,1-.0039.0235c-.041.0039-.1269.0019-.1269.0566a.10969.10969,0,0,0,.0078.0479l.209.5.1777-.4151a.28268.28268,0,0,0,.0215-.1093c0-.0469-.0332-.0674-.1211-.0782a.06691.06691,0,0,1-.0039-.0195.08362.08362,0,0,1,.0039-.0244h.0254c.039,0,.0781.0049.1679.0049.0137,0,.0762-.003.1055-.003h.0606a.036.036,0,0,1-.002.042Z"/>
    <path class="cls-2" d="M31.5439,18.9966c-.0078,0-.0136-.002-.0253-.0029a.4239.4239,0,0,0-.0625-.125.19923.19923,0,0,0-.1563-.0821c-.0195-.001-.0664-.001-.082-.001l-.002.3721c0,.0586,0,.1279.002.2559.0019.0986.0468.0986.1484.1113a.0435.0435,0,0,1,.0059.0244.03841.03841,0,0,1-.0039.0205h-.0371c-.0606,0-.1778-.0039-.2129-.0039-.0254,0-.1543.0059-.2168.0059a.0364.0364,0,0,1-.0059-.0225.11118.11118,0,0,1,.0039-.0224c.1348-.0098.1485-.0352.1543-.0782.002-.0273.002-.1386.002-.2519v-.3086a.5288.5288,0,0,0-.0059-.1026.66408.66408,0,0,0-.1328.0088.33551.33551,0,0,0-.168.1856.07052.07052,0,0,1-.0234.0029.02576.02576,0,0,1-.0195-.0088v-.2168c0-.0195.0039-.0244.0253-.0244s.0508.001.0918.001c.0313,0,.1543.0019.3086.0019.2012,0,.3536-.0048.3907-.0048.0214,0,.0351,0,.041.0068.0039.0039.0019.0195.0019.0312v.2168A.02556.02556,0,0,1,31.5439,18.9966Z"/>
    <path class="cls-2" d="M32.5557,19.5737h-.0664c-.043,0-.0918-.0058-.1426-.0058-.0801,0-.1817.0058-.2207.0058a.03141.03141,0,0,1-.0059-.0215.07183.07183,0,0,1,.0039-.0195c.0821-.0039.1153-.0176.1153-.0508a.28991.28991,0,0,0-.0254-.1093c-.0254-.0616-.0391-.0899-.045-.1055-.0039-.0059-.0058-.0088-.0234-.0088h-.2656a.5687.5687,0,0,0-.0625.1611.18316.18316,0,0,0-.0059.0489c0,.0273.0254.0586.1192.0605a.04131.04131,0,0,1,.0058.0234.07222.07222,0,0,1-.0019.0196h-.0235c-.0625,0-.08-.0039-.1465-.0039-.0429,0-.1464.0039-.1816.0039a.05321.05321,0,0,1-.0039-.0176.05006.05006,0,0,1,.0039-.0215.18116.18116,0,0,0,.1211-.0615,1.41311,1.41311,0,0,0,.1074-.2197c.0469-.1123.1035-.2549.1289-.3145.0352-.0732.0469-.0976.0586-.123.0176-.0371.0371-.0743.0449-.0879a.04555.04555,0,0,1,.0704.0019.2577.2577,0,0,1,.0195.042c.0488.1162.0879.2197.1484.3643.0313.0732.0469.1191.0801.1953.0234.0478.0371.084.0606.1279.0312.0635.082.0645.1328.0772.0019.0058.0078.0117.0078.0195S32.5596,19.5659,32.5557,19.5737Zm-.5332-.6689h-.002c-.0176.0322-.0488.1055-.0605.1357-.045.1094-.0606.1465-.0684.1621h.252C32.124,19.1528,32.0596,18.9976,32.0225,18.9048Z"/>
    <path class="cls-2" d="M33.8604,19.5737l-.3418-.0039h-.0938a.055.055,0,0,1-.0059-.0215.029.029,0,0,1,.0079-.0214.43011.43011,0,0,0,.0839-.0079c.0352-.0156.0489-.0498.0489-.1005V18.811h-.002l-.1797.3936c-.0195.043-.0429.0898-.0625.1367a1.85427,1.85427,0,0,0-.0742.1914.025.025,0,0,1-.0273.0156c-.0118,0-.0196-.0039-.0254-.0234-.0235-.0508-.0391-.084-.0469-.1055l-.2812-.6191h-.0059v.1582l.0059.3955c0,.1201.0625.1768.1582.1768a.06838.06838,0,0,1,.0078.0205.04756.04756,0,0,1-.0059.0205c-.0059,0-.0254.0019-.043.0019-.0117,0-.0742-.0058-.164-.0058-.0254,0-.0781.0019-.1192.0019h-.0566a.07355.07355,0,0,1-.0039-.0205l.0039-.0185a.438.438,0,0,0,.123-.043c.0176-.0166.0332-.0527.0332-.1357v-.4336c-.0019-.0694-.0097-.0957-.0429-.1192a.37932.37932,0,0,0-.1114-.0224.05554.05554,0,0,1-.0058-.0235.05825.05825,0,0,1,.0058-.0224c.0333,0,.0918.0029.1504.0029h.2051a.05.05,0,0,1,.0176.0215l.2519.5713.045-.1143c.039-.0918.0957-.2295.1758-.3789.0175-.0332.039-.0752.0507-.0977l.3203-.0048a.04007.04007,0,0,1,.0079.0205.04156.04156,0,0,1-.0059.0214c-.0352.0059-.0957.0059-.125.0547-.0098.0157-.0156.0313-.0156.1006v.4072c0,.1563.039.1719.0566.1836a.30022.30022,0,0,0,.086.0118.04419.04419,0,0,1,.0058.0214C33.8662,19.5649,33.8623,19.5659,33.8604,19.5737Z"/>
    <path class="cls-2" d="M31.5244,20.3208c-.0078,0-.0137-.002-.0254-.0029a.42275.42275,0,0,0-.0625-.125.199.199,0,0,0-.1562-.0821c-.0196-.0009-.0664-.0009-.0821-.0009l-.0019.372c0,.0586,0,.128.0019.2559.002.0986.0469.0986.1485.1113a.04428.04428,0,0,1,.0058.0244.03841.03841,0,0,1-.0039.0205h-.0371c-.0605,0-.1777-.0039-.2129-.0039-.0254,0-.1543.0059-.2168.0059a.03643.03643,0,0,1-.0058-.0225.10559.10559,0,0,1,.0039-.0224c.1347-.0098.1484-.0352.1543-.0782.0019-.0273.0019-.1386.0019-.2519v-.3086a.53667.53667,0,0,0-.0058-.1025.66408.66408,0,0,0-.1328.0088.33492.33492,0,0,0-.168.1855.07052.07052,0,0,1-.0234.0029.026.026,0,0,1-.0196-.0088v-.2168c0-.0195.0039-.0244.0254-.0244s.0508.001.0918.001c.0313,0,.1543.002.3086.002.2012,0,.3535-.0049.3906-.0049.0215,0,.0352,0,.041.0068.004.0039.002.0195.002.0313v.2168A.026.026,0,0,1,31.5244,20.3208Z"/>
    <path class="cls-2" d="M32.5732,20.0991a.17108.17108,0,0,0-.1503.0996l-.3204.7139a.06334.06334,0,0,1-.0254.0107c-.0097,0-.0234-.0107-.0292-.0332-.0079-.0254-.0469-.125-.1329-.3193l-.1015-.2334c-.0371-.0859-.0664-.1426-.0762-.1602a.15906.15906,0,0,0-.1348-.0781.02584.02584,0,0,1-.0078-.0215.03017.03017,0,0,1,.0059-.0205h.0527c.0586,0,.1094.003.1543.003.0528,0,.1406-.0049.2012-.0049h.0332c.0078.0019.0098.0136.0098.0185a.054.054,0,0,1-.0039.0235c-.0411.0039-.127.0019-.127.0566a.10969.10969,0,0,0,.0078.0479l.209.5.1777-.4151a.28119.28119,0,0,0,.0215-.1094c0-.0468-.0332-.0673-.1211-.0781a.07109.07109,0,0,1-.0039-.0195.08712.08712,0,0,1,.0039-.0244h.0254c.0391,0,.0781.0049.168.0049.0137,0,.0762-.003.1054-.003h.0606a.03477.03477,0,0,1,.0059.0186A.03566.03566,0,0,1,32.5732,20.0991Z"/>
    <path class="cls-2" d="M33.8779,20.8979l-.3398-.0039h-.0957a.04748.04748,0,0,1-.0039-.0214.02815.02815,0,0,1,.0058-.0215.45861.45861,0,0,0,.086-.0078c.0332-.0157.0468-.0498.0468-.1006v-.4932s.002-.0889.002-.1142h-.0039l-.1777.3935c-.0215.043-.043.0899-.0645.1367-.0391.0918-.0625.1553-.0742.1914-.0039.0157-.0176.0157-.0274.0157s-.0175-.0039-.0253-.0235c-.0215-.0508-.0372-.084-.045-.1054l-.2832-.6192h-.0058v.1582l.0058.3955c.002.1201.0625.1768.1602.1768a.05514.05514,0,0,1,.0058.0205.04206.04206,0,0,1-.0039.0205c-.0078,0-.0254.0019-.0449.0019-.0117,0-.0722-.0058-.1621-.0058-.0273,0-.0801.0019-.1191.0019h-.0567a.04069.04069,0,0,1-.0058-.0205.04781.04781,0,0,1,.0058-.0185.46191.46191,0,0,0,.1231-.043.19845.19845,0,0,0,.0312-.1357l.002-.1992-.002-.2344c-.0019-.0694-.0078-.0957-.0429-.1192a.37874.37874,0,0,0-.1094-.0224.03919.03919,0,0,1-.0078-.0235.04087.04087,0,0,1,.0078-.0224c.0312,0,.0918.0029.1484.0029h.207a.04742.04742,0,0,1,.0157.0215l.2519.5713.0469-.1143a3.87928,3.87928,0,0,1,.1758-.3789c.0156-.0332.039-.0752.0508-.0976l.3183-.0049c.0039.0068.0098.0127.0098.0205a.04426.04426,0,0,1-.0078.0215c-.0332.0058-.0938.0058-.1231.0547-.0097.0156-.0175.0312-.0175.1005v.4073c0,.1562.039.1718.0585.1836a.27884.27884,0,0,0,.084.0117.03235.03235,0,0,1,.0078.0215C33.8857,20.8892,33.8818,20.8901,33.8779,20.8979Z"/>
  </g>
  <path class="cls-2" d="M41.9678,15.6099l-.0352-.3995-.3828.1163a9.834,9.834,0,0,1-2.8691.4257A9.6705,9.6705,0,0,1,30.417,11.146l-.2774-.4619-.2792.4619a9.66937,9.66937,0,0,1-8.2637,4.6064,9.80878,9.80878,0,0,1-2.8633-.4238l-.3838-.1162-.0351.3994a28.19884,28.19884,0,0,0,.4921,8.2598,28.6175,28.6175,0,0,0,3.0733,8.1587,29.2135,29.2135,0,0,0,2.5664,3.8281,29.64652,29.64652,0,0,0,5.4922,5.3437l.1943.1446.1943-.1446a29.60776,29.60776,0,0,0,5.503-5.3281,28.92472,28.92472,0,0,0,2.5654-3.8222,28.61491,28.61491,0,0,0,2.9844-7.7857l.0801-.3945A28.37777,28.37777,0,0,0,41.9678,15.6099Zm-6.8614,2.1757h.4786v.9356h-.4786Zm0,2.4493h.4786v.9365h-.4786Zm-4.8437-3.4405a.8852.8852,0,0,1,.8105-.3408l.9239.1309,1.2168.1601a2.41482,2.41482,0,0,0,1.0566-.1728v5.084a2.91417,2.91417,0,0,1-1.0566.1572L32.04,21.6567l-.9668-.1347a1.2092,1.2092,0,0,0-.8105.2558Zm-4.1641-.2129a2.27192,2.27192,0,0,0,1.0137.1651l1.2188-.1612.9218-.1318a.88635.88635,0,0,1,.8106.3408v4.9854a1.21491,1.21491,0,0,0-.8184-.2578l-.9668.1357-1.166.1553c-.8535,0-1.0312-.2061-1.0332-.208C26.0791,21.605,26.0967,16.9224,26.0986,16.5815Zm-.6953.6182c.0918-.0185.3633-.0762.4961-.1045v4.5694c.0488.1044.2578.3476,1.2129.3476l1.209-.1592.9238-.1318a.90435.90435,0,0,1,.8203.3418l.0274-.0156h.1426l.0273.0146a.885.885,0,0,1,.8105-.3408l.9239.1309,1.2168.1601c.9687,0,1.209-.2549,1.2343-.2832l.0176-4.6572c.127.0351.3594.0996.4414.123v5.0479a13.64483,13.64483,0,0,1-1.75.1367,22.36147,22.36147,0,0,1-2.3359-.1641l-.1113-.0156v.3418a1.70857,1.70857,0,0,1-.5664.1035,1.53906,1.53906,0,0,1-.543-.1025v-.3428l-.1133.0156a22.33832,22.33832,0,0,1-2.3301.1641,13.62416,13.62416,0,0,1-1.7539-.1367Zm-.6679.5859h.4687v.9356h-.4687Zm0,2.4493h.4687v.9365h-.4687Zm5.3984,20.2797a29.05423,29.05423,0,0,1-5.1777-5.0585l-.0176-.0254,5.1972-5.0547,5.2071,5.0644c-.0078.0078-.0137.0196-.0215.0293A29.04774,29.04774,0,0,1,30.1338,40.5146ZM40.7451,24.1255a28.0238,28.0238,0,0,1-2.875,7.5298l-7.7344-7.44-7.7265,7.4243a28.04953,28.04953,0,0,1-2.9502-7.8344H40.8096Z"/>
</svg>
