<svg id="Layer_1" data-name="Layer 1" xmlns="http://www.w3.org/2000/svg" viewBox="0 0 1263.9617 287.92269">
  <title>SCo_logo_text</title>
  <g>
    <g>
      <path d="M94.83277,130.557a10.02782,10.02782,0,0,0-3.00635-7.3584,47.14112,47.14112,0,0,0-7.75342-6.3291c-6.8042-4.74707-8.30762-6.0127-10.44385-8.78223a12.36682,12.36682,0,0,1-2.769-8.54395c0-7.91211,6.646-13.8457,15.82373-13.8457a26.31774,26.31774,0,0,1,12.9751,3.24316,29.15659,29.15659,0,0,1,.2373,3.877,45.85684,45.85684,0,0,1-.71191,8.46582c-3.00684-7.2002-6.01318-11.94629-13.13379-11.94629-5.61719,0-9.41455,3.48047-9.41455,8.86035a8.71832,8.71832,0,0,0,2.769,6.72559c1.50293,1.50293,2.53174,2.373,7.59521,5.93359,6.25,4.35156,8.14893,5.69629,10.36426,8.22754a16.12685,16.12685,0,0,1,3.71826,9.96875c0,8.86133-6.96191,14.55762-17.32666,14.55762a28.1317,28.1317,0,0,1-12.9751-2.61035A46.45991,46.45991,0,0,1,69.59449,130.557c0-2.13672.1582-3.32324.2373-4.50977,3.32275,7.832,6.0127,14.00391,14.47852,14.00391C90.63941,140.05113,94.83277,136.016,94.83277,130.557Z"/>
      <path d="M155.594,125.098c0,2.76855.0791,6.25.1582,8.86035.0791,4.50977,1.10791,6.40918,3.08594,8.46582h-.94971c-1.50293,0-3.00635-.39551-5.37988-.39551s-3.95605.39551-5.459.39551h-.94922c1.89844-1.97754,2.61084-4.19336,2.92725-8.46582.1582-2.61035.2373-6.0918.2373-8.86035V114.89195h-29.748V125.098c0,2.76855.0791,6.25.1582,8.86035.0791,4.50977,1.10791,6.40918,3.08545,8.46582h-.94922c-1.50342,0-3.00635-.39551-5.37988-.39551s-3.95605.39551-5.459.39551h-.94971c1.89893-1.97754,2.61084-4.19336,2.92725-8.46582.1582-2.61035.23779-6.0918.23779-8.86035V104.0521c0-2.76855-.07959-6.25-.23779-8.86035-.31641-4.27246-1.02832-6.48828-2.92725-8.46582h.94971c1.50293,0,3.08545.39551,5.459.39551s3.87646-.39551,5.37988-.39551h.94922c-1.97754,2.05664-3.00635,3.95605-3.08545,8.46582-.0791,2.61035-.1582,6.0918-.1582,8.86035v7.2793h29.748v-7.2793c0-2.76855-.0791-6.25-.2373-8.86035-.31641-4.27246-1.02881-6.48828-2.92725-8.46582h.94922c1.50293,0,3.08545.39551,5.459.39551s3.877-.39551,5.37988-.39551h.94971c-1.978,2.05664-3.00684,3.95605-3.08594,8.46582-.0791,2.61035-.1582,6.0918-.1582,8.86035Z"/>
      <path d="M190.69166,85.53941,206.04029,125.098c.94971,2.53125,2.37354,6.25,3.56055,8.86035,1.50293,3.48145,2.45264,6.01367,4.43066,8.46582h-1.187c-2.05713,0-3.481-.2373-5.22168-.2373-1.81982,0-3.00635.2373-5.22168.2373h-.791a6.38391,6.38391,0,0,0,1.582-4.27246c0-2.61035-1.26562-5.77539-3.87646-13.05371l-.6333-1.583h-19.3042l-.55371,1.583c-2.769,7.27832-3.40234,10.36426-3.40234,12.18359a7.26,7.26,0,0,0,2.13623,5.14258h-.87012c-1.89893,0-3.24365-.2373-4.58887-.2373-1.74072,0-3.16455.2373-4.58887.2373h-.87012a49.89769,49.89769,0,0,0,4.43066-8.46582c1.18652-2.61035,2.61084-6.3291,3.56006-8.86035ZM180.802,120.11363h16.61475l-8.06982-20.64941Z"/>
      <path d="M231.32789,125.098c0,2.76855.0791,6.25.1582,8.86035.0791,4.50977,1.10791,6.40918,3.08545,8.46582h-.94922c-1.50342,0-3.00635-.39551-5.37988-.39551s-3.95605.39551-5.459.39551h-.94971c1.89893-1.97754,2.61084-4.19336,2.92725-8.46582.15869-2.61035.23779-6.0918.23779-8.86035V104.0521c0-2.76855-.0791-6.25-.23779-8.86035-.31641-4.27246-1.02832-6.48828-2.92725-8.46582h.94971c1.50293,0,3.08545.39551,5.459.39551s3.87646-.39551,5.37988-.39551h.94922c-1.97754,2.05664-3.00635,3.95605-3.08545,8.46582-.0791,2.61035-.1582,6.0918-.1582,8.86035Zm8.14893-13.5293a271.05352,271.05352,0,0,0,19.30469,24.13086c2.769,3.085,5.06348,5.61719,7.35791,6.88281a7.15356,7.15356,0,0,1-4.03516,1.02832c-3.40186,0-6.64551-2.13574-10.36426-6.56641a299.40744,299.40744,0,0,1-18.51318-24.13086l8.86084-8.94043c7.91162-7.99023,10.60156-11.07617,10.60156-13.291,0-1.26562-.31641-2.29492-1.81934-3.95605h1.10742c2.45264,0,3.877.39551,5.61719.39551,1.66162,0,2.84863-.39551,4.90527-.39551h1.187c-3.08545,3.165-4.82617,5.14258-7.99072,8.30762-2.68994,2.68945-6.8833,7.041-8.78223,9.01855Z"/>
      <path d="M300.39576,107.61265v.94922c0,1.583-.2373,2.45313-.2373,5.06348,0,2.61133.2373,3.56055.2373,5.14258v.9502c-1.89844-2.69043-4.19287-3.63965-7.75342-4.11426-2.53174-.31641-8.14893-.39551-10.75977-.39551V125.889c0,2.76855.1582,7.041.2373,8.623.1582,3.877,1.50342,4.58887,5.06348,4.58887a61.82943,61.82943,0,0,0,8.38623-.39551c4.58887-.63281,7.35791-4.74707,9.17773-9.73145a23.32757,23.32757,0,0,1,.31641,3.63965,44.13841,44.13841,0,0,1-1.26562,9.96875c-5.77588-.31641-14.874-.39551-25.001-.39551-2.37354,0-3.95605.2373-5.459.2373h-.94971c1.89893-1.97754,2.61084-4.19336,2.92725-8.46582.15869-2.61035.23779-6.0918.23779-8.86035V104.0521c0-2.76855-.0791-6.25-.23779-8.86035-.31641-4.27246-1.02832-6.48828-2.92725-8.46582h.94971c1.50293,0,3.08545.2373,5.459.2373h14.55762c3.24365,0,5.69629,0,8.78174-.2373a36.83883,36.83883,0,0,1,.2373,12.18359c-1.89893-4.19238-4.50977-7.67383-9.019-8.46484a40.22451,40.22451,0,0,0-6.8042-.39551c-3.71875,0-4.19336.63281-4.43066,3.79688-.2373,2.45313-.2373,5.30078-.2373,8.14941v10.127c2.68994,0,8.228-.0791,10.75977-.39551C296.20289,111.3314,298.49732,110.30308,300.39576,107.61265Z"/>
      <path d="M340.16188,130.557a10.02782,10.02782,0,0,0-3.00635-7.3584,47.14111,47.14111,0,0,0-7.75342-6.3291c-6.8042-4.74707-8.30762-6.0127-10.44385-8.78223a12.36682,12.36682,0,0,1-2.769-8.54395c0-7.91211,6.646-13.8457,15.82373-13.8457a26.31774,26.31774,0,0,1,12.9751,3.24316,29.15658,29.15658,0,0,1,.2373,3.877,45.85684,45.85684,0,0,1-.71191,8.46582c-3.00684-7.2002-6.01318-11.94629-13.13379-11.94629-5.61719,0-9.41455,3.48047-9.41455,8.86035a8.71832,8.71832,0,0,0,2.769,6.72559c1.50293,1.50293,2.53174,2.373,7.59521,5.93359,6.25,4.35156,8.14893,5.69629,10.36426,8.22754a16.12685,16.12685,0,0,1,3.71826,9.96875c0,8.86133-6.96191,14.55762-17.32666,14.55762a28.1317,28.1317,0,0,1-12.9751-2.61035,46.45991,46.45991,0,0,1-1.18652-10.44336c0-2.13672.1582-3.32324.2373-4.50977,3.32275,7.832,6.0127,14.00391,14.47852,14.00391C335.96852,140.05113,340.16188,136.016,340.16188,130.557Z"/>
      <path d="M373.65016,86.805c10.99707,0,18.19678,5.85449,18.19678,15.03223,0,9.57324-7.19971,15.11133-16.06055,15.11133a10.75475,10.75475,0,0,1-7.35791-2.29395,22.55213,22.55213,0,0,0,2.45264.1582c9.33545,0,14.31982-4.27246,14.31982-12.97559,0-8.14941-5.53809-11.94629-13.687-11.94629-3.71875,0-4.19336.791-4.43066,3.95508-.2373,2.45313-.2373,5.30078-.2373,8.14941V125.098c0,2.76855.0791,6.25.1582,8.86035.0791,4.50977,1.10791,6.40918,3.08545,8.46582h-.94922c-1.50342,0-3.00635-.39551-5.37988-.39551s-3.95605.39551-5.459.39551h-.94971c1.89893-1.97754,2.61084-4.19336,2.92725-8.46582.1582-2.61035.23779-6.0918.23779-8.86035V104.0521c0-2.76855-.07959-6.25-.23779-8.86035-.31641-4.27246-1.02832-6.48828-2.92725-8.46582h.94971c1.50293,0,3.08545.39551,5.459.39551C366.846,87.12144,368.42848,86.805,373.65016,86.805Z"/>
      <path d="M427.68482,107.61265v.94922c0,1.583-.2373,2.45313-.2373,5.06348,0,2.61133.2373,3.56055.2373,5.14258v.9502c-1.89844-2.69043-4.19287-3.63965-7.75342-4.11426-2.53174-.31641-8.14893-.39551-10.75977-.39551V125.889c0,2.76855.1582,7.041.2373,8.623.1582,3.877,1.50342,4.58887,5.06348,4.58887a61.82943,61.82943,0,0,0,8.38623-.39551c4.58887-.63281,7.35791-4.74707,9.17773-9.73145a23.32757,23.32757,0,0,1,.31641,3.63965,44.13841,44.13841,0,0,1-1.26562,9.96875c-5.77588-.31641-14.874-.39551-25.001-.39551-2.37354,0-3.95605.2373-5.459.2373h-.94971c1.89893-1.97754,2.61084-4.19336,2.92725-8.46582.15869-2.61035.23779-6.0918.23779-8.86035V104.0521c0-2.76855-.0791-6.25-.23779-8.86035-.31641-4.27246-1.02832-6.48828-2.92725-8.46582h.94971c1.50293,0,3.08545.2373,5.459.2373h14.55762c3.24365,0,5.69629,0,8.78174-.2373a36.83883,36.83883,0,0,1,.2373,12.18359c-1.89893-4.19238-4.50977-7.67383-9.019-8.46484a40.22451,40.22451,0,0,0-6.8042-.39551c-3.71875,0-4.19336.63281-4.43066,3.79688-.2373,2.45313-.2373,5.30078-.2373,8.14941v10.127c2.68994,0,8.228-.0791,10.75977-.39551C423.492,111.3314,425.78639,110.30308,427.68482,107.61265Z"/>
      <path d="M462.81178,85.53941,478.16041,125.098c.94971,2.53125,2.37354,6.25,3.56055,8.86035,1.50293,3.48145,2.45264,6.01367,4.43066,8.46582h-1.187c-2.05713,0-3.481-.2373-5.22168-.2373-1.81982,0-3.00635.2373-5.22168.2373h-.791a6.38391,6.38391,0,0,0,1.582-4.27246c0-2.61035-1.26562-5.77539-3.87646-13.05371l-.6333-1.583H451.4983l-.55371,1.583c-2.769,7.27832-3.40234,10.36426-3.40234,12.18359a7.26,7.26,0,0,0,2.13623,5.14258h-.87012c-1.89893,0-3.24365-.2373-4.58887-.2373-1.74072,0-3.16455.2373-4.58887.2373h-.87012a49.89768,49.89768,0,0,0,4.43066-8.46582c1.18652-2.61035,2.61084-6.3291,3.56006-8.86035Zm-9.88965,34.57422h16.61475l-8.06982-20.64941Z"/>
      <path d="M508.61891,86.805c11.23486,0,17.24756,6.64551,17.24756,14.083a14.151,14.151,0,0,1-8.93994,13.6875c4.19287,7.75293,7.67432,13.84473,13.37061,21.04492,2.13623,2.61035,4.11426,4.98438,7.27881,6.88281a6.05821,6.05821,0,0,1-4.03516,1.10742c-3.40186,0-6.56641-1.81934-9.96875-6.56641-4.66748-6.3291-7.91162-12.02539-12.10449-21.04492a23.31384,23.31384,0,0,1-4.35156.31641,28.2439,28.2439,0,0,1-4.668-.31641V125.098c0,2.76855.0791,6.25.1582,8.86035.0791,4.50977,1.10791,6.40918,3.08545,8.46582h-.94922c-1.50342,0-3.00635-.39551-5.37988-.39551s-3.95605.39551-5.459.39551h-.94971c1.89893-1.97754,2.61084-4.19336,2.92725-8.46582.15869-2.61035.23779-6.0918.23779-8.86035V104.0521c0-2.76855-.0791-6.25-.23779-8.86035-.31641-4.27246-1.02832-6.48828-2.92725-8.46582h.94971c1.50293,0,3.08545.39551,5.459.39551C502.448,87.12144,504.03053,86.805,508.61891,86.805Zm-5.93359,7.041c-.2373,2.45313-.2373,5.30078-.2373,8.14941v11.07617a32.03747,32.03747,0,0,0,3.63916.0791c8.78223,0,13.05469-4.43066,13.05469-11.47168,0-7.27832-4.11426-11.78809-12.02588-11.78809C503.39723,89.891,502.92262,90.682,502.68531,93.846Z"/>
      <path d="M570.35719,107.61265v.94922c0,1.583-.2373,2.45313-.2373,5.06348,0,2.61133.2373,3.56055.2373,5.14258v.9502c-1.89844-2.69043-4.19287-3.63965-7.75342-4.11426-2.53174-.31641-8.14893-.39551-10.75977-.39551V125.889c0,2.76855.1582,7.041.2373,8.623.1582,3.877,1.50342,4.58887,5.06348,4.58887a61.82943,61.82943,0,0,0,8.38623-.39551c4.58887-.63281,7.35791-4.74707,9.17773-9.73145a23.32757,23.32757,0,0,1,.31641,3.63965,44.13841,44.13841,0,0,1-1.26562,9.96875c-5.77588-.31641-14.874-.39551-25.001-.39551-2.37354,0-3.95605.2373-5.459.2373h-.94971c1.89893-1.97754,2.61084-4.19336,2.92725-8.46582.1582-2.61035.23779-6.0918.23779-8.86035V104.0521c0-2.76855-.07959-6.25-.23779-8.86035-.31641-4.27246-1.02832-6.48828-2.92725-8.46582h.94971c1.50293,0,3.08545.2373,5.459.2373h14.55762c3.24365,0,5.69629,0,8.78174-.2373a36.83883,36.83883,0,0,1,.2373,12.18359c-1.89893-4.19238-4.50977-7.67383-9.019-8.46484a40.22451,40.22451,0,0,0-6.8042-.39551c-3.71875,0-4.19336.63281-4.43066,3.79688-.2373,2.45313-.2373,5.30078-.2373,8.14941v10.127c2.68994,0,8.228-.0791,10.75977-.39551C566.16432,111.3314,568.45875,110.30308,570.35719,107.61265Z"/>
    </g>
    <g>
      <path d="M632.65425,85.6326l15.34863,39.55859c.94971,2.53125,2.37354,6.25,3.56055,8.86035,1.50293,3.48145,2.45264,6.01367,4.43066,8.46582h-1.187c-2.05713,0-3.481-.2373-5.22168-.2373-1.81982,0-3.00635.2373-5.22168.2373h-.791a6.38391,6.38391,0,0,0,1.582-4.27246c0-2.61035-1.26562-5.77539-3.87646-13.05371l-.63281-1.583H621.34078l-.55371,1.583c-2.769,7.27832-3.40234,10.36426-3.40234,12.18359a7.26,7.26,0,0,0,2.13623,5.14258h-.87012c-1.89893,0-3.24365-.2373-4.58887-.2373-1.74072,0-3.16455.2373-4.58887.2373H608.603a49.89768,49.89768,0,0,0,4.43066-8.46582c1.18652-2.61035,2.61084-6.3291,3.56006-8.86035Zm-9.88965,34.57422h16.61475L631.30953,99.5574Z"/>
      <path d="M668.11959,104.14529c0-2.76855,0-5.77539-.23779-8.38574-.39551-4.19336-1.26562-6.64648-3.56006-8.94043h.94922c2.29443,0,3.79785.2373,7.51611.2373l35.91943,41.93164V104.14529c0-2.76855-.0791-6.25-.2373-8.86035-.31689-4.27246-1.02881-6.48828-2.92773-8.46582h.6333c1.50293,0,3.08545.39551,4.66748.39551,1.58252,0,3.165-.39551,4.668-.39551h.6333c-1.978,2.05664-3.00684,3.95605-3.08594,8.46582-.0791,2.61035-.1582,6.0918-.1582,8.86035v26.74219c0,3.79688.0791,9.415.31641,13.52832L672.31246,96.62967v28.64063c0,2.76855.0791,6.25.1582,8.86035.0791,4.50977,1.10791,6.40918,3.08594,8.46582h-.6333c-1.50293,0-3.08545-.39551-4.668-.39551-1.582,0-3.16455.39551-4.66748.39551h-.6333c1.89893-1.97754,2.61084-4.19336,2.92725-8.46582.15869-2.61035.23779-6.0918.23779-8.86035Z"/>
      <path d="M727.51363,104.14529c0-2.76855-.0791-6.25-.23779-8.86035-.31641-4.27246-1.02832-6.48828-2.92725-8.46582h.94971c1.50293,0,3.08545.39551,5.459.39551,4.82617,0,8.46533-.55371,13.84521-.55371,16.061,0,30.38086,9.49414,30.38086,28.24512,0,16.93066-12.10449,28.00684-29.82715,28.00684-6.64551,0-10.99707-.791-14.39893-.791-2.37354,0-3.95605.39551-5.459.39551h-.94971c1.89893-1.97754,2.61084-4.19336,2.92725-8.46582.15869-2.61035.23779-6.0918.23779-8.86035Zm40.19092,10.83984c0-15.50684-10.20605-24.76367-23.73486-24.76367-7.99072,0-9.65234.55371-9.88965,3.71777-.2373,2.45313-.2373,5.30078-.2373,8.14941v23.89355c0,2.76855.0791,7.041.2373,8.623.39551,4.03516,2.45264,4.58887,10.52246,4.58887C759.23922,139.19412,767.70455,130.41287,767.70455,114.98514Z"/>
    </g>
    <g>
      <path d="M855.81057,124.16131a33.03208,33.03208,0,0,1,.31641,4.98438,54.31444,54.31444,0,0,1-.791,10.04785,36.19948,36.19948,0,0,1-17.80127,4.43066c-15.34863,0-30.77637-9.88965-30.77637-29.11426,0-17.40625,14.00342-28.79883,30.69727-28.79883a37.93364,37.93364,0,0,1,17.48486,3.95605c.1582,2.05664.1582,2.84766.1582,4.668a49.07585,49.07585,0,0,1-.63281,8.78125c-3.63965-8.78125-7.27881-13.76563-16.93115-13.76563-13.9248,0-23.33936,10.20605-23.33936,25.0791,0,16.14063,12.10449,25.63477,24.36768,25.63477C848.53176,140.06463,852.01321,133.81365,855.81057,124.16131Z"/>
      <path d="M893.39065,85.71112c16.69385,0,28.87793,12.5,28.87793,28.957,0,16.69336-12.65869,28.95605-28.166,28.95605-17.168,0-29.35205-11.78809-29.35205-28.95605C864.75051,97.81561,877.56741,85.71112,893.39065,85.71112Zm-21.20312,27.92773c0,16.06055,10.60156,26.1084,22.94385,26.1084,11.47168,0,19.7002-9.80957,19.7002-24.12988,0-15.26953-10.20605-25.9502-22.62744-25.9502C881.20657,89.66717,872.18753,98.21112,872.18753,113.63885Z"/>
      <path d="M960.58792,143.6242,938.59329,95.52166,937.565,125.19061c-.0791,1.81934-.1582,4.11328-.1582,6.25,0,5.06348.2373,8.624,3.40186,11.07617h-.94922c-1.89893,0-3.08545-.39551-4.74707-.39551s-2.68994.39551-4.50977.39551h-.94922c2.05713-2.21484,2.92725-4.74707,3.24365-8.46582.2373-2.61035.2373-6.0918.39551-8.86035l.94971-21.125c.0791-1.81934.0791-3.00586.0791-6.25,0-6.1709-.63281-8.70312-3.877-11.07617h1.34521c3.63916,0,4.98438.2373,10.20605.2373L961.854,131.2033l18.82959-44.22656c5.14258,0,7.67432-.2373,10.60156-.2373h.94971c-2.13623,2.373-2.84814,4.90527-3.08594,8.46582-.0791,1.89844-.1582,4.35156-.1582,6.56641,0,.87012.1582,1.582.5542,23.41895.0791,2.76855.1582,6.25.31641,8.86035.2373,4.27246.791,6.01367,3.08545,8.46582h-1.02832c-2.37354,0-3.56055-.39551-5.30127-.39551-1.74023,0-2.84814.39551-5.22168.39551h-1.10742c2.92725-2.373,3.08545-4.74707,3.08545-10.918,0-1.97852,0-4.43066-.0791-6.4082l-.71191-31.41016Z"/>
      <path d="M1020.21243,86.81854c10.99707,0,18.19678,5.85449,18.19678,15.03223,0,9.57324-7.19971,15.11133-16.06055,15.11133a10.75475,10.75475,0,0,1-7.35791-2.29395,22.55214,22.55214,0,0,0,2.45264.1582c9.33545,0,14.31982-4.27246,14.31982-12.97559,0-8.14941-5.53809-11.94629-13.687-11.94629-3.71875,0-4.19336.791-4.43066,3.95508-.2373,2.45313-.2373,5.30078-.2373,8.14941v23.10254c0,2.76855.0791,6.25.1582,8.86035.0791,4.50977,1.10791,6.40918,3.08545,8.46582h-.94922c-1.50342,0-3.00635-.39551-5.37988-.39551s-3.95605.39551-5.459.39551h-.94971c1.89893-1.97754,2.61084-4.19336,2.92725-8.46582.1582-2.61035.23779-6.0918.23779-8.86035v-21.0459c0-2.76855-.07959-6.25-.23779-8.86035-.31641-4.27246-1.02832-6.48828-2.92725-8.46582h.94971c1.50293,0,3.08545.39551,5.459.39551C1013.40823,87.13494,1014.99075,86.81854,1020.21243,86.81854Z"/>
      <path d="M1063.9053,85.55291l15.34863,39.55859c.94971,2.53125,2.37353,6.25,3.56055,8.86035,1.50293,3.48145,2.45264,6.01367,4.43066,8.46582h-1.187c-2.05713,0-3.481-.2373-5.22168-.2373-1.81982,0-3.00635.2373-5.22168.2373h-.791a6.38391,6.38391,0,0,0,1.582-4.27246c0-2.61035-1.26562-5.77539-3.87646-13.05371l-.6333-1.583h-19.3042l-.55371,1.583c-2.769,7.27832-3.40234,10.36426-3.40234,12.18359a7.26,7.26,0,0,0,2.13623,5.14258h-.87012c-1.89892,0-3.24365-.2373-4.58887-.2373-1.74072,0-3.16455.2373-4.58887.2373h-.87012a49.8977,49.8977,0,0,0,4.43066-8.46582c1.18652-2.61035,2.61084-6.3291,3.56006-8.86035Zm-9.88965,34.57422h16.61475l-8.06982-20.64941Z"/>
      <path d="M1097.37063,104.06561c0-2.76855,0-5.77539-.2373-8.38574-.396-4.19336-1.26611-6.64648-3.56055-8.94043h.94922c2.29443,0,3.79785.2373,7.51611.2373l35.91943,41.93164V104.06561c0-2.76855-.0791-6.25-.2373-8.86035-.3169-4.27246-1.02881-6.48828-2.92774-8.46582h.6333c1.50293,0,3.08545.39551,4.66748.39551,1.58252,0,3.165-.39551,4.668-.39551h.6333c-1.978,2.05664-3.00684,3.95605-3.08594,8.46582-.0791,2.61035-.1582,6.0918-.1582,8.86035V130.8078c0,3.79688.0791,9.415.31641,13.52832L1101.5635,96.55v28.64062c0,2.76855.0791,6.25.1582,8.86035.0791,4.50977,1.10791,6.40918,3.08594,8.46582h-.6333c-1.50293,0-3.08545-.39551-4.668-.39551-1.582,0-3.16455.39551-4.66748.39551h-.6333c1.89893-1.97754,2.61084-4.19336,2.92773-8.46582.1582-2.61035.2373-6.0918.2373-8.86035Z"/>
      <path d="M1176.32815,125.11151c0,2.76855.07959,6.25.15869,8.86035.0791,4.50977,1.10742,6.40918,3.08545,8.46582h-.94971c-1.50293,0-3.00635-.39551-5.37988-.39551s-3.95557.39551-5.459.39551h-.94922c1.89844-1.97754,2.61084-4.19336,2.92725-8.46582.1582-2.61035.2373-6.0918.2373-8.86035v-8.94043l-7.437-12.10547c-1.42432-2.373-3.71826-6.25-5.37988-8.86035-2.13623-3.24414-3.32275-5.14258-5.69629-8.46582h1.10742c1.978,0,3.877.31641,5.459.31641,1.74072,0,3.71875-.31641,5.61719-.31641h.87061c-1.50342,1.50293-1.89893,2.53223-1.89893,3.71875,0,1.89844.791,3.71777,6.8833,13.60742l4.98438,8.07031,4.668-8.07031c3.87647-6.64551,6.0918-10.918,6.0918-13.37012,0-1.34473-.55371-2.45312-1.89893-3.95605h.94971c1.582,0,2.84814.31641,4.58838.31641,1.74072,0,3.48144-.31641,4.58887-.31641h.87061c-2.21533,3.24414-3.32324,5.06348-5.45947,8.38672-1.66113,2.61035-4.11377,6.56641-5.53809,9.01855l-7.0415,11.94727Z"/>
    </g>
  </g>
  <g>
    <g>
      <path d="M523.02138,185.66717h11.48779c4.17725,0,7.02588.2373,9.35156,2.75293a9.28781,9.28781,0,0,1,2.51611,6.64648,9.05818,9.05818,0,0,1-2.70605,6.69336c-1.80371,1.80371-4.17725,2.94238-10.34814,2.94238h-5.5542v15.23828h-4.74707Zm4.74707,15.04785h5.64893c3.1333,0,7.92773-.2373,7.92773-5.83887,0-5.36426-4.4624-5.36426-6.93066-5.36426h-6.646Z"/>
      <path d="M554.30361,185.66717h12.24707c1.75635,0,5.36426,0,7.88037,1.61426a8.04476,8.04476,0,0,1,3.79736,6.97754,8.29966,8.29966,0,0,1-6.45605,8.30762c3.27539.85449,4.74707,2.32617,5.22168,6.59863a45.68484,45.68484,0,0,0,2.13623,10.77539h-5.0791a59.09516,59.09516,0,0,1-1.56641-9.06641c-.56982-4.98437-1.75684-6.40918-7.50049-6.40918h-5.98145v15.47559h-4.69922Zm4.60449,14.76367h7.50049c.522,0,3.22754,0,4.50928-.75977a4.87057,4.87057,0,0,0,2.32617-4.46191c0-5.55469-4.937-5.55469-6.83545-5.55469H558.9081Z"/>
      <path d="M591.47206,189.3703a15.28156,15.28156,0,0,1,11.44043-4.60547c9.49414,0,15.4751,6.07617,15.4751,17.707,0,9.11426-3.65527,18.27539-15.855,18.27539-11.67773,0-15.4751-8.30664-15.4751-17.70605C587.05751,199.14862,587.72206,193.40448,591.47206,189.3703Zm3.60791,24.209c1.94629,2.4209,4.88916,3.13379,7.59521,3.13379a9.45988,9.45988,0,0,0,7.59521-3.13379c2.80078-3.418,3.08545-8.8291,3.08545-11.15527,0-7.78516-2.56348-13.6709-10.396-13.6709-8.687,0-10.918,6.97754-10.918,14.00293C592.04189,206.507,592.70644,210.6369,595.08,213.57928Z"/>
      <path d="M629.59023,210.6369a7.40689,7.40689,0,0,0,.75928,3.75,5.08,5.08,0,0,0,4.415,2.08887,5.41228,5.41228,0,0,0,4.74658-2.42187,9.95715,9.95715,0,0,0,.80713-4.60449V185.66717h4.74707v25.06445c0,6.31348-4.98437,9.73145-10.6333,9.73145-1.80371,0-5.7915-.42773-8.165-3.56055a10.51667,10.51667,0,0,1-1.7085-6.26562Z"/>
      <path d="M655.93593,185.66717h21.50391v4.03516H660.683V200.383h15.94971v3.9873H660.683v11.39258h17.13623v4.17773h-21.8833Z"/>
      <path d="M708.53163,194.924c-.18945-1.18652-.80664-5.93359-7.40527-5.93359-8.25977,0-9.73145,8.44922-9.73145,14.14551,0,6.45605,1.85156,13.43457,9.68408,13.43457a7.43132,7.43132,0,0,0,5.5542-2.041,6.746,6.746,0,0,0,1.66113-3.6084H713.516c-.71191,6.74121-6.93066,9.542-12.81689,9.542-12.05713,0-14.3833-10.63379-14.3833-17.2793,0-7.21582,2.80078-17.99121,15.00049-17.99121,4.8418,0,11.67773,1.94629,12.29492,9.73145Z"/>
      <path d="M730.22548,219.94061V189.70233H718.73769v-4.03516h27.6748v4.03516H734.9247v30.23828Z"/>
    </g>
    <rect x="779.81825" y="201.17498" width="40" height="4"/>
    <rect x="444.14345" y="201.17498" width="40" height="4"/>
  </g>
</svg>
