<svg id="Layer_1" data-name="Layer 1" xmlns="http://www.w3.org/2000/svg" viewBox="0 0 340 500">
  <title>SCo_logo_graphic</title>
  <g id="JOj56f.tif">
    <g>
      <path d="M273.47693,298.06336c-5.29217,7.25294-12.34226,14.9831-15.16682,23.29813-1.27006,3.73886-2.51021,7.419-3.69805,11.25376-1.13,3.648-.842,8.17752-2.13164,11.42343-1.2674,3.18988-6.21033,7.13555-8.37547,10.106-2.96923,4.07368-4.40185,8.37694-5.83957,13.35542a16.45327,16.45327,0,0,1-.67441,2.54332c-.56574,1.14473-1.50618.51583-1.89835,1.21583-.91,1.62435-1.10351,4.0459-1.737,5.82585-1.46658,4.1206-2.5703,8.87819-4.52574,12.66269-2.21138,4.27985-4.01654,7.4638-4.82924,12.54408-.68069,4.255-2.21229,8.26991-3.05607,12.51342-1.77315,8.91753-4.71518,19.513-9.60005,27.25925-.17963.28485-.97514.223-1.48678.99694-.59154.89475-.68237,2.1172-1.25616,3.024-1.4257,2.253-2.38419,3.36517-5.36274,3.21139-5.262-.27167-6.99361-4.74663-7.30068-9.39769-.66369-10.05255,1.26786-20.28293-.72061-30.25429-1.06455-5.33828-3.51245-10.228-4.43957-15.77182-.9766-5.83964-1.62944-11.712-.8259-17.6118,1.66488-12.224-1.65325-21.62629-5.62454-33.08647-2.38915,1.77254-7.03933,6.60631-9.83989,7.363-2.15452.58215-6.38267-.78145-8.34817-1.78371-5.86811-2.99231-9.423-12.09632-11.75136-17.73677-3.11126,6.38143-1.70994,15.40543-.4004,22.05922.81139,4.12268-.51069,7.61755-.49205,11.78025.02062,4.60733.12019,8.9834-.04725,13.60179-.30612,8.44313-2.615,16.58936-3.47469,24.84214-.77168,7.40788-1.79428,14.82507-1.92565,22.06938-.09778,5.39221-.81806,16.87225-4.50973,20.64594-6.39912,6.5413-14.29318-1.57806-15.64907-7.85367-3.33789-15.44918-5.81533-30.83958-9.72653-46.03521-1.8181-7.06359-3.15566-13.62208-5.90755-20.40463-1.22711-3.02445-1.656-6.65468-3.17-9.52416-1.81365-3.43725-4.91256-5.38913-6.5461-9.17391-3.08009-7.13629-5.01343-14.7545-8.21474-21.85691-1.49389-3.31434-3.03765-6.87288-4.8244-10.04264-1.62787-2.8879-4.13967-4.202-6.301-6.88128-4.28891-5.31674-6.27857-13.35456-11.49706-17.72648-4.83832-4.05343-11.47293-2.97172-14.41492-8.83727-8.2343-16.41706,11.16666-26.1778,21.49518-34.77062a110.69114,110.69114,0,0,1,9.03075-7.18743c2.36061-1.58552,5.088-2.68312,3.97891-6.16883-.8807-2.768-5.44683-4.78462-7.96569-5.8028-3.60315-1.45648-4.67835-2.14557-6.827-5.71333a34.16243,34.16243,0,0,1-3.70775-8.95414c-1.25458-4.45491-.08643-6.24044.80881-10.46893.94377-4.4577-.62324-8.80785.16039-13.31184.69592-3.99986,1.62539-8.19482,2.69288-12.11242a64.105,64.105,0,0,1,4.42162-10.68175,25.546,25.546,0,0,0,1.51688-2.96985c.27681-.89422.15835-3.00659.51057-4.21849,2.49488-8.58427,6.29938-15.86746,10.49595-23.59458,1.86776-3.4391,2.78466-7.43363,4.21543-11.185,1.226-3.21459,3.30612-5.43867,4.82211-8.51456,3.51827-7.13845,5.42588-15.00182,9.87614-21.693,8.20911-12.34276,19.77876-26.43,33.52928-31.89812,6.08365-2.41926,12.44265-7.78126,19.05845-8.783,3.78914-.57375,7.561.45794,11.34053.01352,4.819-.56667,9.0906-1.30958,13.89987-.10824,6.55211,1.63669,10.20924,7.43381,15.76159,11.0393,3.19667,2.0758,6.95369,3.59454,9.602,6.36949,2.92546,3.0653,5.2241,6.72959,8.2035,9.81763A53.4328,53.4328,0,0,1,235.96331,103.615c3.0909,7.27393,8.47638,13.84381,10.60062,21.37821,1.15929,4.11184,1.3446,8.0681,2.70523,12.12387,1.48194,4.41738,3.07092,8.7322,4.91461,13.01206,1.88229,4.36944,2.10734,7.7,3.03662,12.253.87551,4.28961,3.24,8.57342,4.91273,12.60426,3.20867,7.73213,7.64261,14.607,9.81016,22.68178,1.82,6.7802,3.888,16.48037.588,22.66182a4.729,4.729,0,0,1-1.11267,1.54772,12.64612,12.64612,0,0,0-1.81336,1.41465,19.88334,19.88334,0,0,0-1.8767,2.15187c-2.26275,2.45547-7.70977,7.77848-7.26377,10.98731.26127,1.87972,4.70562,6.79855,5.96629,8.19536,2.6539,2.9405,5.76925,5.79024,8.57147,8.60635C288.00435,266.29967,286.68487,285.738,273.47693,298.06336ZM232.92148,160.82749c4.95592-1.53544,4.8667-3.98111,3.94576-8.76632-1.1005-5.71821-2.28232-11.47481-3.75688-17.1022-1.21091-4.62125-1.54212-9.40135-3.95194-13.61146-2.58939-4.52385-3.39389-9.24773-6.1854-13.68452-5.65444-8.98711-12.00816-20.26555-22.108-24.42473-7.5321-3.10177-13.121-10.09532-20.6255-10.837-2.57625-.25462-3.74554.15582-6.23924.47161a15.07543,15.07543,0,0,1-3.60746.2c-1.236-.04344-2.48691-.35685-3.72562-.33258-2.677.05245-4.14594,1.68276-6.30212,2.69227-.69031.3232-3.17187.28034-3.96311,1.1428q-.75347.50234-1.541.94932c-8.18292,2.25611-14.98544,8.17751-21.147,13.72048a44.093,44.093,0,0,0-14.39975,24.40864c-1.08675,4.88341-3.823,9.31651-5.2379,14.144-1.66747,5.6891-3.00162,11.45824-4.551,17.177-1.57419,5.81032.33078,12.50262,1.3968,18.49843.5533,3.112,1.98589,5.26551,3.43088,8.01523.78829,1.50007,1.666,6.58642,2.78323,7.60838,2.75675,2.52159,13.13919-.30594,16.93535-.0026,3.809.30436,12.57161-.26522,13.35932,4.508,2.34684-4.52628,9.39689,3.97911,10.34287,6.92979,1.323,4.12665-.39549,3.3217-3.04854,6.16831-1.65073,1.77117-.9642,2.72257-3.75151,3.57779-3.52115-.635-7.29272,3.20762-12.03349,2.24227-1.7056-.34731-2.45-.84275-3.805-.84614-1.58161-.004-2.22594,1.24893-4.11607.79251-2.56083-.61839-5.92494-4.13134-7.54755-6.25237-1.76549-2.3078-6.208-13.8848-8.13214-4.70536-.707,3.37292.34053,7.70673-.02569,11.25086-.32332,3.12895-1.26383,6.12577-1.59352,9.19777-.70211,6.542-.49119,13.81253-.5972,20.419-.11677,7.277,3.5761,13.1101,5.94673,19.66861,1.9507,5.39672,5.75559,8.83652,6.63719,14.38871,1.1523,7.25707,5.62775,11.82586,10.56231,17.43053,4.51638,5.1297,8.8019,11.17938,14.36348,15.2357,2.47927,1.80824,5.38827,3.02622,7.76727,4.96919,3.209,2.62083,4.01491,5.517,5.89965,9.18079,1.69335,3.29176,6.64151,13.88117,11.00464,12.72375,1.9789-.52495,3.97853-3.60393,5.21994-5.14722,2.83489-3.52427,1.69565-4.61581,2.202-8.6911.82641-6.65115,7.038-7.867,12.12322-10.72417A56.21186,56.21186,0,0,0,209.876,290.51465c4.00432-4.76428,8.34489-10.23777,10.92555-15.90483,1.2873-2.82688,1.60457-6.235,2.90381-9.17881,1.56572-3.54752,2.78845-6.29315,2.95918-10.23719.15573-3.59759-.23381-6.69726,1.16966-10.05383,1.46161-3.49561,4.108-6.172,5.24647-9.87169,2.0793-6.75688,2.58519-15.56011,2.68438-22.60956.10533-7.48608-.42252-15.26528-.8193-22.71679-.19047-3.577-.78541-7.20248-.91357-10.85062-.14236-4.0526.77246-9.59-.71777-13.31174-3.04319,2.23681-5.734,1.508-9.086,1.21584-3.37172-.29384-4.55366.06949-7.55158,1.61644-5.40119,2.78706-11.69667,2.80123-16.77017,5.39544-2.26742,1.15939-5.05865,2.47716-7.23372,3.77716-2.65524,1.587-2.5923,3.61453-4.35389,5.84873a8.84439,8.84439,0,0,1-6.76318,2.92989c-3.36726-.11629-3.45156-.48244-3.74981-4.11988-.53382-6.51059,3.33312-9.92455,8.68245-13.08328,5.8028-3.42649,11.395-7.43689,17.3098-10.60918,4.00985-2.15062,10.0873-5.00015,14.74932-3.94455,2.383.53957,3.55265,1.82636,5.6217,2.77069C226.85553,158.80291,230.11217,159.571,232.92148,160.82749ZM111.00219,342.923c3.46877-1.698,7.27781-5.72106,10.35124-8.316a63.229,63.229,0,0,1,14.31417-9.574c3.398-1.52258,12.45055-1.99691,13.89233-5.73274,1.6426-4.25616-6.66692-8.6821-9.08226-10.5902-4.04248-3.19353-6.2582-6.93419-9.50117-10.80184-3.56214-4.24831-7.42042-8.08418-10.30742-12.88431-5.5712-9.26305-10.53169-18.11261-14.13932-28.31026-1.56961-4.4368-3.98711-6.69717-7.51068-2.28678-1.226,1.53454-1.41457,3.56908-2.47942,5.14-1.61324,2.38-4.07653,3.27086-6.46959,4.662-4.61838,2.68484-7.71393,6.10984-10.8,10.4503-1.12421,1.58118-3.366,3.59255-4.00992,5.46217q-2.78857,1.92023.23961,3.46716,1.52838,1.59346,3.046,3.1972c7.72954,8.29587,13.50432,15.98747,18.61833,26.13238,2.63852,5.23418,5.31257,10.465,7.81673,15.76441C107.19358,333.3854,108.027,338.61979,111.00219,342.923Zm86.365-26.77471c3.58943,1.64569,7.33163-.5296,10.9987.44907,4.03717,1.07745,5.87959,5.32621,9.23094,7.5343,3.42539,2.25688,6.77657,2.73039,9.45736,6.13114,1.61133,2.04407,3.41826,9.77514,6.63746,9.33338,2.07907-.28531,3.47869-6.35688,4.41539-8.1776,2.12279-4.1262,4.95652-7.8955,7.00834-12.04133,3.52166-7.11575,7.88544-14.74092,9.70072-22.48124.92692-3.95238,1.1185-7.65417,3.49443-11.07285,2.64612-3.80746,6.65413-4.81585,9.70792-7.85417,7.20536-7.16887-3.841-17.625-9.11641-21.66709-3.33636-2.55637-5.12238-5.573-9.14238-7.15558-1.82567-.71873-3.25156-.92146-4.87148-2.183-1.2987-1.01134-2.03538-3.26265-3.65966-2.62337-2.3016.90587-2.33276,8.56963-3.14138,10.65385-1.70164,4.386-2.74935,8.84041-4.67516,13.19048a151.94706,151.94706,0,0,1-15.48259,27.43805,100.29283,100.29283,0,0,1-10.125,11.44628C206.23508,308.64919,197.17672,314.70826,197.36715,316.14834Zm-7.12789,19.44932c3.771,13.392,8.46717,25.24665,8.50337,39.38155.01665,6.502-.75363,13.51582.76909,19.89865,1.47417,6.17933,2.46268,13.06935,4.66511,19.0192.34507-.03123,7.11273-19.262,7.63459-21.57069.94845-4.19583-.92824-10.13982-1.32673-14.36691-.48128-5.10523-.07973-10.16548-.60625-15.27446-.86221-8.36631-7.23354-13.213-10.5267-20.42882-1.20767-2.64621-.91029-9.15768-2.89609-11.17377C193.32126,327.90024,190.77742,332.68464,190.23926,335.59765Zm-50.96234,70.97168c.97288-5.61255-.17533-11.93546,1.96849-17.27858,1.18242-2.947,1.9-3.8497,1.788-7.17247a55.33587,55.33587,0,0,1,.58559-9.00475c.64442-5.29118,2.44573-10.01917,3.19939-15.17905.73945-5.06259,1.33193-14.20147-.94623-18.76061-4.3347,4.73319-5.33849,11.89438-7.72643,17.32466-3.0282,6.88623-3.655,15.308-4.447,22.7004-.43281,4.03977.161,6.86656.7308,10.81722.46148,3.19941-.85186,5.78-.85167,8.74009.00022,3.39353,2.61335,4.32419,3.68511,6.85533,1.08608,2.565-.6398,4.74541,1.60169,7.18361A6.79444,6.79444,0,0,0,139.27692,406.56933Zm84.92859-54.85878c1.06089.25432-4.71124-11.55445-5.62229-12.76636-4.01784-5.34468-9.11688-6.73979-15.20289-9.01163.48371,7.43212,5.84868,11.77859,9.22975,18.0283,3.19165,5.89958,1.47771,13.64327,5.26144,19.03436C220.766,362.60663,222.29908,356.65494,224.20551,351.71055Zm24.92313-127.55076c.95774-2.42863-.85-6.115-1.26348-8.53661a79.57729,79.57729,0,0,1-1.18486-11.14788c-.06176-2.57571-1.31628-15.94645.9259-17.06426l1.36157,1.97106a1.99565,1.99565,0,0,0,2.37515,1.14847c.94156,1.31806,1.0094,4.22558,1.37609,5.76511.59775,2.50962.72486,8.09449,3.72544,9.02951,1.42748-2.43962-.128-7.6851-1.00017-10.15293-1.06015-2.99979-2.18323-7.84844-3.95075-10.45791-1.34682-1.98837-3.60957-3.38084-5.05933-5.48775-.68366-.99354-2.465-5.67669-4.416-3.62146-.36369.38312.09547,4.16714.13093,4.72906.103,1.63192.38907,2.994.61351,4.60938a11.046,11.046,0,0,1,.00676,4.66431,35.07268,35.07268,0,0,0,.12923,11.46838c1.26335,8.27114,1.24215,16.98436,1.484,25.42168ZM127.0674,371.71211c2.06072-3.92149,3.50817-9.74054,4.388-14.10581,1.00843-5.003,4.55556-10.81716,3.30114-16.039-4.62419,2.73916-15.30721,7.86359-14.38955,13.86159C121.20525,360.90756,124.27513,367.06881,127.0674,371.71211ZM100.33791,178.91357c-.32776,6.61346-5.79192,13.67476-8.51316,19.73132-1.48692,3.30938-3.42552,7.346-3.78642,10.888a4.8999,4.8999,0,0,0,.795,2.69492l-.91316,1.99549c.35082,1.126,1.06489,2.81647,2.34162,3.2458,3.79486,1.27608,3.14592-2.92938,3.54725-5.3591.753-4.55865,3.09847-8.38032,4.36659-12.76246.91483-3.16129.3802-7.24027,1.72684-10.20284,1.07012-2.35424,1.49668-2.25326,2.19839-4.65366.52912-1.81.98668-4.22649.291-6.01607Zm4.10845,27.47885a49.24675,49.24675,0,0,1-3.76433,12.18309c-2.33159,5.10826-1.71851,6.83811,4.32869,7.35562-.79541-2.51113.38049-4.663,1.09464-7.12848,1.05791-3.65219,1.67009-7.378,2.40865-11.11838.68285-3.45821.3321-5.23994.11118-8.57273-.23731-3.58016,1.23427-5.80233-1.32653-8.83314C106.15743,195.61328,106.00149,201.1426,104.44636,206.39242Zm42.88415-13.1859c-1.67046-2.30152-2.82126-4.731-5.4719-5.76969-3.32923-1.30457-9.30612-1.04949-12.80144-.66911-.38555,1.86827,7.53556,4.29931,8.76029,4.68927a38.69749,38.69749,0,0,1,4.08092,1.14345C143.91713,193.43616,144.938,194.68342,147.33051,193.20651Zm114.19064,16.22892c-1.33658-1.87022.23068-4.36147-1.61065-6.14259-.1549,2.81144-1.7529,4.53663-2.46479,7.02979a21.33277,21.33277,0,0,1-1.89156,2.67474l3.15231,3.46624ZM100.84728,171.32161c2.98661-1.11168.41614-6.11-1.16591-5.48336C100.69132,168.02282,101.23063,168.98834,100.84728,171.32161ZM210.41512,422.225c-.992,1.348-2.27031,2.35807-1.06558,4.04236C211.17331,425.25528,211.5649,424.00262,210.41512,422.225Zm-50.27954-99.16457c1.82517.45823,3.21224.52672,4.07422-1.35553C162.501,321.78975,160.13559,321.11739,160.13559,323.06041Zm-38.16053,54.67084,1.67185.50263c.88206-1.71764-.42355-2.75493-1.19537-4.10684ZM71.20479,284.91782l-1.4126-1.051c-.65593,1.54715-1.25693,2.48707-.295,3.95182Zm85.09659,38.54054,2.55287-2.023c-.42766-.88412-2.31863-.35556-3.16717-.30183Zm-55.519-146.58958c-2.03152-2.38351-2.70177-2.57446-3.958-1.46481C98.16322,175.89945,99.47282,176.38412,100.78242,176.86877ZM71.469,267.393c-1.07318-1.105-3.11319,1.86521-3.64269,2.75008C70.2178,269.49645,70.14693,269.2306,71.469,267.393ZM143.46,439.36327l-3.1594-1.49672C140.30058,441.16548,140.81384,440.07516,143.46,439.36327Zm74.89078-65.07346q-1.75582,1.26248-1.74025-2.12623c-.75033.47747-.10817,2.55057-.01629,3.28661Zm-116.134-174.78643c-2.09177,1.74036-2.35486,2.67005-1.3664,4.63278ZM86.707,302.02524l-2.36879-1.97613,1.03505,3.52436Q86.61511,303.78822,86.707,302.02524Zm11.26466-72.59665c-.52285-1.05895-2.03261-.07347-3.02514.23594C95.4025,231.092,97.50591,230.36759,97.97168,229.42859Zm7.23569-.58658,2.308,1.86039C107.452,228.46265,107.452,228.46265,105.20738,228.842Zm-14.985,1.20973c1.78254,1.26146,2.21465-1.13269,1.20493-2.27751Zm28.96857-46.96249c-1.00613-.13564-2.292,1.10131-1.78347,2.09012C119.52376,184.43927,119.19092,184.75015,119.19092,183.08926Zm45.03556,144.91082,1.807,1.68306-.79765-3.72493Zm-39.90217,15.05979-.99478,2.02608h2.82306Zm20.608,51.89153c1.01712.26558,4.28594.05279,2.02437-1.773ZM86.18475,307.146c.86983-1.82658-1.07019-1.56255-2.02607-.90447Q84.24189,307.72368,86.18475,307.146Zm10.7154-64.67418c.6671,1.63855,1.52291,1.87624,2.73166,1.72889C99.37729,242.62864,98.23324,242.85573,96.90014,242.47183Zm-6.83631,68.4018.81978-2.58386-2.35987,1.20865Zm21.06229-63.6958c1.73052.83764,1.20711-1.23809.29-1.94135Q110.33174,245.785,111.12613,247.17784Zm-1.986-71.79642-1.738.95544,2.03509,1.379Zm-8.34543-23.19262c1.47394,1.16445,1.77244-1.03924.8919-2.02185Z"/>
      <path d="M174.24893,368.40374c3.87748,1.00524,2.98037,3.78479,3.822,6.7491.84336,2.97038,3.12155,5.37808,4.79425,7.96152,2.00952,3.10366,2.494,3.0311,1.08134,6.87514-1.61425,4.39266-2.88751,6.41168-7.72262,6.0885-3.34345-.22348-5.01668-.02548-6.8612-2.71117a49.85827,49.85827,0,0,1-4.98564-9.63581C161.58939,375.88141,166.11726,369.1462,174.24893,368.40374Z"/>
      <path d="M169.02758,418.84239c4.87749.79372,8.92195,8.27071,10.78852,12.455,2.02635,4.54247,2.43182,10.4501-4.6584,7.94245-2.57686-.91138-4.585-2.74468-7.17646-3.73013-2.6343-1.00174-6.183-.716-7.50015-3.78107C157.99215,425.93677,164.76716,420.81126,169.02758,418.84239Z"/>
      <path d="M174.06237,253.15186c-4.65906,2.26082-5.37167,1.55426-8.311-2.54387-.88462-1.23336-1.63894-3.00626-2.883-3.94846-2.83978-2.15079-1.51843-.17447-4.25887-1.03569-3.12558-.98226-5.10661-1.76869-3.215-5.51276,2.41159-4.77331,7.60066-.61286,11.67065-.53113-1.356-6.11648-.74557-11.54468-1.14055-17.72019-.416-6.504-2.0638-12.66444-2.69619-19.08719-.28017-2.84542.23006-5.75278-.16179-8.56119-.4706-3.3728-2.1469-5.73018-3.643-8.70822-2.38218-4.74189-3.519-9.70716-8.68028-12.29095-4.45866-2.23205-12.53952-2.132-17.63147-2.58336-5.345-.47375-12.54942,2.078-17.0012-1.51213-5.00759-4.03834-.79644-6.64073,3.86675-8.52125,6.32114-2.54911,12.9446-3.27252,19.51793-1.10431,6.13682,2.02424,12.43071,4.71405,18.471,7.04354,6.445,2.48556,7.76585,6.77871,12.16006,11.47176,8.8631,9.46586,6.27775,21.88911,6.45448,33.83244.09111,6.15671,1.11478,12.07668.60821,18.27321-.11422,1.39719-1.27619,6.15655-.57708,7.39417,1.447,2.56155,6.63268.21483,9.167,1.40372,3.61495,1.69585,5.84376,6.84933,1.99133,8.75689-.49724.24621-2.21937-.36792-2.93934-.19422-1.22068.29451-1.43233.98666-2.43079,1.375-1.53355.59642-8.35652,1.70045-5.92943,3.85585,1.34495,1.1944,7.72767-.52613,9.71328-.41694,3.33322.1833,5.68925.80434,8.98787.23186,3.67132-.63715,5.08187-1.63434,7.46794,1.56739,1.88684,2.53185,1.89776,4.695.06989,7.2529-3.64432,5.09993-10.31644,1.19736-15.44088,1.25792C179.47258,262.68879,177.52995,259.921,174.06237,253.15186Z"/>
      <path d="M204.32484,176.5417c2.65927.84387,5.159-.80469,8.08382-.831a41.95583,41.95583,0,0,1,9.10839.83474c3.68406.86433,8.78655,2.88855,8.15562,7.65941-.4592,3.47227-5.09873,6.30674-7.18111,9.11216-2.41732,3.25665-5.293,7.43738-9.46282,9.23606-6.14544,2.65089-23.00508-.538-25.83232-7.585-1.003-2.49995,1.01458-8.58761,3.0247-10.5614C193.71214,180.9788,199.90322,178.46177,204.32484,176.5417Zm12.14678,6.75062c-7.437.72719-15.41649-.80949-19.18659,7.07426C202.47757,190.85211,213.96934,188.96751,216.47163,183.29232Zm2.4164-2.06449c-2.03156,1.20326.66664,1.898,1.72868,1.63617Q220.85377,181.4242,218.888,181.22782Z"/>
      <path d="M151.78983,274.8207c1.89606-7.19271,17.6597-7.17507,23.11078-6.68358,4.0183.3623,8.02079.70067,12.0354,1.34241,3.34692.535,5.17875-.39217,6.25479,3.15385a11.51977,11.51977,0,0,1-.5618,5.96788c-2.03878,4.97414-3.81319,2.16744-7.82861.87952-3.338-1.07064-10.75056-2.10816-14.3178-1.30352-3.62851.81845-5.44512,3.75119-9.65015,3.78822C155.77916,282.01,154.4242,278.7534,151.78983,274.8207Z"/>
      <path d="M156.4719,269.37631c-4.64965-2.12985-13.40293-3.64449-15.14859-9.4117-1.72317-5.69292,9.59264-4.36276,13.45923-5.10532,2.68608-.51585,5.62023-1.5433,8.38462-1.33674,2.70154.20187,8.718,2.68517,7.41568,6.57048-.97116,2.89728-6.00288,2.59318-8.21324,3.77153C159.99181,265.13216,158.42838,267.58079,156.4719,269.37631Z"/>
      <path d="M178.50473,292.252c-3.066-3.78937-7.29663.43658-10.84692-1.538-4.65073-2.58661-1.72581-7.79808,2.586-8.0414,2.26288-.1277,4.28652,1.35651,6.5424,1.59669,1.91378.20376,4.54394-.86744,6.26745.17471C188.1739,287.54011,181.94718,291.77765,178.50473,292.252Z"/>
    </g>
  </g>
</svg>
